<?xml version="1.0" encoding="utf-8"?>
<!-- Generator: Adobe Illustrator 23.0.3, SVG Export Plug-In . SVG Version: 6.00 Build 0)  -->
<svg version="1.1" xmlns="http://www.w3.org/2000/svg" xmlns:xlink="http://www.w3.org/1999/xlink" x="0px" y="0px"
	 viewBox="0 0 3710 3710" style="enable-background:new 0 0 3710 3710;" xml:space="preserve">
<style type="text/css">
	.st0{display:none;}
	.st1{display:inline;}
	.st2{fill:#FFFFFF;}
	.st3{display:none;fill:#7544D3;stroke:#000000;stroke-miterlimit:10;}
	.st4{fill:#BA97FF;}
	.st5{clip-path:url(#SVGID_2_);fill:url(#SVGID_3_);}
	.st6{opacity:0.5;clip-path:url(#SVGID_2_);}
	.st7{fill:#BEB8F2;}
	.st8{fill:url(#SVGID_4_);}
	.st9{opacity:0.5;clip-path:url(#SVGID_6_);}
	.st10{fill:#FCFDFE;}
	.st11{fill:url(#SVGID_7_);}
	.st12{opacity:0.5;clip-path:url(#SVGID_9_);}
	.st13{fill:#26264F;}
	.st14{fill:url(#SVGID_10_);}
	.st15{fill:url(#SVGID_11_);}
	.st16{opacity:0.3;fill:url(#SVGID_12_);}
	.st17{fill:#DE8BDF;}
	.st18{fill:url(#SVGID_13_);}
	.st19{fill:url(#SVGID_14_);}
	.st20{fill:#D8DEE8;}
	.st21{fill:url(#SVGID_15_);}
	.st22{fill:url(#SVGID_16_);}
	.st23{fill:#F4F7FA;}
	.st24{fill:url(#SVGID_17_);}
	.st25{opacity:0.63;}
	.st26{fill:#7544D3;}
	.st27{fill:#E1EBF0;}
	.st28{fill:url(#SVGID_18_);}
	.st29{fill:url(#SVGID_19_);}
	.st30{fill:url(#SVGID_20_);}
	.st31{opacity:0.25;fill:url(#SVGID_21_);}
	.st32{fill:url(#SVGID_22_);}
	.st33{fill:url(#SVGID_23_);}
	.st34{fill:url(#SVGID_24_);}
	.st35{opacity:0.25;fill:url(#SVGID_25_);}
	.st36{fill:url(#SVGID_26_);}
	.st37{fill:url(#SVGID_27_);}
	.st38{fill:url(#SVGID_28_);}
	.st39{opacity:0.3;fill:url(#SVGID_29_);}
	.st40{fill:url(#SVGID_30_);}
	.st41{fill:url(#SVGID_31_);}
	.st42{fill:url(#SVGID_32_);}
	.st43{fill:url(#SVGID_33_);}
	.st44{fill:url(#SVGID_34_);}
	.st45{fill:#C2C2C2;}
	.st46{fill:url(#SVGID_35_);}
	.st47{fill:url(#SVGID_36_);}
	.st48{fill:url(#SVGID_37_);}
	.st49{fill:url(#SVGID_38_);}
	.st50{fill:url(#SVGID_39_);}
	.st51{fill:url(#SVGID_40_);}
	.st52{fill:url(#SVGID_41_);}
	.st53{fill:#999999;}
	.st54{fill:url(#SVGID_42_);}
	.st55{fill:url(#SVGID_43_);}
	.st56{fill:url(#SVGID_44_);}
	.st57{fill:url(#SVGID_45_);}
	.st58{fill:url(#SVGID_46_);}
	.st59{fill:url(#SVGID_47_);}
	.st60{opacity:0.52;fill:url(#SVGID_48_);}
	.st61{fill:url(#SVGID_49_);}
	.st62{fill:url(#SVGID_50_);}
	.st63{opacity:0.3;}
	.st64{fill:url(#SVGID_51_);}
	.st65{fill:url(#SVGID_52_);}
	.st66{fill:url(#SVGID_53_);}
	.st67{fill:#97A6B7;}
	.st68{fill:url(#SVGID_54_);}
	.st69{fill:url(#SVGID_55_);}
	.st70{clip-path:url(#SVGID_58_);}
	.st71{fill:url(#SVGID_59_);}
	.st72{fill:url(#SVGID_60_);}
	.st73{clip-path:url(#SVGID_63_);}
	.st74{fill:url(#SVGID_64_);}
	.st75{fill:url(#SVGID_65_);}
	.st76{clip-path:url(#SVGID_68_);}
	.st77{fill:url(#SVGID_69_);}
	.st78{fill:url(#SVGID_70_);}
	.st79{fill:url(#SVGID_71_);}
	.st80{fill:url(#SVGID_72_);}
	.st81{fill:url(#SVGID_73_);}
	.st82{fill:url(#SVGID_74_);}
	.st83{opacity:0.4;fill:url(#SVGID_75_);}
	.st84{fill:url(#SVGID_76_);}
	.st85{fill:url(#SVGID_77_);}
	.st86{opacity:0.5;fill:url(#SVGID_78_);}
	.st87{opacity:0.3;fill:url(#SVGID_79_);}
	.st88{opacity:0.8;fill:url(#SVGID_80_);}
	.st89{opacity:0.4;}
</style>
<g id="Background" class="st0">
	<g class="st1">
		<g>
			<rect class="st2" width="3710" height="3710"/>
		</g>
	</g>
</g>
<g id="Illustration">
	<rect x="-2803" y="-2016" class="st3" width="9546.8" height="7741.8"/>
	<g>
		<path class="st4" d="M1838,3125.8c299.5-124,324-430.6,594.9-460.7c236-26.2,329,194.1,494.2,152
			c251.7-64.1,402-668.5,293.5-1162.3c-112-509.8-561.8-1183.3-1291.5-1219.3c-819.4-40.5-1427.7,750.4-1455.8,1437.2
			c-3,74.3-18.4,696.5,462.3,1057.1C959.6,2947.9,1433.1,3293.5,1838,3125.8z"/>
		<g>
			<g>
				<defs>
					<path id="SVGID_1_" d="M1461.4,3073.3L1288.3,2930c0,0,40.9-115.8,135.2-143.3c192.4-56.2,129.7-220.8,113.8-293.6
						c-24-109.9,2.7-217.2,130.7-167.6c128,49.6,155.9-189.3,91.5-361.1c-63-168.1,199.5-377.2,369.3-25.8
						c101.4,209.9-67.4,361.8-134.5,458.8c-67,97,61.4,215.9-76.2,288.3c-117.5,61.9-249.2,68.8-245.9,181
						C1675.5,2978.7,1621.2,3056.4,1461.4,3073.3z"/>
				</defs>
				<clipPath id="SVGID_2_">
					<use xlink:href="#SVGID_1_"  style="overflow:visible;"/>
				</clipPath>
				
					<linearGradient id="SVGID_3_" gradientUnits="userSpaceOnUse" x1="-1724.3826" y1="3377.9824" x2="-2171.7048" y2="4649.3203" gradientTransform="matrix(-0.7704 -0.6375 -0.6375 0.7704 2813.7717 -1889.3982)">
					<stop  offset="0" style="stop-color:#FFC444"/>
					<stop  offset="0.9964" style="stop-color:#F36F56"/>
				</linearGradient>
				<path class="st5" d="M1461.4,3073.3L1288.3,2930c0,0,40.9-115.8,135.2-143.3c192.4-56.2,129.7-220.8,113.8-293.6
					c-24-109.9,3-203.7,122.1-180.6c134.7,26.2,164.5-176.3,100.1-348.1c-63-168.1,199.5-377.2,369.3-25.8
					c101.4,209.9-67.4,361.8-134.5,458.8c-67,97,61.4,215.9-76.2,288.3c-117.5,61.9-249.2,68.8-245.9,181
					C1675.5,2978.7,1621.2,3056.4,1461.4,3073.3z"/>
				<g class="st6">
					<path class="st7" d="M1373.2,3027.4l-3-3.6c2.3-1.9,226.9-191.8,392.8-447.2c152.9-235.3,285.8-575.9,50.6-862.6l3.7-3
						c104.7,127.6,146.4,276.3,123.9,442c-17.9,132.4-76.6,275.8-174.3,426.2C1600.5,2835.2,1375.4,3025.5,1373.2,3027.4z"/>
					<path class="st7" d="M1928.8,2221.8l-3.3-3.5c114.9-108.3,210.8-317.8,211.8-319.9l4.3,2
						C2140.7,1902.6,2044.4,2112.9,1928.8,2221.8z"/>
					<path class="st7" d="M1940.8,2111c-59.6-178.4-204.9-236.8-206.4-237.4l1.7-4.4c1.5,0.6,148.9,59.6,209.2,240.3L1940.8,2111z"
						/>
					<path class="st7" d="M1645.4,2737.6c101.7-206.1-97.6-442.3-99.7-444.4l3.1-3.6c2.3,1.9,203.5,242.2,100.9,450.1L1645.4,2737.6
						z"/>
					<path class="st7" d="M1706.9,2665.5l-3-3.7c114.6-91.6,297.5-68.4,299.4-68.1l-0.6,4.7
						C2000.9,2598.2,1819.9,2575.2,1706.9,2665.5z"/>
					<path class="st7" d="M1404.8,2993.1c50.2-71.4-1.6-203.8-2.1-205.1l4.4-1.8c2.2,5.5,53.3,136,1.6,209.6L1404.8,2993.1z"/>
					<path class="st7" d="M1458.6,2948.8l-3.1-3.6c52.3-45,179.9-37.8,221.8-35.5c5.9,0.3,11,0.6,12,0.5l0.7,4.7
						c-1.3,0.2-4.7,0-12.9-0.4C1635.6,2912.1,1509.5,2905,1458.6,2948.8z"/>
				</g>
			</g>
			<g>
				
					<linearGradient id="SVGID_4_" gradientUnits="userSpaceOnUse" x1="4458.0488" y1="2463.0562" x2="4929.2378" y2="3701.145" gradientTransform="matrix(-0.3809 0.9246 0.9246 0.3809 -180.1301 -2865.9626)">
					<stop  offset="0" style="stop-color:#AA80F9"/>
					<stop  offset="0.9964" style="stop-color:#6165D7"/>
				</linearGradient>
				<path class="st8" d="M1197.4,2723.1c50.3-7.3,86.1,26.6,108.1,55.2c-1.6,4.6-1.3,7.7-1.9,12.7c-5.2,45.1-17,63.2-29.2,106.9
					c-2.6,9.4-18.7,34.6-25.9,44.5l-13.8,18.2c0,0-117,2.6-125.8-63.4c-8.8-66-120.2-77.6-178.5-91.1c-35.8-8.3-49.5-23.5-62.2-28.6
					c-134-54.4-188.5-27-221.2-71.4c-36.1-49.1,20-96.6-16.5-152.1c-41.2-62.6-140.3-44.1-166-112.1c-4.4-11.7-8.6-23.8-7.9-40.4
					c1.7-41,33.7-63.9,12.1-100.9c-43.5-74.4-34.9-169.7,48-201.4c81.9-31.3,186.3,72.3,232.9,261.5
					c48.5,130.8,73.4,140.6,138.2,152.3c45.4,8.3,173.9,0.6,197,77.7C1108,2667.9,1139.9,2731.5,1197.4,2723.1z"/>
				<g>
					<defs>
						<path id="SVGID_5_" d="M1331,2816.9l-91.2,141.6c0,0-122,4.8-130.8-61.2c-8.8-66-120.2-77.6-178.5-91.1
							c-158.1-36.5-81.9-208.6-280.3-272.6c-52.8-17-160.1-30.7-185.4-91.6c-28.9-69.4,32-93.7,4.2-141.3
							c-43.5-74.4-34.9-169.7,48-201.4c81.9-31.3,186.3,72.3,232.9,261.5c48.5,130.8,73.4,140.5,138.2,152.3
							c45.4,8.3,173.9,0.6,197,77.7c23,77.2,54.9,140.8,112.4,132.4C1284.9,2710.4,1331,2816.9,1331,2816.9z"/>
					</defs>
					<clipPath id="SVGID_6_">
						<use xlink:href="#SVGID_5_"  style="overflow:visible;"/>
					</clipPath>
					<g class="st9">
						<path class="st10" d="M1283.9,2876.2l-1.5,3c-16.6-7.9-33.3-16.1-49.6-24.4c-120.3-61.3-229.9-132.5-326-211.6
							c-81.4-67-154.1-140.6-216.2-218.7c-49.9-62.8-93.3-128.9-128.8-196.5c-25-47.5-45.9-95.2-62.1-141.8
							c-2.8-8.1-5.3-16.6-7.7-24.8c-3.2-10.9-6.4-22.3-10.6-32.8l2.9-1.4c4.3,10.7,7.5,22.1,10.7,33.1c2.4,8.2,4.8,16.6,7.6,24.7
							c16.2,46.4,37,94,62,141.3c35.5,67.4,78.7,133.3,128.5,196c62,78,134.5,151.4,215.8,218.3c95.9,78.9,205.4,150,325.5,211.2
							C1250.6,2860,1267.3,2868.2,1283.9,2876.2z"/>
						<path class="st10" d="M772.7,2513.8l-2.3,2.4c-94.5-94.2-324.2-112.1-326.5-112.2l0.4-3.3
							C446.7,2400.9,677.4,2418.9,772.7,2513.8z"/>
						<path class="st10" d="M1060.9,2751.6l-2,2.7c-71.9-55.7-77.7-240-77.7-241.8l3.2-0.3C984.4,2514,990.1,2696.8,1060.9,2751.6z"
							/>
						<path class="st10" d="M1104.6,2779.3l-1.5,3c-53-26.7-140.8-32.6-247.2-16.7c-5.4,0.8-5.4,0.8-5.9,0.5l1.5-3l-0.7,1.5l0.2-1.6
							c0.4,0,2.4-0.3,4.7-0.7C962.7,2746.3,1051.1,2752.4,1104.6,2779.3z"/>
						<path class="st10" d="M1253.8,2861.2l-2.2,2.4c-46.7-46.1-35.4-148.8-35.2-149.8l3.1,0.2
							C1219.3,2715,1208.1,2816.1,1253.8,2861.2z"/>
						<path class="st10" d="M1282.5,2881c-53.2-3.9-110.2,8-174.3,36.6l-1.1-3c64.6-28.7,122.1-40.8,175.8-36.8L1282.5,2881z"/>
						<path class="st10" d="M586.3,2265.6l-2.4,2.3c-49.6-55.6-114.8-101.2-136.2-116.2c-5.2-3.6-7-4.9-7.6-5.5l2.3-2.4
							c0.4,0.4,3.4,2.5,7.1,5.1C471,2164,536.5,2209.7,586.3,2265.6z"/>
						<path class="st10" d="M653.2,2369.4l-2.9,1.5c-28.7-65.1,22.4-205.5,24.6-211.4l2.9,1C677.3,2161.9,625,2305.4,653.2,2369.4z"
							/>
					</g>
				</g>
			</g>
			<g>
				
					<linearGradient id="SVGID_7_" gradientUnits="userSpaceOnUse" x1="9575.3301" y1="2449.1868" x2="10209.666" y2="3493.4661" gradientTransform="matrix(-0.4759 0.8795 0.8795 0.4759 2967.9529 -7886.7905)">
					<stop  offset="0" style="stop-color:#FF9085"/>
					<stop  offset="1" style="stop-color:#FB6FBB"/>
				</linearGradient>
				<path class="st11" d="M1382.5,2623.7c-6.7,9.4-52.3-30.6-134.7-37.2c-20.6-1.7-132.3-18.4-175.2,54.8
					c-8.3,14.2-16.7,28.4-25,42.7c-39.3-5.1-75.4-17.2-64.1-67.9c17.5-78.8-96.5-140.3-147.3-142.7c-62.9-3-208.9-13-183.7-135.1
					c21-101.6,54.7-164-49.7-226.3c-104.4-62.3-138.3-159.1-76.5-258.3c65-104.4-24-264.3,69.5-328.9
					c163-112.5,325,150.9,292.6,374.2c-32.4,223.3,89.9,149.3,180.8,190.2c8.2,4.3,20.6,11.5,33.7,22.9
					c80.2,69.9,44.5,173.8,82.5,282.3C1237,2542.4,1393.9,2607.8,1382.5,2623.7z"/>
				<g>
					<defs>
						<path id="SVGID_8_" d="M1206.5,2455.2l-128.7,234.3c-39.1-3.2-106.9-16.7-94.3-73.4c17.5-78.8-96.5-140.3-147.3-142.7
							c-62.9-3-208.9-13-183.7-135.1c21-101.6,54.7-164-49.7-226.3c-104.4-62.3-138.3-159.1-76.5-258.3
							c65-104.4-24-264.3,69.5-328.9c163-112.5,325,150.9,292.6,374.2c-32.4,223.3,89.9,149.3,180.8,190.2
							c124.1,55.9,6.1,213.3,29,283.1C1116.1,2426.9,1170.8,2447,1206.5,2455.2z"/>
					</defs>
					<clipPath id="SVGID_9_">
						<use xlink:href="#SVGID_8_"  style="overflow:visible;"/>
					</clipPath>
					<g class="st12">
						<path class="st10" d="M1110.8,2546.8l-3.7,4.5c-307.2-256.2-482.7-670.2-458-1080.5l5.6,0
							C630,1879.4,804.8,2291.7,1110.8,2546.8z"/>
						<path class="st10" d="M955.8,2391.8l-2.8,5.1c-139.2-73.3-315.8-5.2-317.6-4.5l-1.8-5.3
							C635.5,2386.4,814.4,2317.4,955.8,2391.8z"/>
						<path class="st10" d="M1055.6,2498l-4.7,3.3c-85.9-135.7,43-414.2,44.4-417l5,2.2C1099,2089.2,971.3,2364.9,1055.6,2498z"/>
						<path class="st10" d="M752.6,2052.5l-4.5,3.7c-77.2-100.8-273.6-113.6-275.6-113.7l0.6-5.7
							C475.2,1936.8,673.9,1949.8,752.6,2052.5z"/>
						<path class="st10" d="M677.5,1804.1l-5.6,0.5c-4.7-149.3,128.4-306.6,129.7-308.2l4.1,3.6
							C804.4,1501.6,672.8,1657.2,677.5,1804.1z"/>
					</g>
				</g>
			</g>
		</g>
		<g>
			<g>
				<path class="st13" d="M1644.4,1001.6c81.6,689.5,163.2,1371.8,244.7,2046.9c3.7,30.3-17.3,57-46.5,59.5
					c-327.9,31.1-655.8,62.9-983.6,95.4c-58.5,2.8-90.6-29.8-94.4-62.6c-84-728.8-167.9-1465.2-251.9-2209.3
					c-3.8-33.4,24.5-62.1,83-59.3c329.5,23.5,659,46.7,988.5,69.5C1613.7,943.8,1640.8,970.6,1644.4,1001.6z"/>
				
					<linearGradient id="SVGID_10_" gradientUnits="userSpaceOnUse" x1="697.8356" y1="2036.9137" x2="2778.3804" y2="1957.3756" gradientTransform="matrix(1 0 0.1172 1.0028 -223.9047 -3.761)">
					<stop  offset="0" style="stop-color:#444B8C"/>
					<stop  offset="0.9964" style="stop-color:#26264F"/>
				</linearGradient>
				<path class="st14" d="M1690,1000.2c82.1,692.5,164.2,1377.7,246.3,2055.7c3.7,30.4-17.4,57.3-46.8,59.8
					c-340.5,28.8-680.9,58.2-1021.4,88.2c-31.1,2.8-59.6-21.8-63.4-54.7c-84.5-732.1-169-1472-253.5-2219.6
					c-3.8-33.6,18.7-59.3,50-57.2c342.7,22.9,685.5,45.4,1028.2,67.8C1659,942.1,1686.3,969.1,1690,1000.2z"/>
				<linearGradient id="SVGID_11_" gradientUnits="userSpaceOnUse" x1="600.1796" y1="2078.7954" x2="1898.6908" y2="2078.7954">
					<stop  offset="3.597120e-03" style="stop-color:#E38DDD"/>
					<stop  offset="1" style="stop-color:#9571F6"/>
				</linearGradient>
				<path class="st15" d="M1670.2,1113.5c76,641.6,152.1,1277,228.1,1906.1c3.4,28.4-16.2,53.5-43.7,55.8
					c-320.2,26.2-640.4,52.9-960.5,80.1c-28.9,2.5-55.5-20.6-59.1-51.1C756.8,2428,678.7,1745.2,600.6,1055.8
					c-3.5-31.2,17.4-55.3,46.5-53.6c322.2,18.8,644.4,37.3,966.5,55.7C1641.3,1059.4,1666.7,1084.5,1670.2,1113.5z"/>
				<linearGradient id="SVGID_12_" gradientUnits="userSpaceOnUse" x1="1638.7344" y1="1248.1826" x2="-363.0687" y2="5400.2944">
					<stop  offset="3.597120e-03" style="stop-color:#E38DDD"/>
					<stop  offset="1" style="stop-color:#9571F6"/>
				</linearGradient>
				<path class="st16" d="M1613.6,1057.8c-318.4-18.1-636.7-36.5-955.1-55c9.8,56.6,27,118.2,55.9,180.9
					c105.6,229.1,260.7,241.7,321.4,441.4c62.5,205.7-78.5,270.1-9.6,455.8c74.8,201.5,258.1,172.3,355,393.4
					c83.5,190.5-24,277.6,62.4,393.4c94.7,126.9,269.8,83.9,451.6,126.9c-75-620.9-150.1-1247.9-225.1-1881.1
					C1666.7,1084.5,1641.3,1059.4,1613.6,1057.8z"/>
			</g>
			<path class="st17" d="M1148.6,973.3c1.3,11.2-6.2,19.7-16.7,19.1c-10.6-0.6-20.2-10.2-21.5-21.4c-1.3-11.2,6.2-19.8,16.8-19.1
				C1137.7,952.5,1147.3,962.1,1148.6,973.3z"/>
			<linearGradient id="SVGID_13_" gradientUnits="userSpaceOnUse" x1="1189.9587" y1="1506.3634" x2="1337.3303" y2="1506.3634">
				<stop  offset="0" style="stop-color:#FF9085"/>
				<stop  offset="1" style="stop-color:#FB6FBB"/>
			</linearGradient>
			<ellipse class="st18" cx="1263.6" cy="1506.4" rx="73.7" ry="86.9"/>
			<linearGradient id="SVGID_14_" gradientUnits="userSpaceOnUse" x1="1483.2756" y1="1506.3634" x2="1630.6466" y2="1506.3634">
				<stop  offset="0" style="stop-color:#FF9085"/>
				<stop  offset="1" style="stop-color:#FB6FBB"/>
			</linearGradient>
			<ellipse class="st19" cx="1557" cy="1506.4" rx="73.7" ry="86.9"/>
			<ellipse class="st20" cx="1409.5" cy="1506.4" rx="74.7" ry="86.9"/>
			<linearGradient id="SVGID_15_" gradientUnits="userSpaceOnUse" x1="1776.5914" y1="1506.3634" x2="1923.9629" y2="1506.3634">
				<stop  offset="0" style="stop-color:#FF9085"/>
				<stop  offset="1" style="stop-color:#FB6FBB"/>
			</linearGradient>
			<ellipse class="st21" cx="1850.3" cy="1506.4" rx="73.7" ry="86.9"/>
			<ellipse class="st20" cx="1702.8" cy="1506.4" rx="74.7" ry="86.9"/>
			<ellipse class="st20" cx="1996.1" cy="1506.4" rx="74.7" ry="86.9"/>
			<ellipse class="st20" cx="1116.2" cy="1506.4" rx="74.7" ry="86.9"/>
			<linearGradient id="SVGID_16_" gradientUnits="userSpaceOnUse" x1="585.785" y1="1255.8365" x2="2223.208" y2="1255.8365">
				<stop  offset="0" style="stop-color:#FF9085"/>
				<stop  offset="1" style="stop-color:#FB6FBB"/>
			</linearGradient>
			<polygon class="st22" points="585.8,993.5 1043,1518.1 2223.2,1518.1 1651.3,1060 			"/>
			<g>
				<polygon class="st23" points="585.8,993.5 1043,1518.1 1190.9,1518.1 708.8,1001.2 				"/>
				<polygon class="st23" points="840.8,1009.4 1336.6,1518.1 1482.7,1518.1 973.9,1017.7 				"/>
				<polygon class="st23" points="1107.9,1026.1 1629.1,1518.1 1775.9,1518.1 1243,1034.5 				"/>
				<polygon class="st23" points="1516.2,1051.6 1379,1043 1923,1518.1 2070.5,1518.1 				"/>
			</g>
			<linearGradient id="SVGID_17_" gradientUnits="userSpaceOnUse" x1="2070.6616" y1="1555.7157" x2="2216.5254" y2="1555.7157">
				<stop  offset="0" style="stop-color:#FF9085"/>
				<stop  offset="1" style="stop-color:#FB6FBB"/>
			</linearGradient>
			<path class="st24" d="M2070.7,1518.1c4.9,42.4,35.6,75.2,72.9,75.2s68.1-32.7,72.9-75.2H2070.7z"/>
			<g class="st25">
				<path class="st23" d="M1655.6,2644.6l-622.1,18.8c-22.4,0.7-41.7-15.5-45.1-37.6L963.2,2460c-4-26.4,16.1-50.3,42.7-50.9
					l622.8-14.4c22.2-0.5,41.4,15.6,44.8,37.6l24.5,161.4C1702,2619.9,1682.1,2643.8,1655.6,2644.6z"/>
				<path class="st23" d="M1676.5,2780.9l-621.7,21.3c-22.4,0.8-41.9-15.4-45.3-37.6l-0.2-1.6c-4-26.2,15.8-50,42.3-50.9l622-19.7
					c22.4-0.7,41.8,15.4,45.1,37.6l0,0C1722.7,2756.2,1702.9,2780,1676.5,2780.9z"/>
			</g>
			<g id="surface1">
				<path class="st4" d="M1472.5,2017.7c-10.3,38.3-28.1,72.4-52.8,101.4c-28.2,32.9-66.4,60.6-113.7,82.1c-1.6,0.7-3.2,1.3-4.8,1.8
					c-2.2,0.6-4.4,1.1-6.7,1.3l-0.4,0c-2.4,0.2-4.8,0.2-7.2-0.1c-1.7-0.2-3.4-0.5-5-0.9c-50.5-12.6-93.1-32.9-126.8-60.3
					c-29.5-24-53.1-54.4-70.1-90.2c-30.9-65.2-36.2-139.5-40.5-199.3l-0.1-0.9c-0.2-4.9-0.5-10.1-1-15.9
					c-2.1-28.1,18.1-53.3,46-57.4c58.2-8.6,101.8-31.7,137-72.9l0.3-0.3c5.9-6.5,13.7-10.1,21.8-10.7c7.8-0.6,15.8,1.6,22.5,6.7
					l0.4,0.3c42.1,34.2,89.1,49.2,147.9,47.2c28.2-1,52.6,20.2,55.6,48.2c0.6,5.7,1.2,10.9,1.9,15.8l0,0.4
					C1483.2,1873.5,1491.3,1947.8,1472.5,2017.7z"/>
				<path class="st26" d="M1472.5,2017.7c-10.3,38.3-28.1,72.4-52.8,101.4c-28.2,32.9-66.4,60.6-113.7,82.1
					c-1.6,0.7-3.2,1.3-4.8,1.8c-2.2,0.6-4.4,1.1-6.7,1.3l-46-508.9c7.8-0.6,15.8,1.6,22.5,6.7l0.4,0.3
					c42.1,34.2,89.1,49.2,147.9,47.2c28.2-1,52.6,20.2,55.6,48.2c0.6,5.7,1.2,10.9,1.9,15.8l0,0.4
					C1483.2,1873.5,1491.3,1947.8,1472.5,2017.7z"/>
				<path class="st2" d="M1397.8,1938.3c6.3,69.8-45.2,131.7-114.9,138.3l-0.4,0c-69.9,6.3-132-45.4-138.3-115.4
					c-6.3-69.9,45.4-132,115.4-138.3l0.4,0C1329.7,1816.9,1391.5,1868.5,1397.8,1938.3z"/>
				<path class="st27" d="M1397.8,1938.3c6.3,69.8-45.2,131.7-114.9,138.3l-22.9-253.7C1329.7,1816.9,1391.5,1868.5,1397.8,1938.3z"
					/>
				<path class="st26" d="M1326.9,1926.3l-52,62.3l-11.2,13.5c-2.7,3.2-6.3,5-10.2,5.3c-3.8,0.3-7.8-0.8-11-3.4l-28.9-24.2
					c-6.4-5.3-7.2-14.8-1.9-21.1c5.3-6.4,14.8-7.2,21.1-1.9l17.4,14.5l53.6-64.2c5.3-6.4,14.8-7.2,21.1-1.9
					C1331.4,1910.5,1332.2,1920,1326.9,1926.3z"/>
				<path class="st4" d="M1326.9,1926.3l-52,62.3l-3.8-42.2l32.8-39.3c5.3-6.4,14.8-7.2,21.1-1.9
					C1331.4,1910.5,1332.2,1920,1326.9,1926.3z"/>
			</g>
		</g>
		<g>
			
				<linearGradient id="SVGID_18_" gradientUnits="userSpaceOnUse" x1="4050.9558" y1="-193.5952" x2="4190.1587" y2="-193.5952" gradientTransform="matrix(0.7588 0.6514 -0.6514 0.7588 -216.3903 -734.4166)">
				<stop  offset="0" style="stop-color:#311944"/>
				<stop  offset="1" style="stop-color:#6B3976"/>
			</linearGradient>
			<path class="st28" d="M3029.5,1857.1c7,1.7,18.9,3.7,32.9,0.6c15-3.3,36.5-13.3,36.5-25.1c0-5.7-4.9-7.6-11.7-15.8
				c-14.2-17.1-10.7-30.3-18.2-43.3c-16.3-28.6-72.7-34.4-81.5-20.4c-3.7,5.8,0.9,15.1,9.3,32.2c8.6,17.5,14.7,21.5,22,36.1
				C3022.5,1829,3027.2,1840.8,3029.5,1857.1z"/>
			
				<linearGradient id="SVGID_19_" gradientUnits="userSpaceOnUse" x1="2955.2773" y1="3031.2471" x2="3190.6204" y2="3253.4182" gradientTransform="matrix(0.9873 -0.1586 0.1586 0.9873 -230.7199 205.6246)">
				<stop  offset="0" style="stop-color:#AB316D"/>
				<stop  offset="1" style="stop-color:#792D3D"/>
			</linearGradient>
			<path class="st29" d="M3329.9,2822.5l3-5.2c0,0,5.4-3.2,8,3.5c2.6,6.7,17.1,41.7,17.9,57.6c-3.8,9.5-14.6,1.5-16.8-5
				c-2.2-6.5-9.9-30.4-9.9-30.4L3329.9,2822.5z"/>
			<linearGradient id="SVGID_20_" gradientUnits="userSpaceOnUse" x1="2921.9695" y1="2670.8113" x2="3155.0833" y2="2579.8967">
				<stop  offset="0" style="stop-color:#40447E"/>
				<stop  offset="0.9964" style="stop-color:#3C3B6B"/>
			</linearGradient>
			<path class="st30" d="M3295.6,2847.5c4.5-0.1,9,0,13.5-0.2c8.3-0.4,16.6-1,24.9-1.8c-1.4-8.7-2.8-17.3-4.2-26
				c-4.3-1.6-8.4-3.3-12.5-4.9c-2.1-0.8-4.1-1.7-6.1-2.5c-1.9-0.8-3.9-1.6-5.7-2.4c-2.7-1.2-5.4-2.3-8.1-3.5
				c-1.1-0.5-2.2-0.9-3.2-1.4c-3.1-1.4-6.2-2.8-9.1-4.2c-0.5-0.2-1-0.5-1.5-0.7c-3.2-1.5-6.4-3.1-9.5-4.6c-0.2-0.1-0.5-0.2-0.7-0.3
				c-3.3-1.6-6.4-3.2-9.5-4.9c0,0-0.1,0-0.1-0.1c-6.3-3.3-12.3-6.6-18-10l0,0c-70.5-41.2-93.8-83-101-115.9
				c-20.2-92.5,78.7-151.9,53.2-252.2c-19.3-75.6-100.5-140.3-150.6-125.2c-56.5,17-65.4,126.6-70.8,194
				c-6.1,75.9-13,160.5,35.6,236.2c46,71.7,129,115.9,224.6,127.6c0,0,0,0,0,0c2.3,0.3,4.6,0.4,6.9,0.6c5.5,0.6,11.1,1.2,16.7,1.6
				c2.6,0.2,5.2,0.2,7.8,0.3c5.5,0.3,10.9,0.6,16.5,0.6C3288.2,2847.7,3292,2847.5,3295.6,2847.5z"/>
			<linearGradient id="SVGID_21_" gradientUnits="userSpaceOnUse" x1="2921.9695" y1="2670.8113" x2="3155.0833" y2="2579.8967">
				<stop  offset="0" style="stop-color:#40447E"/>
				<stop  offset="0.9964" style="stop-color:#3C3B6B"/>
			</linearGradient>
			<path class="st31" d="M3295.6,2847.5c4.5-0.1,9,0,13.5-0.2c8.3-0.4,16.6-1,24.9-1.8c-1.4-8.7-2.8-17.3-4.2-26
				c-4.3-1.6-8.4-3.3-12.5-4.9c-2.1-0.8-4.1-1.7-6.1-2.5c-1.9-0.8-3.9-1.6-5.7-2.4c-2.7-1.2-5.4-2.3-8.1-3.5
				c-1.1-0.5-2.2-0.9-3.2-1.4c-3.1-1.4-6.2-2.8-9.1-4.2c-0.5-0.2-1-0.5-1.5-0.7c-3.2-1.5-6.4-3.1-9.5-4.6c-0.2-0.1-0.5-0.2-0.7-0.3
				c-3.3-1.6-6.4-3.2-9.5-4.9c0,0-0.1,0-0.1-0.1c-6.3-3.3-12.3-6.6-18-10l0,0c-70.5-41.2-93.8-83-101-115.9
				c-20.2-92.5,78.7-151.9,53.2-252.2c-19.3-75.6-100.5-140.3-150.6-125.2c-56.5,17-65.4,126.6-70.8,194
				c-6.1,75.9-13,160.5,35.6,236.2c46,71.7,129,115.9,224.6,127.6c0,0,0,0,0,0c2.3,0.3,4.6,0.4,6.9,0.6c5.5,0.6,11.1,1.2,16.7,1.6
				c2.6,0.2,5.2,0.2,7.8,0.3c5.5,0.3,10.9,0.6,16.5,0.6C3288.2,2847.7,3292,2847.5,3295.6,2847.5z"/>
			<linearGradient id="SVGID_22_" gradientUnits="userSpaceOnUse" x1="2781.0178" y1="1991.8519" x2="2975.3887" y2="2176.6003">
				<stop  offset="0" style="stop-color:#AA80F9"/>
				<stop  offset="0.9964" style="stop-color:#6165D7"/>
			</linearGradient>
			<path class="st32" d="M2835.5,2309.8c-10.8-17.1,39.6-42.4,55.9-112.8c13.8-59.4-14.4-74.4,1-153.9c8.6-44.3,23.2-70,40.3-88.7
				c14.1-15.4,32.3-35.4,48.8-32.8c51.6,8.2,112.7,242.9,9.6,345.3C2938.1,2319.5,2848.5,2330.4,2835.5,2309.8z"/>
			<g>
				
					<linearGradient id="SVGID_23_" gradientUnits="userSpaceOnUse" x1="2556.7659" y1="3356.5691" x2="2550.5037" y2="3665.8315" gradientTransform="matrix(0.9832 -0.1825 0.1825 0.9832 -66.6194 160.6767)">
					<stop  offset="0" style="stop-color:#AB316D"/>
					<stop  offset="1" style="stop-color:#792D3D"/>
				</linearGradient>
				<path class="st33" d="M3106.4,3053c-2.3-5.4-15.3,8.2-27.3,22.6c1.6,20.7,3.1,41.4,4.7,62c-4.3-2.7-9.7-5.7-15.7-7.1
					c-7.3-1.7-19.9,0.9-20.9,4.4c-6,21.5,47.8,26.3,53.6,19.5c5.9-6.8,4.5-14.7,4.5-14.7c-5.5-31.1-4.7-52.1-2.1-66.6
					C3104.9,3062.9,3107.7,3056,3106.4,3053z"/>
				
					<linearGradient id="SVGID_24_" gradientUnits="userSpaceOnUse" x1="2627.0217" y1="2841.7622" x2="2721.856" y2="3163.1438" gradientTransform="matrix(0.9832 -0.1825 0.1825 0.9832 -66.6194 160.6767)">
					<stop  offset="0" style="stop-color:#40447E"/>
					<stop  offset="0.9964" style="stop-color:#3C3B6B"/>
				</linearGradient>
				<path class="st34" d="M3244,2359.5c-30.7-45.2-60.6-90.9-90.5-136.6c-5.9-9-9.3-19.4-10.9-30.3c-11.9,9.4-23.3,20.7-33.8,34
					c-8.4,42.3-21.5,105.9-38.7,183c-43.7,195.9-62.1,244.9-71.3,306.5c-14.3,94.8-9.2,234.5,84.9,421.5c7.2,0.7,14.4,1.4,21.5,2.1
					c15.1-160,32.5-304.4,41.3-378.6c3-25.2,11.7-100.7,52.2-161.6c0.7-1,60.5-82.8,81.1-115.5c6.9-10.9,15.5-25,25.2-43.9
					C3281.9,2415.8,3263.3,2388,3244,2359.5z"/>
				<linearGradient id="SVGID_25_" gradientUnits="userSpaceOnUse" x1="3103.4624" y1="2420.9758" x2="3200.5491" y2="2749.9912">
					<stop  offset="0" style="stop-color:#40447E"/>
					<stop  offset="0.9964" style="stop-color:#3C3B6B"/>
				</linearGradient>
				<path class="st35" d="M3244,2359.5c-30.7-45.2-60.6-90.9-90.5-136.6c-5.9-9-9.3-19.4-10.9-30.3c-11.9,9.4-23.3,20.8-33.8,34
					c-13.4,51.7-22.9,96-29.6,129.8c-18.5,93.8-17.5,119.8-4.2,143.1c18.2,32,39.2,23.4,52.6,51.2c23.4,48.9-39.2,82.3-38.6,176.5
					c0.3,52.3,19,65.4,10.5,113.3c-2.2,12.4-8.4,39.6-5.7,77c1.2,16.4,2.5,12.8,3.5,27.7c2.9,42.2-7.2,81.1-2.8,107.5
					c1.6,9.5,4.8,16.1,6,18.5c3.4,6.5,7.3,11.1,10.1,14c13.7-137.7,28.2-258.3,35.9-324c3-25.2,11.7-100.7,52.2-161.6
					c0.7-1,60.5-82.8,81.1-115.5c6.9-10.9,15.5-25,25.2-43.9C3281.9,2415.8,3263.3,2388,3244,2359.5z"/>
			</g>
			
				<linearGradient id="SVGID_26_" gradientUnits="userSpaceOnUse" x1="3174.7031" y1="2087.5652" x2="3709.531" y2="2426.4653" gradientTransform="matrix(0.9995 -3.020000e-02 3.020000e-02 0.9995 -235.3357 118.8563)">
				<stop  offset="0" style="stop-color:#AA80F9"/>
				<stop  offset="0.9964" style="stop-color:#6165D7"/>
			</linearGradient>
			<path class="st36" d="M2926.7,1964.2c-19.3,35.3-17.1,70.6-15,86c6.3,46.3,33.4,77.2,42.5,88.9c30.5,39.2,54.2,116.6,16.4,286.4
				c21.2-3.4,56.2-6.7,96.9,1.8c103.5,21.6,144.9,98.5,194.5,84.4c18.3-5.2,43.2-24.3,60.6-95.6c15.2-37.1,62.5-165.7,14-317
				c-34.7-108.2-101.4-175.1-134.4-204.1c-28.4-9.6-117.1-35.4-201.5,5.4C2979.7,1910.6,2947,1927,2926.7,1964.2z"/>
			
				<linearGradient id="SVGID_27_" gradientUnits="userSpaceOnUse" x1="-762.6411" y1="2811.4854" x2="-752.7907" y2="2549.1023" gradientTransform="matrix(-0.9261 0.3773 0.3773 0.9261 1315.5769 -288.2454)">
				<stop  offset="0" style="stop-color:#311944"/>
				<stop  offset="1" style="stop-color:#893976"/>
			</linearGradient>
			<path class="st37" d="M3040.9,1824.1c0,7.5,0.3,47.5,18,54c3.9,1.4,7,0.5,24.2,1c9.8,0.3,17.8,0.8,23,1.2
				c-0.9,6.8-2.6,16-6.2,26.2c-22.1,62.2-93.7,105.4-117.9,89.9c-12.6-8.1-13.6-32.4-14-42.5c-0.6-15.2,3-27.2,5.7-34
				c8.9-6.4,18-12.9,27.2-19.4c6.1-4.2,12.1-8.4,18.1-12.4c-0.4-7.7-0.8-15.3-1.2-23C3025.5,1851.4,3033.2,1837.8,3040.9,1824.1z"/>
			
				<linearGradient id="SVGID_28_" gradientUnits="userSpaceOnUse" x1="-1829.7695" y1="622.0897" x2="-1835.0433" y2="471.7909" gradientTransform="matrix(-0.8767 -0.4811 -0.4811 0.8767 1635.6863 547.8022)">
				<stop  offset="0" style="stop-color:#311944"/>
				<stop  offset="1" style="stop-color:#A03976"/>
			</linearGradient>
			<path class="st38" d="M3047.3,1851c0,0-21.4,25-48.3,16c-24.1-8.1-11.5-70.1,7.2-77.6c6.3-2.5,17.9-1.8,25.8,2.8
				c5.5,3.3,25.6,20.2,17.8,40.7c5.9-3.5,12-3.8,15.5-0.9c0.6,0.5,1.9,2.1,2.4,4C3069.5,1843.2,3061.6,1849.7,3047.3,1851z"/>
			
				<linearGradient id="SVGID_29_" gradientUnits="userSpaceOnUse" x1="3162.5251" y1="2084.5645" x2="3711.6458" y2="2432.5217" gradientTransform="matrix(0.9995 -3.020000e-02 3.020000e-02 0.9995 -235.3357 118.8563)">
				<stop  offset="0" style="stop-color:#AA80F9"/>
				<stop  offset="0.9964" style="stop-color:#6165D7"/>
			</linearGradient>
			<path class="st39" d="M3336.7,2099.1c-27.1-84.7-73.8-143.9-108.7-179.6c-40,26.4-80.7,62.3-77.3,100.7
				c3.9,43.7,62.3,61.8,56.8,89.4c-7.9,40.1-135.1,24.9-149.9,69c-17.5,51.9,133.3,149.7,125.2,160.7c-5.8,7.9-75.1-48-153.9-35
				c-15.3,2.5-29,8.5-41.2,16.3c-2.8,30.4-8.3,65.1-17.1,104.9c21.2-3.4,56.2-6.7,96.9,1.8c103.5,21.6,144.9,98.5,194.5,84.4
				c18.3-5.2,43.2-24.3,60.6-95.6C3337.8,2379,3385.1,2250.4,3336.7,2099.1z"/>
			<linearGradient id="SVGID_30_" gradientUnits="userSpaceOnUse" x1="3136.9778" y1="2048.3201" x2="3419.8513" y2="2227.5664">
				<stop  offset="0" style="stop-color:#AA80F9"/>
				<stop  offset="0.9964" style="stop-color:#6165D7"/>
			</linearGradient>
			<path class="st40" d="M3145.9,1897.9c24-6,24.2-13.8,56.3-3c92.3,31.1,190,170.4,139.5,268.7c-28.1,54.7-95.4,104-169.6,92.7
				c-60.4-9.3-95.9-54.2-104.9-66.4c-3.5-14-7-28-10.5-42c39.4,22.3,67.1,22.3,85.7,17.5c31.6-8.2,38.7-30.9,90.9-50.7
				c20.4-7.7,32.6-9.3,33.2-15.7c1.3-13.2-49.9-17.7-82.2-45.5C3160.9,2033.3,3137.4,1992,3145.9,1897.9z"/>
			<linearGradient id="SVGID_31_" gradientUnits="userSpaceOnUse" x1="2988.4868" y1="2156.5991" x2="3116.3174" y2="2156.5991">
				<stop  offset="0" style="stop-color:#311944"/>
				<stop  offset="1" style="stop-color:#A03976"/>
			</linearGradient>
			<path class="st41" d="M3059.5,2159.1l-11-3.2c0,0-14.1-9.9-23.1-13.8c-3.5-1.6-6.8-2.3-10.4-2.2v0c0,0-32.6-13.5-25.6-5.7
				c7,7.8,15.2,12.1,15.2,12.1s0,0.2-0.3,0.7c-0.1,0.2-0.2,0.3-0.3,0.5c-0.8,1.2-1.2,2.4-1.5,3.6c-2,6.2-1.6,16.7,20,22.5l0,0
				c5.2,1.4,11.7,1.5,17.4,1.2c5.9-0.3,25.3,6.8,25.3,6.8L3059.5,2159.1z"/>
			<g>
				<g>
					<g>
						<linearGradient id="SVGID_32_" gradientUnits="userSpaceOnUse" x1="1908.3761" y1="3132.7671" x2="1926.2848" y2="3147.8269">
							<stop  offset="0" style="stop-color:#AA80F9"/>
							<stop  offset="0.9964" style="stop-color:#6165D7"/>
						</linearGradient>
						<path class="st42" d="M1975.7,3162.2c0,23.5-14.5,42.6-32.4,42.6c-17.9,0-32.4-19.1-32.4-42.6c0-23.5,14.5-42.6,32.4-42.6
							C1961.2,3119.6,1975.7,3138.7,1975.7,3162.2z"/>
						<linearGradient id="SVGID_33_" gradientUnits="userSpaceOnUse" x1="1919.9897" y1="3166.9783" x2="1984.7299" y2="3166.9783">
							<stop  offset="0" style="stop-color:#AA80F9"/>
							<stop  offset="0.9964" style="stop-color:#6165D7"/>
						</linearGradient>
						<path class="st43" d="M1984.7,3167c0,23.5-14.5,42.6-32.4,42.6c-17.9,0-32.4-19.1-32.4-42.6c0-23.5,14.5-42.6,32.4-42.6
							C1970.2,3124.4,1984.7,3143.5,1984.7,3167z"/>
						<linearGradient id="SVGID_34_" gradientUnits="userSpaceOnUse" x1="1938.793" y1="3167.8362" x2="1965.9209" y2="3167.8362">
							<stop  offset="0" style="stop-color:#40447E"/>
							<stop  offset="0.9964" style="stop-color:#3C3B6B"/>
						</linearGradient>
						<path class="st44" d="M1965.9,3167.8c0,9.9-6.1,17.8-13.6,17.8c-7.5,0-13.6-8-13.6-17.8c0-9.9,6.1-17.8,13.6-17.8
							C1959.8,3150,1965.9,3158,1965.9,3167.8z"/>
					</g>
					<path class="st45" d="M1943.3,3115v46.8c0,6.9,5.6,12.4,12.4,12.4l0,0c4,0,7.7-1.9,10-5.1l42.1-57.6L1943.3,3115z"/>
				</g>
				<g>
					<g>
						<linearGradient id="SVGID_35_" gradientUnits="userSpaceOnUse" x1="2254.9373" y1="3095.4277" x2="2272.8459" y2="3110.4875">
							<stop  offset="0" style="stop-color:#AA80F9"/>
							<stop  offset="0.9964" style="stop-color:#6165D7"/>
						</linearGradient>
						<path class="st46" d="M2322.3,3124.8c0,23.5-14.5,42.6-32.4,42.6c-17.9,0-32.4-19.1-32.4-42.6c0-23.5,14.5-42.6,32.4-42.6
							C2307.8,3082.3,2322.3,3101.3,2322.3,3124.8z"/>
						<linearGradient id="SVGID_36_" gradientUnits="userSpaceOnUse" x1="2266.5518" y1="3129.6399" x2="2331.292" y2="3129.6399">
							<stop  offset="0" style="stop-color:#AA80F9"/>
							<stop  offset="0.9964" style="stop-color:#6165D7"/>
						</linearGradient>
						<path class="st47" d="M2331.3,3129.6c0,23.5-14.5,42.6-32.4,42.6c-17.9,0-32.4-19.1-32.4-42.6c0-23.5,14.5-42.6,32.4-42.6
							C2316.8,3087.1,2331.3,3106.1,2331.3,3129.6z"/>
						<linearGradient id="SVGID_37_" gradientUnits="userSpaceOnUse" x1="2285.355" y1="3130.4973" x2="2312.4819" y2="3130.4973">
							<stop  offset="0" style="stop-color:#40447E"/>
							<stop  offset="0.9964" style="stop-color:#3C3B6B"/>
						</linearGradient>
						<path class="st48" d="M2312.5,3130.5c0,9.9-6.1,17.8-13.6,17.8c-7.5,0-13.6-8-13.6-17.8s6.1-17.8,13.6-17.8
							C2306.4,3112.7,2312.5,3120.6,2312.5,3130.5z"/>
					</g>
					<path class="st45" d="M2289.9,3077.7v46.8c0,6.9,5.6,12.4,12.4,12.4l0,0c4,0,7.7-1.9,10-5.1l42.1-57.6L2289.9,3077.7z"/>
				</g>
				<g>
					<path class="st45" d="M1938.5,3117.8c-2,0-3.8-1.5-4-3.6c-0.2-2.2,1.3-4.2,3.6-4.5l410.4-46.3c24.3-4.2,44.3-22.4,50.8-46.5
						l171.9-640.1c8.7-32.2,36.9-55.4,70.2-57.7l124.8-7.4c2.2-0.2,4.1,1.6,4.3,3.8c0.1,2.2-1.6,4.1-3.8,4.3l-124.8,7.4
						c-29.8,2.1-55.1,22.9-62.9,51.8L2407,3019.2c-7.3,27.1-29.8,47.6-57.4,52.3l-410.6,46.3
						C1938.8,3117.8,1938.7,3117.8,1938.5,3117.8z"/>
				</g>
				<g>
					<path class="st45" d="M2224,2865.8c-1.8,0-3.4-1.2-3.9-2.9l-96.6-338.2c-0.6-2.1,0.6-4.4,2.8-5c2.1-0.6,4.4,0.6,5,2.8
						l96.6,338.2c0.6,2.1-0.6,4.4-2.8,5C2224.8,2865.8,2224.4,2865.8,2224,2865.8z"/>
				</g>
				<g>
					<path class="st45" d="M2322.9,2851.7c-1.9,0-3.6-1.4-4-3.3l-59.6-335c-0.4-2.2,1.1-4.3,3.3-4.7c2.2-0.4,4.3,1.1,4.7,3.3
						l59.6,335c0.4,2.2-1.1,4.3-3.3,4.7C2323.4,2851.7,2323.2,2851.7,2322.9,2851.7z"/>
				</g>
				<g>
					<path class="st45" d="M2384.3,2840.7c-0.1,0-0.1,0-0.2,0c-2.2-0.1-3.9-2-3.9-4.2l13.8-331.4c0.1-2.2,1.9-4,4.2-3.9
						c2.2,0.1,3.9,2,3.9,4.2l-13.8,331.4C2388.3,2839,2386.5,2840.7,2384.3,2840.7z"/>
				</g>
				<g>
					<path class="st45" d="M2089.2,2878.2c-1.7,0-3.3-1.1-3.8-2.7l-113.5-338.3c-0.7-2.1,0.4-4.4,2.5-5.1c2.1-0.7,4.4,0.4,5.1,2.5
						l113.5,338.3c0.7,2.1-0.4,4.4-2.5,5.1C2090,2878.1,2089.6,2878.2,2089.2,2878.2z"/>
				</g>
				<g>
					<linearGradient id="SVGID_38_" gradientUnits="userSpaceOnUse" x1="2763.8647" y1="2325.3276" x2="3065.9548" y2="2325.3276">
						<stop  offset="0" style="stop-color:#40447E"/>
						<stop  offset="0.9964" style="stop-color:#3C3B6B"/>
					</linearGradient>
					<path class="st49" d="M3057.7,2344.9c-0.2,0-0.5,0-0.7,0l-285.6-23c-4.5-0.4-7.9-4.3-7.5-8.7c0.4-4.4,4.4-7.8,8.9-7.4l285.6,23
						c4.5,0.4,7.9,4.3,7.5,8.7C3065.6,2341.7,3062,2344.9,3057.7,2344.9z"/>
				</g>
				<g>
					<g>
						<linearGradient id="SVGID_39_" gradientUnits="userSpaceOnUse" x1="2212.4321" y1="3248.9006" x2="2230.3408" y2="3263.9602">
							<stop  offset="0" style="stop-color:#AA80F9"/>
							<stop  offset="0.9964" style="stop-color:#6165D7"/>
						</linearGradient>
						<path class="st50" d="M2279.8,3278.3c0,23.5-14.5,42.6-32.4,42.6c-17.9,0-32.4-19.1-32.4-42.6s14.5-42.6,32.4-42.6
							C2265.3,3235.7,2279.8,3254.8,2279.8,3278.3z"/>
						<linearGradient id="SVGID_40_" gradientUnits="userSpaceOnUse" x1="2224.0459" y1="3283.1123" x2="2288.7859" y2="3283.1123">
							<stop  offset="0" style="stop-color:#AA80F9"/>
							<stop  offset="0.9964" style="stop-color:#6165D7"/>
						</linearGradient>
						<path class="st51" d="M2288.8,3283.1c0,23.5-14.5,42.6-32.4,42.6c-17.9,0-32.4-19.1-32.4-42.6s14.5-42.6,32.4-42.6
							C2274.3,3240.5,2288.8,3259.6,2288.8,3283.1z"/>
						<linearGradient id="SVGID_41_" gradientUnits="userSpaceOnUse" x1="2242.8491" y1="3283.9697" x2="2269.9771" y2="3283.9697">
							<stop  offset="0" style="stop-color:#40447E"/>
							<stop  offset="0.9964" style="stop-color:#3C3B6B"/>
						</linearGradient>
						<path class="st52" d="M2270,3284c0,9.9-6.1,17.8-13.6,17.8c-7.5,0-13.6-8-13.6-17.8c0-9.9,6.1-17.8,13.6-17.8
							C2263.9,3266.1,2270,3274.1,2270,3284z"/>
					</g>
					<path class="st53" d="M2247.4,3231.1v46.8c0,6.9,5.6,12.4,12.4,12.4l0,0c4,0,7.7-1.9,10-5.1l42.1-57.6L2247.4,3231.1z"/>
				</g>
				<g>
					<g>
						<linearGradient id="SVGID_42_" gradientUnits="userSpaceOnUse" x1="2512.4802" y1="3218.8625" x2="2530.3889" y2="3233.9224">
							<stop  offset="0" style="stop-color:#AA80F9"/>
							<stop  offset="0.9964" style="stop-color:#6165D7"/>
						</linearGradient>
						<path class="st54" d="M2579.8,3248.3c0,23.5-14.5,42.6-32.4,42.6c-17.9,0-32.4-19.1-32.4-42.6c0-23.5,14.5-42.6,32.4-42.6
							C2565.3,3205.7,2579.8,3224.7,2579.8,3248.3z"/>
						<linearGradient id="SVGID_43_" gradientUnits="userSpaceOnUse" x1="2524.0945" y1="3253.0742" x2="2588.8347" y2="3253.0742">
							<stop  offset="0" style="stop-color:#AA80F9"/>
							<stop  offset="0.9964" style="stop-color:#6165D7"/>
						</linearGradient>
						<path class="st55" d="M2588.8,3253.1c0,23.5-14.5,42.6-32.4,42.6c-17.9,0-32.4-19.1-32.4-42.6c0-23.5,14.5-42.6,32.4-42.6
							C2574.3,3210.5,2588.8,3229.6,2588.8,3253.1z"/>
						<linearGradient id="SVGID_44_" gradientUnits="userSpaceOnUse" x1="2542.8977" y1="3253.9312" x2="2570.0249" y2="3253.9312">
							<stop  offset="0" style="stop-color:#40447E"/>
							<stop  offset="0.9964" style="stop-color:#3C3B6B"/>
						</linearGradient>
						<path class="st56" d="M2570,3253.9c0,9.9-6.1,17.8-13.6,17.8s-13.6-8-13.6-17.8c0-9.9,6.1-17.8,13.6-17.8
							S2570,3244.1,2570,3253.9z"/>
					</g>
					<path class="st53" d="M2547.4,3201.1v46.8c0,6.9,5.6,12.4,12.4,12.4l0,0c4,0,7.7-1.9,10-5.1l42.1-57.6L2547.4,3201.1z"/>
				</g>
				<g>
					<path class="st45" d="M1810.8,2547.6c-2.1,0-3.9-1.6-4-3.7c-0.2-2.2,1.5-4.1,3.7-4.3l730.9-52.6c0.3,0,0.6,0,1,0l302.6,51.5
						c2.2,0.4,3.7,2.5,3.3,4.6c-0.4,2.2-2.5,3.7-4.6,3.3l-302.1-51.5l-730.5,52.6C1811,2547.6,1810.9,2547.6,1810.8,2547.6z"/>
				</g>
				<g>
					<path class="st53" d="M2059.2,2623c-0.4,0-0.8-0.1-1.2-0.2l-248.4-75.4c-2.1-0.6-3.3-2.9-2.7-5c0.6-2.1,2.9-3.3,5-2.7
						l247.6,75.2l784.4-76.4c2.3-0.2,4.2,1.4,4.4,3.6c0.2,2.2-1.4,4.2-3.6,4.4l-785.2,76.5C2059.5,2623,2059.3,2623,2059.2,2623z"/>
				</g>
				<g>
					<path class="st45" d="M2749.8,2889.8c-0.2,0-0.4,0-0.6,0l-298.3-45.8l-453.6,43.7c-2.2,0.2-4.2-1.4-4.4-3.6
						c-0.2-2.2,1.4-4.2,3.6-4.4l454.1-43.7c0.3,0,0.7,0,1,0l298.8,45.8c2.2,0.3,3.7,2.4,3.4,4.6
						C2753.5,2888.4,2751.8,2889.8,2749.8,2889.8z"/>
				</g>
				<g>
					<path class="st53" d="M2209.9,2941.2c-1.5,0-3-0.9-3.6-2.3l-150.7-318.1c-1-2-0.1-4.4,1.9-5.4c2-0.9,4.4-0.1,5.4,1.9
						l149.5,315.6l537.1-51.1c2.3-0.2,4.2,1.4,4.4,3.6c0.2,2.2-1.4,4.2-3.6,4.4l-539.9,51.3
						C2210.2,2941.2,2210.1,2941.2,2209.9,2941.2z"/>
				</g>
				<g>
					<path class="st53" d="M2209.9,2941.2c-0.3,0-0.7,0-1-0.1l-213-53.5c-1.1-0.3-2-1-2.6-2l-186.1-340.1c-1.1-2-0.4-4.4,1.6-5.5
						c2-1.1,4.4-0.3,5.5,1.6l185.3,338.5l211.3,53c2.2,0.5,3.5,2.7,2.9,4.9C2213.4,2940,2211.7,2941.2,2209.9,2941.2z"/>
				</g>
				<g>
					<path class="st53" d="M2114,2738.8c-0.4,0-0.8-0.1-1.1-0.2L1879,2670c-2.1-0.6-3.4-2.9-2.7-5c0.6-2.1,2.9-3.4,5-2.7l233.2,68.3
						l691.5-60.3c2.2-0.2,4.2,1.4,4.4,3.7c0.2,2.2-1.4,4.2-3.7,4.4l-692.3,60.4C2114.3,2738.8,2114.1,2738.8,2114,2738.8z"/>
				</g>
				<g>
					<path class="st53" d="M2171.2,2859.4c-0.4,0-0.7,0-1.1-0.1l-224.1-62.8c-2.1-0.6-3.4-2.8-2.8-5c0.6-2.1,2.8-3.4,5-2.8
						l223.4,62.6l600.6-52.5c2.3-0.2,4.2,1.4,4.4,3.7c0.2,2.2-1.4,4.2-3.7,4.4l-601.3,52.6
						C2171.4,2859.4,2171.3,2859.4,2171.2,2859.4z"/>
				</g>
				<g>
					<path class="st53" d="M2320.2,2930.7c-1.7,0-3.3-1.1-3.9-2.9l-96.1-322.5c-0.6-2.1,0.6-4.4,2.7-5c2.1-0.6,4.4,0.6,5,2.7
						l96.1,322.5c0.6,2.1-0.6,4.4-2.7,5C2320.9,2930.6,2320.6,2930.7,2320.2,2930.7z"/>
				</g>
				<g>
					<path class="st53" d="M2426.5,2920.6c-1.9,0-3.6-1.4-4-3.3l-57.7-326.7c-0.4-2.2,1.1-4.3,3.3-4.7c2.2-0.4,4.3,1.1,4.7,3.3
						l57.7,326.7c0.4,2.2-1.1,4.3-3.3,4.7C2427,2920.6,2426.7,2920.6,2426.5,2920.6z"/>
				</g>
				<g>
					<path class="st53" d="M2546.4,2906.9c-2.1,0-3.9-1.7-4-3.8l-18.2-324.4c-0.1-2.2,1.6-4.1,3.8-4.2c2.2-0.1,4.1,1.6,4.2,3.8
						l18.2,324.4c0.1,2.2-1.6,4.1-3.8,4.2C2546.6,2906.9,2546.5,2906.9,2546.4,2906.9z"/>
				</g>
				<g>
					<path class="st53" d="M2660.1,2894.2c-0.1,0-0.1,0-0.2,0c-2.2-0.1-3.9-2-3.8-4.2l17.3-329.6c0.1-2.2,2-4,4.2-3.8
						c2.2,0.1,3.9,2,3.8,4.2l-17.3,329.6C2664,2892.5,2662.2,2894.2,2660.1,2894.2z"/>
				</g>
				<g>
					<path class="st53" d="M2145.5,2925c-1.5,0-2.9-0.8-3.6-2.3l-155.4-322.9c-1-2-0.1-4.4,1.9-5.4c2-1,4.4-0.1,5.4,1.9l155.4,322.9
						c1,2,0.1,4.4-1.9,5.4C2146.7,2924.9,2146.1,2925,2145.5,2925z"/>
				</g>
				<g>
					<path class="st53" d="M2059.2,2903.3c-1.5,0-2.9-0.8-3.6-2.2l-164.9-330.4c-1-2-0.2-4.4,1.8-5.4c2-1,4.4-0.2,5.4,1.8
						l164.9,330.4c1,2,0.2,4.4-1.8,5.4C2060.4,2903.2,2059.8,2903.3,2059.2,2903.3z"/>
				</g>
				<g>
					<path class="st53" d="M2245.8,3239.8c-0.5,0-1-0.1-1.5-0.3L1937,3117.5c-2.1-0.8-3.1-3.2-2.3-5.2c0.8-2.1,3.2-3.1,5.2-2.3
						l306.3,121.6l371.8-45.4c28.2-3.4,51.3-23.4,58.8-50.7l203.2-737.6c8.8-31.8,36.8-54.8,69.7-57.2l107.8-7.8
						c2.2-0.1,4.1,1.5,4.3,3.7c0.2,2.2-1.5,4.1-3.7,4.3l-107.8,7.8c-29.6,2.1-54.7,22.8-62.6,51.3l-203.2,737.6
						c-8.4,30.5-34.2,52.7-65.6,56.6l-372.8,45.5C2246.1,3239.7,2245.9,3239.8,2245.8,3239.8z"/>
				</g>
			</g>
			<linearGradient id="SVGID_45_" gradientUnits="userSpaceOnUse" x1="2856.9814" y1="2261.624" x2="2824.322" y2="2312.0977">
				<stop  offset="0" style="stop-color:#311944"/>
				<stop  offset="1" style="stop-color:#A03976"/>
			</linearGradient>
			<path class="st57" d="M2862.6,2310.4c0,0-28.5-25.1-56.5-15.9c-4,1.3-11,4.1-14.7,11.1c-4,7.6-2.6,17.6,2.5,23.8
				c7.2,8.9,21.1,9,34.6-3c-1.2-0.3-9.1,3.4-11-3.2c0,0-0.9-3.1,0.1-6.3C2821.2,2306,2860,2310.3,2862.6,2310.4z"/>
		</g>
		<g>
			<linearGradient id="SVGID_46_" gradientUnits="userSpaceOnUse" x1="601.0955" y1="2567.8735" x2="664.2986" y2="2591.3489">
				<stop  offset="0" style="stop-color:#97DBD9"/>
				<stop  offset="1" style="stop-color:#0F1838"/>
			</linearGradient>
			<path class="st58" d="M938.7,2743.8c-3.7,0-6.8-2.8-7.2-6.5c-6.3-66.4-28-129.4-60.9-177.6c-29.2-42.6-64-68.1-93-68.1
				c0,0-0.1,0-0.1,0c-105.8,0.2-127.9,243.1-128.1,245.6c-0.3,4-3.8,6.9-7.8,6.6c-4-0.3-6.9-3.8-6.6-7.8
				c0.9-10.6,23.6-258.5,142.5-258.8c0,0,0.1,0,0.1,0c34.3,0,72.6,27.1,104.9,74.4c34.3,50.1,56.8,115.6,63.4,184.3
				c0.4,4-2.5,7.5-6.5,7.9C939.2,2743.7,939,2743.8,938.7,2743.8z"/>
			<linearGradient id="SVGID_47_" gradientUnits="userSpaceOnUse" x1="424.0639" y1="2785.0886" x2="600.1208" y2="3080.3225">
				<stop  offset="0" style="stop-color:#BA97FF"/>
				<stop  offset="1" style="stop-color:#924ECE"/>
			</linearGradient>
			<path class="st59" d="M498,3243.7l139.3,70.5l84.4-259l-139-347.2l-39.4,9.7l-59.8,498.6C482,3227.6,487.8,3238.6,498,3243.7z"/>
			<linearGradient id="SVGID_48_" gradientUnits="userSpaceOnUse" x1="451.2846" y1="2768.8562" x2="627.3414" y2="3064.0898">
				<stop  offset="0" style="stop-color:#BA97FF"/>
				<stop  offset="1" style="stop-color:#924ECE"/>
			</linearGradient>
			<path class="st60" d="M721.6,3055.2l-139-347.2l-23.3,5.7c-3.2,46.4-1.8,84.5,0.4,112.3c9.3,118.2,40.3,151.1,25.3,233.6
				c-12.5,68.6-39.7,77.9-37.3,124c2.6,50.2,37.6,92.3,79.3,125.4l10.3,5.2L721.6,3055.2z"/>
			<linearGradient id="SVGID_49_" gradientUnits="userSpaceOnUse" x1="730.5476" y1="2904.022" x2="1226.2148" y2="3285.9302">
				<stop  offset="0" style="stop-color:#BA97FF"/>
				<stop  offset="1" style="stop-color:#924ECE"/>
			</linearGradient>
			<polygon class="st61" points="582.6,2708.1 1101.9,2708.1 1273.8,3262.9 637.2,3314.2 			"/>
			<linearGradient id="SVGID_50_" gradientUnits="userSpaceOnUse" x1="827.9453" y1="2458.9492" x2="878.5077" y2="2781.2849">
				<stop  offset="0" style="stop-color:#97DBD9"/>
				<stop  offset="1" style="stop-color:#0F1838"/>
			</linearGradient>
			<path class="st62" d="M743.5,2755.6c-3.3,0-6.2-2.2-7-5.6c-1.5-6.3-35.6-155,12.5-227.9c13.8-20.9,33.1-33.7,57.3-37.9
				c124.4-21.9,200.9,245.2,204.1,256.6c1.1,3.8-1.2,7.8-5,8.9c-3.8,1.1-7.8-1.2-8.9-5c-0.7-2.7-76.1-266-187.7-246.3
				c-20.4,3.6-36,14-47.7,31.7c-44.7,67.8-10.9,215.2-10.5,216.7c0.9,3.9-1.5,7.8-5.4,8.7C744.6,2755.6,744,2755.6,743.5,2755.6z"/>
			<g class="st63">
				<linearGradient id="SVGID_51_" gradientUnits="userSpaceOnUse" x1="736.9547" y1="2895.7053" x2="1232.6222" y2="3277.6135">
					<stop  offset="0" style="stop-color:#BA97FF"/>
					<stop  offset="1" style="stop-color:#924ECE"/>
				</linearGradient>
				<path class="st64" d="M1101.9,2708.1H844.3c-12.7,12.9-21.7,27.8-22.6,44.5c-4,78.5,176.4,104.3,193.8,211.9
					c12.6,77.6-64.7,167.2-133.6,207.1c-72.6,42-121.8,20.7-170.9,67.4c-21.6,20.5-34.7,46.1-42.5,72.7l605.4-48.8L1101.9,2708.1z"
					/>
			</g>
			<linearGradient id="SVGID_52_" gradientUnits="userSpaceOnUse" x1="716.2787" y1="2746.6057" x2="724.4163" y2="2749.6282">
				<stop  offset="0" style="stop-color:#97DBD9"/>
				<stop  offset="1" style="stop-color:#0F1838"/>
			</linearGradient>
			<circle class="st65" cx="743.5" cy="2756.7" r="20.2"/>
			<linearGradient id="SVGID_53_" gradientUnits="userSpaceOnUse" x1="979.5386" y1="2744.7332" x2="987.6761" y2="2747.7559">
				<stop  offset="0" style="stop-color:#97DBD9"/>
				<stop  offset="1" style="stop-color:#0F1838"/>
			</linearGradient>
			<circle class="st66" cx="1006.8" cy="2754.8" r="20.2"/>
		</g>
		<g>
			<g>
				<path class="st67" d="M1599.4,920.1l861,17.4l195.3,3.9c40.5,0.8,73.3-32,73.3-71.4V662.2c0-39.4-32.6-72.7-73-74.3
					l-1054.7-40.7c-13.6-0.5-28.1,2.1-39.4,7.1c-26.3,11.7-45.8,36.4-45.8,65.7V841C1516,882.9,1554.2,919.1,1599.4,920.1z"/>
				<g>
					<path class="st20" d="M2744.8,661.7v208c0,39.4-32.8,70.9-73.4,70l-1055.8-21.4c-45.3-0.9-82.2-35.8-82.2-77.7V619.5
						c0-29.3,18-54,44.3-65.7c11.4-5.1,24.3-7.7,37.9-7.1l1055.8,40.7C2711.9,588.9,2744.8,622.3,2744.8,661.7z"/>
					<path class="st2" d="M2736.2,659.5c0-34.4-30.8-63.3-66.1-64.6l-1057.6-40.3c-39.4-1.5-74.8,26.8-74.8,63.3v218.2
						c0,36.5,34.2,66.7,73.6,67.6l1057.7,22.2c35.3,0.7,67.1-26.5,67.1-60.9V659.5z"/>
					<g>
						<g>
							<linearGradient id="SVGID_54_" gradientUnits="userSpaceOnUse" x1="2160.6309" y1="577.551" x2="2189.4934" y2="723.0837">
								<stop  offset="0" style="stop-color:#FF9085"/>
								<stop  offset="1" style="stop-color:#FB6FBB"/>
							</linearGradient>
							<path class="st68" d="M2446.6,660.8c0,7.8-5.6,13.9-13.7,13.6l-512.6-17.2c-8.5-0.3-16.7-7-16.7-15v-2.6
								c0-8,8.7-14.3,17.2-14l511.3,18c8.1,0.3,14.6,6.8,14.6,14.6V660.8z"/>
							<g>
								<g>
									<path d="M1935.2,726.9l11.9,0.4l-2.6,85.2l-11.9-0.4L1935.2,726.9z M1938.9,800.9l48.7,1.5l-0.4,11.4l-48.7-1.5
										L1938.9,800.9z"/>
									<path d="M2013.9,811.6c-4.5-2.7-7.8-6.5-10.2-11.3c-2.3-4.8-3.4-10.4-3.2-16.6l0.7-24.1c0.2-6.2,1.6-11.7,4.2-16.4
										c2.6-4.7,6.2-8.2,10.9-10.7c4.6-2.5,9.9-3.6,15.8-3.4c5.9,0.2,11.1,1.6,15.6,4.4c4.4,2.7,7.8,6.5,10.2,11.3
										c2.3,4.8,3.4,10.4,3.2,16.6l-0.7,24.1c-0.2,6.2-1.6,11.7-4.2,16.4c-2.6,4.7-6.2,8.2-10.9,10.7c-4.6,2.5-9.9,3.6-15.8,3.4
										C2023.5,815.8,2018.3,814.3,2013.9,811.6z M2039.2,802.1c2.7-1.5,4.9-3.7,6.4-6.5c1.6-2.9,2.4-6.2,2.5-10l0.8-24.9
										c0.1-3.8-0.5-7.2-1.9-10.2c-1.4-3-3.4-5.3-6-6.9c-2.6-1.7-5.7-2.5-9.2-2.7c-3.5-0.1-6.6,0.6-9.4,2.1s-4.9,3.7-6.4,6.5
										c-1.6,2.9-2.4,6.2-2.5,10l-0.8,24.9c-0.1,3.8,0.5,7.2,1.9,10.2c1.4,3,3.4,5.3,6,6.9s5.7,2.6,9.2,2.7
										C2033.3,804.3,2036.5,803.6,2039.2,802.1z"/>
									<path d="M2138.4,772.5l-0.5,14.9c-0.2,6.3-1.6,11.9-4.2,16.6c-2.6,4.7-6.2,8.4-10.8,10.9c-4.6,2.5-9.9,3.7-15.8,3.5
										c-6-0.2-11.3-1.6-15.7-4.2c-4.5-2.6-7.9-6.2-10.2-10.8c-2.4-4.6-3.4-9.9-3.3-15.9l0.8-25.1c0.2-6.3,1.6-11.9,4.2-16.6
										c2.6-4.7,6.2-8.3,10.8-10.8c4.6-2.5,9.9-3.7,15.8-3.5c4.9,0.2,9.3,1.3,13.4,3.6c4.1,2.2,7.4,5.3,10.1,9.2
										c2.7,3.9,4.4,8.4,5.2,13.5l-12.9-0.4c-0.6-2.9-1.7-5.4-3.3-7.5c-1.6-2.1-3.5-3.7-5.8-4.9c-2.2-1.1-4.6-1.8-7-1.8
										c-3.5-0.1-6.6,0.6-9.3,2.2c-2.7,1.6-4.8,3.9-6.4,6.9c-1.5,3-2.4,6.5-2.5,10.5l-0.8,25.1c-0.1,3.7,0.5,6.9,1.9,9.7
										c1.4,2.8,3.4,5,6.1,6.6c2.7,1.6,5.8,2.5,9.3,2.6c3.5,0.1,6.6-0.6,9.3-2.1c2.7-1.5,4.8-3.7,6.4-6.7c1.5-3,2.4-6.5,2.5-10.6
										l0.1-3.7l-17.3-0.5l0.4-11.4L2138.4,772.5z"/>
									<path d="M2168.2,819.4l-11.9-0.4l2.6-85.2l11.9,0.4L2168.2,819.4z"/>
									<path d="M2192,734.9l10.8,0.3l39.6,67.1l-1.5,1.5l2.1-67.4l11.8,0.4l-2.6,85.1l-11-0.3l-39.5-66.1l1.5-1.5l-2.1,66.4
										l-11.8-0.4L2192,734.9z"/>
								</g>
							</g>
						</g>
						<g>
							<linearGradient id="SVGID_55_" gradientUnits="userSpaceOnUse" x1="1748.1221" y1="638.3224" x2="1554.8853" y2="1539.0012">
								<stop  offset="0" style="stop-color:#FF9085"/>
								<stop  offset="1" style="stop-color:#FB6FBB"/>
							</linearGradient>
							<path class="st69" d="M1728.3,856.6c-72.4-1.7-131.7-58-131.7-125.5s59.3-120.3,131.7-117.7c71.9,2.6,130,58.8,130,125.5
								S1800.1,858.3,1728.3,856.6z"/>
							<g>
								<defs>
									<path id="SVGID_56_" d="M1847.8,738.5c0,61.4-53.3,109.8-119.5,108.3c-66.6-1.6-121-53.2-121-115.3
										c0-62.1,54.3-110.5,121-108.2C1794.4,625.5,1847.8,677.1,1847.8,738.5z"/>
								</defs>
								<linearGradient id="SVGID_57_" gradientUnits="userSpaceOnUse" x1="1607.2991" y1="734.9111" x2="1847.7747" y2="734.9111">
									<stop  offset="0" style="stop-color:#FF9085"/>
									<stop  offset="1" style="stop-color:#FB6FBB"/>
								</linearGradient>
								<use xlink:href="#SVGID_56_"  style="overflow:visible;fill:url(#SVGID_57_);"/>
								<clipPath id="SVGID_58_">
									<use xlink:href="#SVGID_56_"  style="overflow:visible;"/>
								</clipPath>
								<g class="st70">
									<path class="st2" d="M1785.8,712.8c0,29.4-25.6,52.5-57.3,51.6c-31.8-0.9-57.6-25.6-57.6-55.1c0-29.6,25.8-52.7,57.6-51.6
										C1760.2,658.7,1785.8,683.4,1785.8,712.8z"/>
									<path class="st2" d="M1811.2,852.1c-3.8-39.8-39.4-71.4-82.9-72.6c-43.7-1.2-79.7,28.7-83.6,68.6L1811.2,852.1z"/>
								</g>
							</g>
						</g>
					</g>
					<g class="st63">
						<path class="st20" d="M2477.3,935.8l-861.8-17.5c-45.3-0.9-82.2-35.8-82.2-77.7V619.5c0-29.3,18-54,44.3-65.7
							c2.8,1.8,5.6,3.7,8.3,5.6c0.6,0.4,1.2,0.9,1.8,1.3c26.3,19,48.5,43.3,61.7,74.3c1.4,3.2,2.6,6.5,3.8,9.9c0,0.1,0,0.1,0.1,0.2
							c6.3,18.2,13.1,35.5,20.5,51.7c23.2,50.3,53.3,90.2,98,115c9.3,5.2,19.2,9.7,29.7,13.5c3.8,1.4,7.8,2.7,11.8,3.9
							c43.5,13.1,98,15.4,167.4,4.6c5.1-0.8,10.2-1.6,15.3-2.4c2.9-0.4,5.7-0.9,8.5-1.3c31.9-4.9,63.2-9.4,93.9-12.5
							c2.1-0.2,4.3-0.4,6.4-0.6c9.3-0.9,18.4-1.6,27.6-2.2c6.9-0.4,13.8-0.8,20.6-1.1c1.5,0,2.9-0.1,4.4-0.1
							c7.3-0.2,14.5-0.3,21.8-0.3c4.6,0,9.2,0.1,13.8,0.2c11.6,0.3,23.1,1,34.6,2.1c12.8,1.2,25.5,3,38.2,5.4
							c5.2,1,10.5,2.1,15.7,3.3c62.9,14.5,124.3,45.1,185.6,101.8c3.3,3,6.6,6.1,9.9,9.3C2477.1,935.5,2477.2,935.6,2477.3,935.8z"
							/>
					</g>
				</g>
			</g>
			<g>
				<path class="st67" d="M2735.7,1669.7l-1058.1,16.7c-13.7,0.2-26.4,3.5-37.8,9.2c-26.4,13.1-44.2,38.9-44.2,68.2v221.3
					c0,42,36.9,76.3,82.3,74.7l862.8-29.5l194.5-6.6c40.6-1.4,73.4-36,73.4-75.5v-208.1C2808.7,1700.6,2776.3,1669,2735.7,1669.7z"
					/>
				<g>
					<path class="st20" d="M2829,1740.4v208.3c0,39.5-32.9,72.8-73.6,74.2L1696,2059c-45.4,1.5-82.5-31.4-82.5-73.4v-221.4
						c0-29.3,18.1-55.1,44.5-68.3c11.4-5.7,24.4-9,38.1-9.2l1059.4-16.8C2796,1669.3,2829,1700.9,2829,1740.4z"/>
					<path class="st2" d="M2815.9,1738.8c0-34.4-28.6-61.8-64.1-61.3l-1058.4,17.2c-39.5,0.6-72.3,30.8-72.3,67.3v218.5
						c0,36.5,32.8,65.1,72.3,63.8l1058.2-35.3c35.4-1.2,64.4-30,64.4-64.5V1738.8z"/>
					<g>
						<g>
							<linearGradient id="SVGID_59_" gradientUnits="userSpaceOnUse" x1="2248.3469" y1="1700.5587" x2="2271.8018" y2="1818.823">
								<stop  offset="0" style="stop-color:#FF9085"/>
								<stop  offset="1" style="stop-color:#FB6FBB"/>
							</linearGradient>
							<path class="st71" d="M2529.9,1755.7c0,7.8-5.7,14.3-13.8,14.4l-511.6,10.6c-8.6,0.2-14.1-6.2-14.1-14.2v-2.6
								c0-8,6-14.7,14.5-14.8l511.7-9.8c8.1-0.2,13.3,6.1,13.3,13.9V1755.7z"/>
							<g>
								<g>
									<path d="M2061.1,1857.5l11.2-0.2l1.8,85.2l-11.7,0.2l-1.4-63.8l0.7,3.7l-20,48.7l-8.3,0.2l-22-46.6l0.5-4.9l1.4,63.8
										l-11.7,0.2l-1.8-85.2l11.2-0.2l26.2,55.7L2061.1,1857.5z"/>
									<path d="M2116.6,1856.3l10.2-0.2l33.2,84.5l-12.9,0.3l-25.1-68.2l-22.2,69.2l-12.9,0.3L2116.6,1856.3z M2100.8,1911.8
										l44.8-0.9l0.2,11.4l-44.8,0.9L2100.8,1911.8z"/>
									<path d="M2171.1,1855.1l12-0.3l1.8,85.2l-12,0.3L2171.1,1855.1z M2177.1,1892.9l29.1-0.6c2.3,0,4.3-0.6,6-1.8
										c1.7-1.1,3.1-2.7,4-4.7c0.9-2,1.3-4.4,1.3-7c-0.1-2.6-0.6-4.9-1.6-6.9c-1-2-2.4-3.5-4.1-4.6c-1.8-1.1-3.8-1.6-6.1-1.5
										l-29.1,0.6l-0.2-11.4l28.6-0.6c4.9-0.1,9.3,0.8,13,2.8c3.8,2,6.7,4.8,8.9,8.5c2.1,3.7,3.2,8,3.3,12.9
										c0.1,4.9-0.8,9.2-2.8,13c-2,3.8-4.8,6.7-8.5,8.8c-3.7,2.1-8,3.2-12.9,3.3l-28.6,0.6L2177.1,1892.9z M2200.5,1901.1
										l11.8-2.9l22.7,40.9l-14.2,0.3L2200.5,1901.1z"/>
									<path d="M2249.3,1853.5l12-0.3l1.8,85.2l-12,0.3L2249.3,1853.5z M2257.5,1890.9l47.3-1l0.2,11.4l-47.3,1L2257.5,1890.9z
										 M2297.7,1852.5l12-0.3l1.8,85.2l-12,0.3L2297.7,1852.5z"/>
									<path d="M2353.9,1851.3l10.2-0.2l33.2,84.5l-12.9,0.3l-25.1-68.2l-22.2,69.2l-12.9,0.3L2353.9,1851.3z M2338.2,1906.8
										l44.8-0.9l0.2,11.4l-44.8,0.9L2338.2,1906.8z"/>
									<path d="M2408.4,1850.2l11.9-0.3l1.8,85.2l-11.9,0.3L2408.4,1850.2z M2417,1924.1l23.1-0.5c6.1-0.1,10.4-1.4,13.2-3.7
										c2.7-2.4,4-5.6,4-9.8l0-0.2c-0.1-2.9-0.6-5.4-1.7-7.4c-1-2-2.6-3.6-4.8-4.7c-2.2-1.1-4.9-1.6-8.3-1.5l-26,0.6l-0.2-10.8
										l26-0.6c4.4-0.1,7.7-1.2,9.9-3.3c2.2-2.1,3.3-5.2,3.2-9.3c-0.1-4.3-1.4-7.4-4-9.5c-2.5-2.1-6.3-3-11.3-2.9l-24.4,0.5
										l-0.2-11.1l26.5-0.6c5.5-0.1,10.1,0.7,13.9,2.5c3.8,1.8,6.6,4.4,8.5,7.8c1.9,3.4,2.9,7.5,3,12.2c0.1,2.9-0.4,5.7-1.5,8.3
										c-1.1,2.6-2.8,4.8-5,6.7c-2.3,1.9-5.1,3.1-8.6,3.8c3.4,0.4,6.4,1.6,9,3.5c2.5,1.9,4.5,4.3,5.9,7.1c1.4,2.9,2.1,6,2.2,9.3
										l0,0.2c0.1,4.6-0.8,8.7-2.8,12.3c-2,3.6-4.8,6.3-8.6,8.3s-8.1,3-13.2,3.2l-27.5,0.6L2417,1924.1z"/>
									<path d="M2509,1848l10.2-0.2l33.2,84.5l-12.9,0.3l-25.1-68.2l-22.2,69.2l-12.9,0.3L2509,1848z M2493.3,1903.5l44.8-1
										l0.2,11.4l-44.8,1L2493.3,1903.5z"/>
								</g>
							</g>
						</g>
						<g>
							
								<linearGradient id="SVGID_60_" gradientUnits="userSpaceOnUse" x1="1829.2784" y1="1771.2003" x2="1633.2202" y2="2685.0293">
								<stop  offset="0" style="stop-color:#FF9085"/>
								<stop  offset="1" style="stop-color:#FB6FBB"/>
							</linearGradient>
							<path class="st72" d="M1809.1,1991c-72.6,2.2-132.1-50.9-132.1-118.5c0-67.6,59.5-123.8,132.1-125.1
								c72.1-1.4,130.4,51.8,130.4,118.6C1939.5,1932.7,1881.2,1988.8,1809.1,1991z"/>
							<g>
								<defs>
									<path id="SVGID_61_" d="M1929,1866.2c0,61.5-53.5,112.9-119.9,115c-66.8,2-121.4-46.7-121.4-108.9
										c0-62.2,54.5-113.7,121.4-115C1875.5,1755.9,1929,1804.7,1929,1866.2z"/>
								</defs>
								
									<linearGradient id="SVGID_62_" gradientUnits="userSpaceOnUse" x1="1687.7449" y1="1869.1923" x2="1929.0382" y2="1869.1923">
									<stop  offset="0" style="stop-color:#FF9085"/>
									<stop  offset="1" style="stop-color:#FB6FBB"/>
								</linearGradient>
								<use xlink:href="#SVGID_61_"  style="overflow:visible;fill:url(#SVGID_62_);"/>
								<clipPath id="SVGID_63_">
									<use xlink:href="#SVGID_61_"  style="overflow:visible;"/>
								</clipPath>
								<g class="st73">
									<path class="st2" d="M1866.9,1843.9c0,29.4-25.7,54-57.5,54.8c-31.9,0.8-57.8-22.5-57.8-52.1s25.9-54.2,57.8-54.8
										C1841.2,1791.1,1866.9,1814.4,1866.9,1843.9z"/>
									<path class="st2" d="M1892.3,1982.1c-3.9-39.7-39.5-69.4-83.2-68.2c-43.8,1.2-80,33.1-83.9,73.3L1892.3,1982.1z"/>
								</g>
							</g>
						</g>
					</g>
					<g class="st63">
						<path class="st20" d="M2560.7,2029.5L1696,2059c-45.4,1.5-82.5-31.4-82.5-73.4v-221.4c0-29.3,18.1-55.1,44.5-68.3
							c2.8,1.7,5.6,3.4,8.3,5.2c0.6,0.4,1.2,0.8,1.8,1.2c26.4,17.6,48.7,40.7,61.9,71.1c1.4,3.1,2.6,6.4,3.8,9.7c0,0,0,0.1,0.1,0.1
							c6.3,17.9,13.1,34.8,20.6,50.6c23.3,49.2,53.5,87.4,98.4,109.9c9.3,4.7,19.2,8.7,29.8,11.9c3.9,1.2,7.8,2.3,11.9,3.3
							c43.7,10.7,98.3,10,168-4.5c5.1-1.1,10.2-2.2,15.3-3.2c2.9-0.6,5.7-1.2,8.6-1.8c32-6.6,63.4-12.8,94.2-17.6
							c2.1-0.3,4.3-0.7,6.4-1c9.3-1.4,18.5-2.6,27.7-3.7c6.9-0.8,13.8-1.6,20.7-2.2c1.5-0.1,2.9-0.3,4.4-0.4
							c7.3-0.6,14.6-1.1,21.8-1.5c4.6-0.2,9.2-0.4,13.8-0.5c11.6-0.3,23.2-0.2,34.7,0.3c12.9,0.6,25.6,1.6,38.3,3.4
							c5.3,0.7,10.5,1.5,15.7,2.4c63.1,11.1,124.7,38.4,186.2,91.9c3.3,2.9,6.6,5.8,9.9,8.8
							C2560.4,2029.3,2560.6,2029.4,2560.7,2029.5z"/>
					</g>
				</g>
			</g>
			<g>
				<path class="st67" d="M3097,1139.3L2086.4,1129c-13.1-0.1-26.9,2.8-37.7,8c-25.1,12.2-43.8,36.9-43.8,65.5v216.1
					c0,41,36.5,75.5,79.7,75.1l824.8-6.7l187.4-1.5c38.8-0.3,70.4-33.3,70.4-71.9V1210C3167.1,1171.4,3135.8,1139.7,3097,1139.3z"/>
				<g>
					<path class="st20" d="M3183.5,1209.9v203.7c0,38.6-31.5,70.3-70.4,70.6l-1011.7,8.2c-43.3,0.3-78.7-32.7-78.7-73.7v-216.3
						c0-28.6,17.2-53.4,42.4-65.5c10.9-5.3,23.2-8.2,36.3-8l1011.7,10.3C3152,1139.5,3183.5,1171.3,3183.5,1209.9z"/>
					<path class="st2" d="M3170.7,1208.1c0-33.7-27.3-61.2-61.1-61.5l-1008.8-9.9c-37.7-0.4-67,28.3-67,63.9V1414
						c0,35.7,29.3,64.4,67,64.1l1009.4-7.4c33.9-0.2,60.5-27.7,60.5-61.4V1208.1z"/>
					<g>
						<g>
							
								<linearGradient id="SVGID_64_" gradientUnits="userSpaceOnUse" x1="2625.9307" y1="1151.1935" x2="2651.0337" y2="1277.7683">
								<stop  offset="0" style="stop-color:#FF9085"/>
								<stop  offset="1" style="stop-color:#FB6FBB"/>
							</linearGradient>
							<path class="st74" d="M2899.2,1217.3c0,7.6-6.2,13.8-14,13.8l-491.3-2.6c-8.2,0-16.1-6.4-16.1-14.3v-2.5
								c0-7.8,7.9-14.2,16.1-14.1l490.6,3.3c7.8,0.1,14.6,6.3,14.6,13.9V1217.3z"/>
							<g>
								<g>
									<path d="M2441.1,1297.7h12v85.3h-12V1297.7z M2446.3,1335.6h29.1c2.3,0,4.3-0.5,6-1.6c1.8-1.1,3.1-2.6,4.1-4.7
										c1-2,1.4-4.3,1.4-6.9c0-2.6-0.5-4.9-1.4-6.9c-1-2-2.3-3.6-4-4.7c-1.7-1.1-3.8-1.6-6.1-1.6h-29.1v-11.4h28.6
										c4.9,0,9.2,1,13,3c3.7,2,6.6,4.9,8.7,8.6c2.1,3.7,3.1,8,3.1,12.9c0,4.9-1,9.2-3.1,12.9c-2.1,3.7-5,6.6-8.7,8.6
										c-3.7,2-8,3-12.9,3h-28.6V1335.6z M2469.5,1344.3l11.9-2.7l21.8,41.4H2489L2469.5,1344.3z"/>
									<path d="M2519.3,1297.8h12v85.2h-12V1297.8z M2525.1,1297.8h48.9v11.4h-48.9V1297.8z M2525.1,1335h42.5v11.4h-42.5V1335z
										 M2525.1,1371.6h48.9v11.4h-48.9V1371.6z"/>
									<path d="M2649.3,1337.1v14.9c0,6.3-1.2,11.9-3.7,16.7c-2.5,4.8-5.9,8.6-10.5,11.2s-9.7,4-15.7,4c-6,0-11.3-1.2-15.8-3.7
										c-4.6-2.5-8.1-6-10.6-10.5c-2.5-4.5-3.8-9.8-3.8-15.8v-25.1c0-6.3,1.2-11.9,3.7-16.7s5.9-8.5,10.5-11.2s9.7-4,15.7-4
										c4.9,0,9.4,1,13.5,3.1c4.1,2.1,7.6,5,10.3,8.9c2.8,3.8,4.6,8.3,5.6,13.3h-12.9c-0.7-2.9-1.9-5.3-3.6-7.4
										c-1.7-2.1-3.7-3.6-5.9-4.7c-2.3-1.1-4.6-1.6-7-1.6c-3.5,0-6.6,0.8-9.3,2.5c-2.7,1.7-4.7,4-6.2,7.1c-1.4,3-2.2,6.6-2.2,10.6
										v25.1c0,3.7,0.7,6.9,2.2,9.6c1.5,2.8,3.6,4.9,6.3,6.4c2.7,1.5,5.8,2.3,9.4,2.3c3.5,0,6.6-0.8,9.3-2.4
										c2.7-1.6,4.7-3.9,6.2-6.9c1.4-3,2.2-6.6,2.2-10.7v-3.7h-17.3v-11.4H2649.3z"/>
									<path d="M2680.6,1383h-12v-85.2h12V1383z"/>
									<path d="M2721.1,1383.8c0,0-1.8-0.4-5.5-1.2c-3.7-0.8-7.1-2-10.3-3.5c-3.2-1.6-6.2-3.5-8.9-5.9l7.4-9.1
										c3.2,2.8,6.8,4.9,10.7,6.3c3.9,1.4,8.1,2.1,12.7,2.1c6.2,0,11-1.1,14.4-3.4s5.1-5.5,5.1-9.7v-0.1c0-3-0.8-5.3-2.3-7.1
										c-1.5-1.7-3.5-3-6-3.9c-2.4-0.8-5.6-1.6-9.5-2.3c-0.1,0-0.2-0.1-0.4-0.1c-0.1,0-0.3,0-0.4-0.1l-0.9-0.2
										c-5.7-1-10.3-2.1-13.9-3.3s-6.6-3.5-9.2-6.7c-2.5-3.3-3.8-7.9-3.8-13.9v-0.1c0-5.3,1.2-9.8,3.5-13.5
										c2.4-3.7,5.8-6.6,10.3-8.5c4.5-2,10-2.9,16.3-2.9c3,0,6,0.3,9,1c2.9,0.7,5.9,1.7,8.7,3c2.9,1.3,5.7,3,8.5,5l-6.8,9.5
										c-3.2-2.4-6.5-4.2-9.7-5.4c-3.2-1.2-6.5-1.8-9.7-1.8c-5.8,0-10.3,1.2-13.6,3.5c-3.2,2.3-4.8,5.6-4.8,9.9v0.1
										c0,2.9,0.8,5.2,2.5,6.9c1.7,1.7,3.7,2.9,6.2,3.7c2.5,0.8,5.9,1.6,10.3,2.5c0.2,0,0.3,0.1,0.4,0.1c0.1,0,0.3,0,0.4,0.1
										c0.2,0,0.4,0.1,0.6,0.1c0.2,0,0.4,0.1,0.6,0.1c5.2,1.1,9.5,2.3,12.9,3.8c3.5,1.4,6.3,3.8,8.7,7c2.3,3.2,3.5,7.6,3.5,13.2
										v0.1c0,5.2-1.2,9.6-3.7,13.3s-6,6.5-10.7,8.4c-4.7,1.9-10.3,2.9-16.9,2.9C2723.2,1383.8,2721.1,1383.8,2721.1,1383.8z"/>
									<path d="M2763.8,1297.8h60.1v11.4h-60.1V1297.8z M2787.9,1304.7h12v78.2h-12V1304.7z"/>
									<path d="M2833.3,1297.8h12v85.2h-12V1297.8z M2839.1,1297.8h48.9v11.4h-48.9V1297.8z M2839.1,1335h42.5v11.4h-42.5V1335z
										 M2839.1,1371.6h48.9v11.4h-48.9V1371.6z"/>
									<path d="M2905,1297.7h12v85.3h-12V1297.7z M2910.2,1335.6h29.1c2.3,0,4.3-0.5,6-1.6c1.8-1.1,3.1-2.6,4.1-4.7
										c1-2,1.4-4.3,1.4-6.9c0-2.6-0.5-4.9-1.4-6.9c-1-2-2.3-3.6-4-4.7c-1.7-1.1-3.8-1.6-6.1-1.6h-29.1v-11.4h28.6
										c4.9,0,9.2,1,13,3c3.7,2,6.6,4.9,8.7,8.6c2.1,3.7,3.1,8,3.1,12.9c0,4.9-1,9.2-3.1,12.9c-2.1,3.7-5,6.6-8.7,8.6
										c-3.7,2-8,3-12.9,3h-28.6V1335.6z M2933.4,1344.3l11.9-2.7l21.8,41.4H2953L2933.4,1344.3z"/>
								</g>
							</g>
						</g>
						<g>
							
								<linearGradient id="SVGID_65_" gradientUnits="userSpaceOnUse" x1="2228.8972" y1="1214.9098" x2="2038.8445" y2="2100.7473">
								<stop  offset="0" style="stop-color:#FF9085"/>
								<stop  offset="1" style="stop-color:#FB6FBB"/>
							</linearGradient>
							<path class="st75" d="M2209.3,1428.9c-69.3,0.3-126-53.1-126-119.1s56.7-119.4,126-118.9c68.8,0.5,124.5,53.9,124.5,119.1
								C2333.8,1375.3,2278.1,1428.6,2209.3,1428.9z"/>
							<g>
								<defs>
									<path id="SVGID_66_" d="M2323.8,1310c0,60.1-51.1,109-114.4,109.2c-63.8,0.3-115.8-48.7-115.8-109.5s52-109.7,115.8-109.2
										C2272.7,1201,2323.8,1250,2323.8,1310z"/>
								</defs>
								
									<linearGradient id="SVGID_67_" gradientUnits="userSpaceOnUse" x1="2093.5381" y1="1309.9034" x2="2323.752" y2="1309.9034">
									<stop  offset="0" style="stop-color:#FF9085"/>
									<stop  offset="1" style="stop-color:#FB6FBB"/>
								</linearGradient>
								<use xlink:href="#SVGID_66_"  style="overflow:visible;fill:url(#SVGID_67_);"/>
								<clipPath id="SVGID_68_">
									<use xlink:href="#SVGID_66_"  style="overflow:visible;"/>
								</clipPath>
								<g class="st76">
									<path class="st2" d="M2264.4,1286.6c0,28.8-24.5,52.1-54.8,52.1c-30.4,0-55.1-23.4-55.1-52.4c0-28.9,24.7-52.3,55.1-52.1
										C2239.9,1234.4,2264.4,1257.9,2264.4,1286.6z"/>
									<path class="st2" d="M2288.7,1422.3c-3.7-38.9-37.7-68.8-79.4-68.7c-41.8,0-76.3,30.3-80,69.5L2288.7,1422.3z"/>
								</g>
							</g>
						</g>
					</g>
					<g class="st63">
						<path class="st20" d="M2927,1485.7l-825.6,6.7c-43.3,0.3-78.7-32.7-78.7-73.7v-216.3c0-28.6,17.2-53.4,42.4-65.5
							c2.7,1.7,5.3,3.5,7.9,5.3c0.6,0.4,1.1,0.8,1.7,1.2c25.1,17.9,46.5,41,59.1,71c1.3,3.1,2.5,6.3,3.6,9.5c0,0,0,0.1,0.1,0.1
							c6,17.6,12.5,34.3,19.6,50c22.3,48.6,51.1,86.7,93.8,109.8c8.9,4.8,18.3,8.9,28.5,12.4c3.7,1.3,7.5,2.4,11.3,3.5
							c41.7,11.6,93.9,12.3,160.4-0.2c4.9-0.9,9.8-1.8,14.6-2.7c2.7-0.5,5.5-1,8.2-1.5c30.6-5.7,60.5-10.9,89.9-14.8
							c2-0.3,4.1-0.5,6.1-0.8c8.9-1.1,17.7-2.1,26.4-2.9c6.6-0.6,13.2-1.2,19.8-1.6c1.4-0.1,2.8-0.2,4.2-0.2
							c7-0.4,13.9-0.7,20.9-0.9c4.4-0.1,8.8-0.2,13.2-0.2c11.1,0,22.2,0.4,33.2,1.1c12.3,0.9,24.5,2.2,36.6,4.3c5,0.8,10,1.7,15,2.8
							c60.3,12.5,119.2,40.7,177.9,94.6c3.1,2.9,6.3,5.8,9.4,8.9C2926.8,1485.5,2926.9,1485.6,2927,1485.7z"/>
					</g>
				</g>
			</g>
		</g>
	</g>
	<linearGradient id="SVGID_69_" gradientUnits="userSpaceOnUse" x1="848.7795" y1="3083.7468" x2="848.5647" y2="3084.0581">
		<stop  offset="5.586592e-03" style="stop-color:#0A0068"/>
		<stop  offset="1" style="stop-color:#8F21E2"/>
	</linearGradient>
	<path class="st77" d="M848.7,3084.2C848.7,3084.2,848.7,3084.2,848.7,3084.2c-0.1-0.1-0.1-0.3-0.1-0.5l0,0v-0.1
		C848.6,3083.6,848.7,3083.8,848.7,3084.2z"/>
	<g>
		
			<image style="overflow:visible;opacity:0.2;" width="228" height="265" xlink:href="8896BEB8.png"  transform="matrix(1 0 0 1 824 2872)">
		</image>
		<g>
			<g>
				<linearGradient id="SVGID_70_" gradientUnits="userSpaceOnUse" x1="938.7298" y1="2976.7473" x2="869.6357" y2="3076.8948">
					<stop  offset="5.586592e-03" style="stop-color:#0A0068"/>
					<stop  offset="1" style="stop-color:#8F21E2"/>
				</linearGradient>
				<path class="st78" d="M933.9,3003.9C933.9,3003.9,933.9,3003.9,933.9,3003.9c-1.8,1.5-3.6,3-5.2,4.7h0
					c-22.7,1.5-23.4,10.5-24.5,21.5c-1.1,11-6.6,43.9-6.6,43.9s-2.1,9.9-6.6,20.2c-2,5.9-4.7,11.4-8.2,15.5
					c-0.1-15.3-7.5-28-17-30.1c0-0.4,0.1-0.9,0.1-1.3c0-0.1,0-0.2,0-0.3v0c0-0.6,0.1-1.3,0.1-1.9v-0.1c0.1-4.6-0.2-9.8-0.4-15
					c0.4-5.9,0.9-12.2,2.2-18.9c0.8-4.6,2-9.3,3.6-14c0,0,0,0,0,0c1.9-5.6,4.3-11.2,7.6-16.7c7.3-12.4,17.7-21.7,28-28.7
					c0,0,0,0,0.1-0.1c0,0,0.1,0,0.1-0.1c1.4-0.9,10.6-6.4,24.8-11c7.5-2.4,16.3-4.6,26.1-5.8c3.5,0.5,6.3,1.4,8.2,3.3
					C978.6,2981.5,952,2989.3,933.9,3003.9z"/>
				<linearGradient id="SVGID_71_" gradientUnits="userSpaceOnUse" x1="855.6353" y1="3109.1108" x2="857.9012" y2="2948.7976">
					<stop  offset="5.586592e-03" style="stop-color:#0A0068"/>
					<stop  offset="1" style="stop-color:#8F21E2"/>
				</linearGradient>
				<path class="st79" d="M873.7,2995c-22.6,41.4-27.2,69.8-25.1,88.7l0,0c0,0.2,0,0.4,0.1,0.5c0.4,3,0.9,5.7,1.6,8.2
					c0.3,1,0.5,2,0.9,2.9c0.1,0.5,0.3,0.9,0.5,1.4c0.3,0.8,0.5,1.5,0.8,2.2c0.1,0.4,0.3,0.7,0.4,1c0.1,0.3,0.3,0.7,0.4,1
					c0.3,0.7,0.6,1.3,0.9,1.9c0.1,0.2,0.2,0.4,0.3,0.6c0.2,0.4,0.5,0.9,0.7,1.3c0.1,0.2,0.3,0.4,0.4,0.7c0.7,1.1,1.3,2.1,2,3
					c0.2,0.2,0.3,0.4,0.5,0.7c0.3,0.4,0.5,0.7,0.8,1c0.2,0.3,0.4,0.5,0.6,0.7c0.2,0.2,0.4,0.4,0.6,0.7c0,0,0.1,0.1,0.1,0.1l0.1,0.1
					c0.4,0.4,0.8,0.8,1.1,1.2l0.4,0.4c1.7,1.7,3.2,2.8,4.2,3.5c0,0,0,0,0,0c0.2,0.1,0.3,0.2,0.5,0.3c0.2,0.1,0.4,0.2,0.5,0.3h-0.7
					c-29-0.2-38.6-35-39.2-37.2c0-0.1,0-0.1,0-0.1c-1.5-5.1-2.5-10.5-3.1-16c-3-29.3,5.8-63.7,21.2-84.8c0.4-0.5,0.7-1,1.1-1.5
					c26.5-37.5,7.9-61.6,5.7-64.2h0.3C875.7,2913.8,912.7,2923.5,873.7,2995z"/>
				<g>
					<linearGradient id="SVGID_72_" gradientUnits="userSpaceOnUse" x1="920.1558" y1="3057.7854" x2="992.0077" y2="3003.2551">
						<stop  offset="5.586592e-03" style="stop-color:#0A0068"/>
						<stop  offset="1" style="stop-color:#8F21E2"/>
					</linearGradient>
					<path class="st80" d="M957.3,3028.1c-7.6,4.4-14.4,10-19.8,16.8c-1.5,1.9-3,3.9-4.3,6c-0.6,0.9-1.1,1.9-1.7,2.9
						c-0.9,1.6-1.7,3.4-2.3,5.1c-1.8,4.7-2.7,9.7-2.1,15c2.4,20.6,20.7,32.9,25.3,35.6c0,0,0,0,0,0c0.1,0.1,0.2,0.1,0.3,0.2
						c0.2,0.1,0.4,0.2,0.5,0.3c-0.1,0-0.2-0.1-0.4-0.2c-4.2-1.8-28.7-12.9-42.2-29.9c-0.2-0.2-0.3-0.4-0.5-0.6
						c-5.7-7.4-9.2-15.9-8-25.2c1-7.9,4.3-15.6,8.6-22.8v0c6.5-10.7,15.4-20.2,23.1-27.4c0,0,0,0,0,0c1.3-1.2,2.6-2.3,3.8-3.4
						c4.3-3.8,8-6.7,10.2-8.4c2.6-1.9,4.7-4.4,6.2-7.2c2.8-5.5,3.6-13.3-14.3-13.5h0c-0.8,0-1.6,0-2.5,0c-0.9,0-1.9,0-2.8,0.1h0
						c-0.7,0-1.3,0.1-2,0.1c-0.2,0-0.5,0-0.7,0c0.5-0.2,0.9-0.3,1.4-0.5c0,0,0.1,0,0.1,0l0,0c1.2-0.4,2.5-0.8,3.8-1.1
						c0.2-0.1,0.3-0.1,0.5-0.1c0.2-0.1,0.4-0.1,0.5-0.2c0.2-0.1,0.5-0.1,0.7-0.2c0.1,0,0.2,0,0.3-0.1c0.4-0.1,0.8-0.2,1.2-0.3
						c0.1,0,0.3-0.1,0.4-0.1c0.5-0.1,1.1-0.3,1.6-0.4c0.5-0.1,0.9-0.2,1.4-0.3c0.3-0.1,0.5-0.1,0.7-0.2c0.4-0.1,0.7-0.2,1.1-0.3
						c0.3-0.1,0.5-0.1,0.8-0.2c0.4-0.1,0.7-0.2,1.1-0.2c0.3-0.1,0.5-0.1,0.7-0.1c0.5-0.1,1-0.2,1.6-0.3c0.5-0.1,0.9-0.2,1.4-0.2
						c0.4-0.1,0.8-0.1,1.3-0.2c0.5-0.1,1-0.2,1.5-0.2c0.2,0,0.4-0.1,0.6-0.1c0.3,0,0.6-0.1,0.9-0.1c0.2,0,0.4-0.1,0.6-0.1
						c0.6-0.1,1.2-0.2,1.8-0.2c-0.2,0-0.4-0.1-0.5-0.1c15.1-1.5,30.2-1.5,39.9,2.2h0c3.6,1.4,6.5,3.3,8.3,5.8
						C1017.8,2991.1,973.2,3018.9,957.3,3028.1z"/>
				</g>
				<g>
					
						<linearGradient id="SVGID_73_" gradientUnits="userSpaceOnUse" x1="1023.1315" y1="2922.0493" x2="1113.0967" y2="2904.9758" gradientTransform="matrix(0.9882 0.1534 -0.1534 0.9882 274.9004 -146.7266)">
						<stop  offset="5.586592e-03" style="stop-color:#0A0068"/>
						<stop  offset="1" style="stop-color:#8F21E2"/>
					</linearGradient>
					<path class="st81" d="M914.6,2901.6c0,0.1,0,0.2-0.1,0.3c0,0.1,0,0.2,0,0.2c-0.1-0.2-0.3-0.4-0.4-0.6
						c-3.7-5.6-8.3-10-13.6-13.5c-2.2-1.5-5.7-2.6-8-2c-0.2,0-0.4,0.1-0.6,0.2c-0.8,0.3-1.4,0.9-1.8,1.9c-0.1,0.3-0.2,1-0.2,1.9
						c-0.1,1.8-0.1,4.4,0.2,5c0.1,0.2,0.2,0.4,0.5,0.7c1.3,1.4,4.3,3.6,5.2,4.3c1.8,1.3,3.4,2.8,5.2,4.1c0.7,0.6,1.3,1.2,1.6,2
						c0,0.1,0.1,0.1,0.1,0.2c0.4,0.9,0.6,1.9,0.5,3c-0.1,3.4-1.1,6.5-3,9.4c-0.1,0.2-0.3,0.4-0.4,0.6c-1.3,1.5-2.3,1.5-3.8,0.2
						c-2.4-2-4.8-4.1-7.3-5.9c-8.9-6.3-18.7-10.3-29.6-11.4c-4-0.4-8.1-0.4-12,0.8c-0.7,0.2-1.4,0.5-2.1,0.8
						c-0.2,0.1-0.3,0.1-0.5,0.2c0.3-2.2,1.1-3.9,2.3-5.5c3.2-4.5,7.8-6.8,13.1-8c3.9-0.8,7.7-0.7,11.6-0.2c0.6,0.1,1.1,0.2,1.7,0.2
						c0.4,0.1,0.7,0.1,1.1,0.2c0.5,0.1,0.9,0.2,1.4,0.2c0.2,0,0.3,0,0.7-0.1c-0.1-0.6-0.2-1.3-0.3-1.9c0-0.1,0-0.2-0.1-0.3
						c-0.2-0.9-0.3-1.8-0.3-2.7l0-0.1c-0.2-5.6,3.1-10.8,8.3-12.9c1.3-0.5,2.6-0.9,4.2-1.2c0.7-0.1,1.4-0.2,2.1-0.3
						c0.1,0,0.1,0,0.2,0c1.1-0.1,6.1-0.2,11.7,2.3c0.4,0.2,0.9,0.4,1.4,0.7c4,2.4,7.2,5.8,9.2,10
						C915.7,2891.9,915.2,2898.5,914.6,2901.6z"/>
					
						<linearGradient id="SVGID_74_" gradientUnits="userSpaceOnUse" x1="1041.0223" y1="2930.5725" x2="1081.8302" y2="2923.6475" gradientTransform="matrix(0.9882 0.1534 -0.1534 0.9882 274.9004 -146.7266)">
						<stop  offset="0" style="stop-color:#000000"/>
						<stop  offset="0.5223" style="stop-color:#858585;stop-opacity:0"/>
						<stop  offset="1" style="stop-color:#FFFFFF;stop-opacity:0"/>
					</linearGradient>
					<path class="st82" d="M900,2918.6c-0.1,0.2-0.3,0.4-0.4,0.6c-1.3,1.5-2.3,1.5-3.8,0.2c-2.4-2-4.8-4.1-7.3-5.9
						c-8.9-6.3-18.7-10.3-29.6-11.4c-4-0.4-8.1-0.4-12,0.8c-0.7,0.2-1.4,0.5-2.1,0.8c0,0-0.1,0-0.1,0s17.8-13.9,36.6-2.2
						c18.6,11.6,21.9,8.9,21.3,4.7c0,0,0-0.1,0-0.1c0,0,0,0,0,0c0,0.1,0.1,0.1,0.1,0.2c0.4,0.9,0.6,1.9,0.5,3
						C902.9,2912.6,901.9,2915.7,900,2918.6z"/>
					
						<linearGradient id="SVGID_75_" gradientUnits="userSpaceOnUse" x1="1090.6865" y1="2905.9954" x2="1069.9116" y2="2901.3787" gradientTransform="matrix(0.9882 0.1534 -0.1534 0.9882 274.9004 -146.7266)">
						<stop  offset="0" style="stop-color:#FFFFFF;stop-opacity:0.7"/>
						<stop  offset="0.1596" style="stop-color:#DADADA;stop-opacity:0.5883"/>
						<stop  offset="0.5223" style="stop-color:#858585;stop-opacity:0"/>
						<stop  offset="1" style="stop-color:#000000;stop-opacity:0"/>
					</linearGradient>
					<path class="st83" d="M914.5,2901.9c0,0.1,0,0.2,0,0.2c-0.1-0.2-0.3-0.4-0.4-0.6c-3.7-5.6-8.3-10-13.6-13.5
						c-2.2-1.5-5.7-2.6-8-2c-0.2,0-0.4,0.2-0.6,0.2c-3.5,0.6-1.5,7.8-1.8,8.7c-0.1,0.3-6.6-1.9-6.7-1c-1.3-2.1-0.9-6.8-1.5-9.1
						c-1.1-4,5-9,13-7.8C909.1,2879.3,913.4,2895.3,914.5,2901.9z"/>
				</g>
				<linearGradient id="SVGID_76_" gradientUnits="userSpaceOnUse" x1="1031.1151" y1="3084.6516" x2="938.1376" y2="3086.8994">
					<stop  offset="5.586592e-03" style="stop-color:#0A0068"/>
					<stop  offset="1" style="stop-color:#8F21E2"/>
				</linearGradient>
				<path class="st84" d="M1032.6,3058c-0.1,0.1-0.2,0.2-0.3,0.3c-0.7,0.5-1.3,1-2,1.5l0,0c-0.6,0.6-1.3,1.2-2,1.8
					c-2.4,2-5.1,4-8.2,5.7c-5.5,3.2-12,5.8-20,7.7c-28.7,6.7-48.6-0.6-60.2-7.8v0c-5.3-3.3-8.9-6.6-10.7-8.4l0,0
					c-1.8,4.7-2.7,9.7-2.1,15c2.4,20.6,20.7,32.9,25.3,35.6c0,0,0,0,0,0c0.1,0,0.1,0.1,0.2,0.1c17,7.8,41.9,6.7,61.2-10
					c0.9-0.8,1.8-1.6,2.6-2.4c0.6-0.6,1.1-1.1,1.7-1.7c1.2-1.5,2.5-3.2,3.7-5c0,0,0,0,0,0c0.7-1.1,1.5-2.1,2.2-3.1
					c1.2-1.7,2.2-3.3,3.1-4.6C1032.3,3073.3,1033,3064.3,1032.6,3058z"/>
				<linearGradient id="SVGID_77_" gradientUnits="userSpaceOnUse" x1="854.2316" y1="3121.0356" x2="868.6769" y2="3097.6685">
					<stop  offset="5.586592e-03" style="stop-color:#0A0068"/>
					<stop  offset="1" style="stop-color:#8F21E2"/>
				</linearGradient>
				<path class="st85" d="M882.8,3109.8c-4,4.7-9.1,7.8-15.5,7.9h-0.1c-0.1-0.1-0.3-0.2-0.5-0.3c-0.1-0.1-0.3-0.2-0.5-0.3
					c0,0,0,0,0,0c-1-0.7-2.5-1.8-4.2-3.5l-0.4-0.4c-0.4-0.4-0.7-0.8-1.1-1.2l-0.1-0.1c0,0-0.1-0.1-0.1-0.1c-0.2-0.2-0.4-0.4-0.6-0.7
					c-0.2-0.2-0.4-0.5-0.6-0.7c-0.3-0.3-0.5-0.7-0.8-1c-0.2-0.2-0.3-0.4-0.5-0.7c-0.7-0.9-1.3-1.9-2-3c-0.1-0.2-0.3-0.4-0.4-0.7
					c-0.2-0.4-0.5-0.8-0.7-1.3c-0.1-0.2-0.2-0.4-0.3-0.6c-0.3-0.6-0.6-1.3-0.9-1.9c-0.2-0.3-0.3-0.7-0.4-1c-0.2-0.3-0.3-0.7-0.4-1
					c-0.3-0.7-0.6-1.5-0.8-2.2c-0.2-0.5-0.3-0.9-0.5-1.4c-0.3-0.9-0.6-1.9-0.9-2.9c0.2,0.2,2.9,2.9,6.2,2.5c0.1,0,0.2,0,0.3,0
					c0.2,0,0.4-0.1,0.7-0.2c0.1,0,0.2-0.1,0.4-0.1c0.1-0.1,0.3-0.1,0.4-0.2c0.4-0.2,0.7-0.4,1.1-0.6c0.1-0.1,0.2-0.1,0.2-0.2
					c0.1-0.1,0.2-0.1,0.3-0.2c0,0,0,0,0,0c0.6-0.5,1.3-1.2,2-1.9c2.5-2.7,3.5-6.8,3.9-11.8C875.4,3081.8,882.7,3094.4,882.8,3109.8z
					"/>
				<linearGradient id="SVGID_78_" gradientUnits="userSpaceOnUse" x1="889.0618" y1="2924.813" x2="823.6332" y2="3063.3176">
					<stop  offset="0" style="stop-color:#231F20;stop-opacity:0.7"/>
					<stop  offset="0.5223" style="stop-color:#858585;stop-opacity:0"/>
					<stop  offset="1" style="stop-color:#000000;stop-opacity:0"/>
				</linearGradient>
				<path class="st86" d="M857.6,2993.8c-1.6,2.5-3,5.1-4.4,7.5c0,0,0,0,0,0c-30.3,55.9-5.5,92.6-3.4,95.4l-6-7.6l-19.5-24.9
					c-3-29.3,5.8-63.7,21.2-84.8c0.4-0.5,0.7-1,1.1-1.5c26.5-37.5,7.9-61.6,5.7-64.2h0.3C857.5,2916.1,893.5,2935.3,857.6,2993.8z"
					/>
				<linearGradient id="SVGID_79_" gradientUnits="userSpaceOnUse" x1="980.2386" y1="2955.9443" x2="940.0146" y2="3041.0938">
					<stop  offset="0" style="stop-color:#FFFFFF;stop-opacity:0.7"/>
					<stop  offset="0.5223" style="stop-color:#858585;stop-opacity:0"/>
					<stop  offset="1" style="stop-color:#000000;stop-opacity:0"/>
				</linearGradient>
				<path class="st87" d="M957.3,3028.1c-7.6,4.4-14.4,10-19.8,16.8c-1.5,1.9-3,3.9-4.3,6c0-0.4,0.1-0.7,0.1-1.1
					c5.5-35.1,26.3-26.3,48.3-57.1c19.5-27.3-34.7-22.5-47-21.1h0c-1.3,0.2-2.2,0.3-2.3,0.3l0.4-0.2l0.9-0.5
					c7.1-2.2,15.4-4.2,24.6-5.3c-0.2,0-0.4-0.1-0.5-0.1c15.1-1.5,30.2-1.5,39.9,2.2h0c3.6,1.4,6.5,3.3,8.3,5.8
					C1017.8,2991.1,973.2,3018.9,957.3,3028.1z"/>
				<linearGradient id="SVGID_80_" gradientUnits="userSpaceOnUse" x1="845.5964" y1="3080.2368" x2="860.0417" y2="2959.1514">
					<stop  offset="0" style="stop-color:#FFFFFF;stop-opacity:0.7"/>
					<stop  offset="0.5223" style="stop-color:#858585;stop-opacity:0"/>
					<stop  offset="1" style="stop-color:#000000;stop-opacity:0"/>
				</linearGradient>
				<path class="st88" d="M867.3,3117.7h-0.8c-29-0.2-38.6-35-39.2-37.2c0-0.1,0-0.1,0-0.1c-1.5-5.1-2.5-10.5-3.1-16
					c-3-29.3,5.8-63.7,21.2-84.8c0.4-0.5,0.7-1,1.1-1.5c4.7,2.5,14.1,7.3,13.2,21.2c0,0-36.2,62.5-17.6,103.2
					C845.8,3110.3,852.1,3117.8,867.3,3117.7z"/>
				<path class="st89" d="M952.6,3109.6c-0.1,0-0.1-0.1-0.2-0.1c0,0,0,0,0,0c-4.6-2.8-22.9-15-25.3-35.6c-0.6-5.3,0.3-10.4,2.1-15
					l0,0c1.8,1.9,5.4,5.1,10.7,8.4v0C939.8,3067.3,932.3,3088.9,952.6,3109.6z"/>
			</g>
		</g>
	</g>
</g>
</svg>
