<?xml version="1.0" encoding="utf-8"?>
<!-- Generator: Adobe Illustrator 23.0.3, SVG Export Plug-In . SVG Version: 6.00 Build 0)  -->
<svg version="1.1" id="_x3C_Layer_x3E_" xmlns="http://www.w3.org/2000/svg" xmlns:xlink="http://www.w3.org/1999/xlink" x="0px"
	 y="0px" viewBox="0 0 200 133.33" style="enable-background:new 0 0 200 133.33;" xml:space="preserve">
<style type="text/css">
	.st0{fill:#EBF3FA;}
	.st1{opacity:0.5;}
	.st2{fill:#AEC3FF;}
	.st3{opacity:0.4;}
	.st4{fill:#8C9DF4;}
	.st5{fill:#505ABA;}
	.st6{fill:#FFFFFF;}
	.st7{fill:#F99746;}
	.st8{fill:#BDD1F9;}
	.st9{fill:#D2E2F9;}
	.st10{fill:#0A0068;}
	.st11{fill:#2C3A64;}
	.st12{fill:#DDE7FE;}
	.st13{fill:#6C18C2;}
	.st14{fill:#8FADEF;}
	.st15{fill:#F77D48;}
	.st16{fill:#FF8C64;}
	.st17{fill:#798EE8;}
	.st18{fill:#849DEF;}
	.st19{fill:#FFB27D;}
	.st20{fill:#2F539B;}
	.st21{fill:#233862;}
	.st22{fill:#6385DB;}
	.st23{fill:#739AF0;}
	.st24{fill:#ED985F;}
	.st25{fill:#ED7D2B;}
	.st26{fill:#ED975D;}
	.st27{fill:#113C68;}
	.st28{fill:#2A4E96;}
	.st29{fill:#15447C;}
	.st30{fill:#FCA56B;}
	.st31{fill:#163560;}
	.st32{fill:#1F4D84;}
	.st33{fill:#B3CFF9;}
	.st34{fill:url(#SVGID_1_);}
	.st35{fill:url(#SVGID_2_);}
	.st36{opacity:0.8;fill:url(#SVGID_3_);}
	.st37{fill:url(#SVGID_4_);}
	.st38{fill:url(#SVGID_5_);}
	.st39{fill:url(#SVGID_6_);}
	.st40{fill:url(#SVGID_7_);}
	.st41{fill:url(#SVGID_8_);}
	.st42{opacity:0.8;fill:url(#SVGID_9_);}
	.st43{fill:url(#SVGID_10_);}
	.st44{opacity:0.6;fill:url(#SVGID_11_);}
	.st45{fill:url(#SVGID_12_);}
	.st46{fill:url(#SVGID_13_);}
	.st47{fill:url(#SVGID_14_);}
	.st48{fill:url(#SVGID_15_);}
	.st49{opacity:0.4;fill:url(#SVGID_16_);}
	.st50{fill:url(#SVGID_17_);}
</style>
<g>
	<g>
		<path class="st0" d="M191.1,125.07c-10.82,0-173.26,0.04-173.35-0.24l-0.02-0.04c0,0-0.02-0.03-0.02-0.05
			c-0.06-0.14-31.28-12.72-10.7-40.85C17.8,69.15-1.45,46.58,21.47,26.67c35.92-31.21,70.2,7.23,84.74,0
			c12.21-6.08,31.84-14.79,51.77-6.98c5.47,2.15,17.33,12.91,7.48,31.01c-4.92,9.05,16.91,10.1,24.89,19.71
			C207.74,91.34,197.57,125.07,191.1,125.07z"/>
	</g>
	<g class="st1">
		<g class="st1">
			<path class="st2" d="M130.48,60.02c0,0-2.09-16.52,3.75-28.15c0.78-1.55,3.07-1.26,3.45,0.43c0.01,0.03,0.01,0.06,0.02,0.09
				C138.31,35.28,132.11,49.65,130.48,60.02z"/>
		</g>
		<g class="st1">
			<path class="st2" d="M130.63,64.87c0,0,3.19-22.1,14.97-34.46c0.72-0.75,1.92-0.85,2.7-0.16c0.51,0.45,0.89,1.25,0.8,2.68
				C148.87,36.74,136.22,52.51,130.63,64.87z"/>
		</g>
	</g>
	<g class="st3">
		<g>
			<g>
				<path class="st4" d="M28.03,70.73h1.03c2.26,0,4.09-1.83,4.09-4.09V43.18c0-2.26-1.83-4.09-4.09-4.09h-1.03
					c-2.26,0-4.09,1.83-4.09,4.09v23.46C23.94,68.9,25.77,70.73,28.03,70.73z"/>
			</g>
			<g>
				<path class="st5" d="M30.71,63.91c0-1.19-0.97-2.16-2.16-2.16c-1.19,0-2.16,0.97-2.16,2.16c0,1.19,0.97,2.16,2.16,2.16
					C29.74,66.07,30.71,65.1,30.71,63.91z"/>
			</g>
			<g>
				<path class="st6" d="M28.55,66.31c-1.32,0-2.39-1.07-2.39-2.39c0-1.32,1.07-2.39,2.39-2.39c1.32,0,2.39,1.07,2.39,2.39
					C30.94,65.24,29.87,66.31,28.55,66.31z M28.55,61.99c-1.07,0-1.93,0.87-1.93,1.93c0,1.07,0.87,1.93,1.93,1.93
					c1.07,0,1.93-0.87,1.93-1.93C30.48,62.86,29.61,61.99,28.55,61.99z"/>
			</g>
			<g>
				<path class="st2" d="M28.25,58.32h0.6c1.32,0,2.4-1.07,2.4-2.4V42.93c0-1.32-1.07-2.4-2.4-2.4h-0.6c-1.32,0-2.4,1.07-2.4,2.4v13
					C25.85,57.25,26.92,58.32,28.25,58.32z"/>
			</g>
			<g>
				<path class="st7" d="M26.8,41.89h3.39c0.17,0,0.32-0.14,0.32-0.32V41.5c0-0.17-0.14-0.32-0.32-0.32H26.8
					c-0.17,0-0.32,0.14-0.32,0.32v0.08C26.48,41.75,26.62,41.89,26.8,41.89z"/>
			</g>
			<g>
				<g>
					<path class="st5" d="M29.24,52.55v3.67c0,0.1,0.08,0.18,0.18,0.18l0,0c0.1,0,0.18-0.08,0.18-0.18v-3.67
						c0-0.1-0.08-0.18-0.18-0.18l0,0C29.32,52.37,29.24,52.45,29.24,52.55z"/>
				</g>
				<g>
					<path class="st5" d="M29.24,47.5v3.67c0,0.1,0.08,0.18,0.18,0.18l0,0c0.1,0,0.18-0.08,0.18-0.18V47.5
						c0-0.1-0.08-0.18-0.18-0.18l0,0C29.32,47.32,29.24,47.4,29.24,47.5z"/>
				</g>
				<g>
					<path class="st5" d="M27.19,52.55v3.67c0,0.1,0.08,0.18,0.18,0.18l0,0c0.1,0,0.18-0.08,0.18-0.18v-3.67
						c0-0.1-0.08-0.18-0.18-0.18l0,0C27.27,52.37,27.19,52.45,27.19,52.55z"/>
				</g>
				<g>
					<path class="st5" d="M27.19,47.5v3.67c0,0.1,0.08,0.18,0.18,0.18l0,0c0.1,0,0.18-0.08,0.18-0.18V47.5
						c0-0.1-0.08-0.18-0.18-0.18l0,0C27.27,47.32,27.19,47.4,27.19,47.5z"/>
				</g>
				<g>
					<path class="st5" d="M28.26,51.51v4.7c0,0.1,0.08,0.18,0.18,0.18l0,0c0.1,0,0.18-0.08,0.18-0.18v-4.7
						c0-0.1-0.08-0.18-0.18-0.18l0,0C28.34,51.33,28.26,51.41,28.26,51.51z"/>
				</g>
				<g>
					<path class="st5" d="M28.26,45.17v4.7c0,0.1,0.08,0.18,0.18,0.18l0,0c0.1,0,0.18-0.08,0.18-0.18v-4.7
						c0-0.1-0.08-0.18-0.18-0.18l0,0C28.34,44.99,28.26,45.07,28.26,45.17z"/>
				</g>
			</g>
		</g>
		<g>
			<g>
				<path class="st4" d="M39.53,70.73h1.03c2.26,0,4.09-1.83,4.09-4.09V43.18c0-2.26-1.83-4.09-4.09-4.09h-1.03
					c-2.26,0-4.09,1.83-4.09,4.09v23.46C35.44,68.9,37.27,70.73,39.53,70.73z"/>
			</g>
			<g>
				<path class="st5" d="M42.21,63.91c0-1.19-0.97-2.16-2.16-2.16c-1.19,0-2.16,0.97-2.16,2.16c0,1.19,0.97,2.16,2.16,2.16
					C41.24,66.07,42.21,65.1,42.21,63.91z"/>
			</g>
			<g>
				<path class="st6" d="M40.05,66.31c-1.32,0-2.39-1.07-2.39-2.39c0-1.32,1.07-2.39,2.39-2.39c1.32,0,2.39,1.07,2.39,2.39
					C42.43,65.24,41.36,66.31,40.05,66.31z M40.05,61.99c-1.07,0-1.93,0.87-1.93,1.93c0,1.07,0.87,1.93,1.93,1.93
					c1.07,0,1.93-0.87,1.93-1.93C41.98,62.86,41.11,61.99,40.05,61.99z"/>
			</g>
			<g>
				<path class="st2" d="M39.74,58.32h0.6c1.32,0,2.4-1.07,2.4-2.4V42.93c0-1.32-1.07-2.4-2.4-2.4h-0.6c-1.32,0-2.4,1.07-2.4,2.4
					v12.99C37.34,57.25,38.42,58.32,39.74,58.32z"/>
			</g>
			<g>
				<path class="st7" d="M38.29,41.89h3.39c0.17,0,0.32-0.14,0.32-0.32V41.5c0-0.17-0.14-0.32-0.32-0.32h-3.39
					c-0.17,0-0.32,0.14-0.32,0.32v0.08C37.98,41.75,38.12,41.89,38.29,41.89z"/>
			</g>
			<g>
				<g>
					<path class="st5" d="M40.73,52.55v3.67c0,0.1,0.08,0.18,0.18,0.18l0,0c0.1,0,0.18-0.08,0.18-0.18v-3.67
						c0-0.1-0.08-0.18-0.18-0.18l0,0C40.81,52.37,40.73,52.45,40.73,52.55z"/>
				</g>
				<g>
					<path class="st5" d="M40.73,47.5v3.67c0,0.1,0.08,0.18,0.18,0.18l0,0c0.1,0,0.18-0.08,0.18-0.18V47.5
						c0-0.1-0.08-0.18-0.18-0.18l0,0C40.81,47.32,40.73,47.4,40.73,47.5z"/>
				</g>
				<g>
					<path class="st5" d="M38.69,52.55v3.67c0,0.1,0.08,0.18,0.18,0.18l0,0c0.1,0,0.18-0.08,0.18-0.18v-3.67
						c0-0.1-0.08-0.18-0.18-0.18l0,0C38.77,52.37,38.69,52.45,38.69,52.55z"/>
				</g>
				<g>
					<path class="st5" d="M38.69,47.5v3.67c0,0.1,0.08,0.18,0.18,0.18l0,0c0.1,0,0.18-0.08,0.18-0.18V47.5
						c0-0.1-0.08-0.18-0.18-0.18l0,0C38.77,47.32,38.69,47.4,38.69,47.5z"/>
				</g>
				<g>
					<path class="st5" d="M39.75,51.51v4.7c0,0.1,0.08,0.18,0.18,0.18l0,0c0.1,0,0.18-0.08,0.18-0.18v-4.7
						c0-0.1-0.08-0.18-0.18-0.18l0,0C39.83,51.33,39.75,51.41,39.75,51.51z"/>
				</g>
				<g>
					<path class="st5" d="M39.75,45.17v4.7c0,0.1,0.08,0.18,0.18,0.18l0,0c0.1,0,0.18-0.08,0.18-0.18v-4.7
						c0-0.1-0.08-0.18-0.18-0.18l0,0C39.83,44.99,39.75,45.07,39.75,45.17z"/>
				</g>
			</g>
		</g>
		<g>
			<g>
				<path class="st4" d="M51.25,70.73h1.03c2.26,0,4.09-1.83,4.09-4.09V43.18c0-2.26-1.83-4.09-4.09-4.09h-1.03
					c-2.26,0-4.09,1.83-4.09,4.09v23.46C47.15,68.9,48.98,70.73,51.25,70.73z"/>
			</g>
			<g>
				<path class="st5" d="M53.92,63.91c0-1.19-0.97-2.16-2.16-2.16c-1.19,0-2.16,0.97-2.16,2.16c0,1.19,0.97,2.16,2.16,2.16
					C52.95,66.07,53.92,65.1,53.92,63.91z"/>
			</g>
			<g>
				<path class="st6" d="M51.76,66.31c-1.32,0-2.39-1.07-2.39-2.39c0-1.32,1.07-2.39,2.39-2.39c1.32,0,2.39,1.07,2.39,2.39
					C54.15,65.24,53.08,66.31,51.76,66.31z M51.76,61.99c-1.07,0-1.93,0.87-1.93,1.93c0,1.07,0.87,1.93,1.93,1.93
					c1.07,0,1.93-0.87,1.93-1.93C53.69,62.86,52.83,61.99,51.76,61.99z"/>
			</g>
			<g>
				<path class="st2" d="M51.46,58.32h0.6c1.32,0,2.4-1.07,2.4-2.4V42.93c0-1.32-1.07-2.4-2.4-2.4h-0.6c-1.32,0-2.4,1.07-2.4,2.4
					v12.99C49.06,57.25,50.13,58.32,51.46,58.32z"/>
			</g>
			<g>
				<path class="st7" d="M50.01,41.89h3.39c0.17,0,0.32-0.14,0.32-0.32V41.5c0-0.17-0.14-0.32-0.32-0.32h-3.39
					c-0.17,0-0.32,0.14-0.32,0.32v0.08C49.69,41.75,49.83,41.89,50.01,41.89z"/>
			</g>
			<g>
				<g>
					<path class="st5" d="M52.45,52.55v3.67c0,0.1,0.08,0.18,0.18,0.18l0,0c0.1,0,0.18-0.08,0.18-0.18v-3.67
						c0-0.1-0.08-0.18-0.18-0.18l0,0C52.53,52.37,52.45,52.45,52.45,52.55z"/>
				</g>
				<g>
					<path class="st5" d="M52.45,47.5v3.67c0,0.1,0.08,0.18,0.18,0.18l0,0c0.1,0,0.18-0.08,0.18-0.18V47.5
						c0-0.1-0.08-0.18-0.18-0.18l0,0C52.53,47.32,52.45,47.4,52.45,47.5z"/>
				</g>
				<g>
					<path class="st5" d="M50.4,52.55v3.67c0,0.1,0.08,0.18,0.18,0.18l0,0c0.1,0,0.18-0.08,0.18-0.18v-3.67
						c0-0.1-0.08-0.18-0.18-0.18l0,0C50.48,52.37,50.4,52.45,50.4,52.55z"/>
				</g>
				<g>
					<path class="st5" d="M50.4,47.5v3.67c0,0.1,0.08,0.18,0.18,0.18l0,0c0.1,0,0.18-0.08,0.18-0.18V47.5c0-0.1-0.08-0.18-0.18-0.18
						l0,0C50.48,47.32,50.4,47.4,50.4,47.5z"/>
				</g>
				<g>
					<path class="st5" d="M51.47,51.51v4.7c0,0.1,0.08,0.18,0.18,0.18l0,0c0.1,0,0.18-0.08,0.18-0.18v-4.7
						c0-0.1-0.08-0.18-0.18-0.18l0,0C51.55,51.33,51.47,51.41,51.47,51.51z"/>
				</g>
				<g>
					<path class="st5" d="M51.47,45.17v4.7c0,0.1,0.08,0.18,0.18,0.18l0,0c0.1,0,0.18-0.08,0.18-0.18v-4.7
						c0-0.1-0.08-0.18-0.18-0.18l0,0C51.55,44.99,51.47,45.07,51.47,45.17z"/>
				</g>
			</g>
		</g>
		<g>
			<g>
				<path class="st4" d="M63.31,70.73h1.03c2.26,0,4.09-1.83,4.09-4.09V43.18c0-2.26-1.83-4.09-4.09-4.09h-1.03
					c-2.26,0-4.09,1.83-4.09,4.09v23.46C59.22,68.9,61.05,70.73,63.31,70.73z"/>
			</g>
			<g>
				<path class="st2" d="M63.52,58.32h0.6c1.32,0,2.4-1.07,2.4-2.4V42.93c0-1.32-1.07-2.4-2.4-2.4h-0.6c-1.32,0-2.4,1.07-2.4,2.4v13
					C61.13,57.25,62.2,58.32,63.52,58.32z"/>
			</g>
			<g>
				<path class="st7" d="M62.07,41.89h3.39c0.17,0,0.32-0.14,0.32-0.32V41.5c0-0.17-0.14-0.32-0.32-0.32h-3.39
					c-0.17,0-0.32,0.14-0.32,0.32v0.08C61.76,41.75,61.9,41.89,62.07,41.89z"/>
			</g>
		</g>
		<g>
			<g>
				<path class="st4" d="M74.95,70.73h1.03c2.26,0,4.09-1.83,4.09-4.09V43.18c0-2.26-1.83-4.09-4.09-4.09h-1.03
					c-2.26,0-4.09,1.83-4.09,4.09v23.46C70.86,68.9,72.69,70.73,74.95,70.73z"/>
			</g>
			<g>
				<path class="st2" d="M75.17,58.32h0.6c1.32,0,2.4-1.07,2.4-2.4V42.93c0-1.32-1.07-2.4-2.4-2.4h-0.6c-1.32,0-2.4,1.07-2.4,2.4v13
					C72.77,57.25,73.84,58.32,75.17,58.32z"/>
			</g>
			<g>
				<path class="st7" d="M73.72,41.89h3.39c0.17,0,0.32-0.14,0.32-0.32V41.5c0-0.17-0.14-0.32-0.32-0.32h-3.39
					c-0.17,0-0.32,0.14-0.32,0.32v0.08C73.4,41.75,73.54,41.89,73.72,41.89z"/>
			</g>
		</g>
		<g>
			<g>
				<path class="st4" d="M28.03,106.53h1.03c2.26,0,4.09-1.83,4.09-4.09V78.98c0-2.26-1.83-4.09-4.09-4.09h-1.03
					c-2.26,0-4.09,1.83-4.09,4.09v23.46C23.94,104.7,25.77,106.53,28.03,106.53z"/>
			</g>
			<g>
				<circle class="st5" cx="28.55" cy="99.71" r="2.16"/>
			</g>
			<g>
				<path class="st6" d="M28.55,102.11c-1.32,0-2.39-1.07-2.39-2.39c0-1.32,1.07-2.39,2.39-2.39c1.32,0,2.39,1.07,2.39,2.39
					C30.94,101.04,29.87,102.11,28.55,102.11z M28.55,97.79c-1.07,0-1.93,0.87-1.93,1.93c0,1.07,0.87,1.93,1.93,1.93
					c1.07,0,1.93-0.87,1.93-1.93C30.48,98.65,29.61,97.79,28.55,97.79z"/>
			</g>
			<g>
				<path class="st2" d="M28.25,94.12h0.6c1.32,0,2.4-1.07,2.4-2.4V78.73c0-1.32-1.07-2.4-2.4-2.4h-0.6c-1.32,0-2.4,1.07-2.4,2.4v13
					C25.85,93.05,26.92,94.12,28.25,94.12z"/>
			</g>
			<g>
				<path class="st7" d="M26.8,77.69h3.39c0.17,0,0.32-0.14,0.32-0.32v-0.08c0-0.18-0.14-0.32-0.32-0.32H26.8
					c-0.17,0-0.32,0.14-0.32,0.32v0.08C26.48,77.55,26.62,77.69,26.8,77.69z"/>
			</g>
			<g>
				<g>
					<path class="st5" d="M29.24,88.34v3.67c0,0.1,0.08,0.18,0.18,0.18l0,0c0.1,0,0.18-0.08,0.18-0.18v-3.67
						c0-0.1-0.08-0.18-0.18-0.18l0,0C29.32,88.17,29.24,88.25,29.24,88.34z"/>
				</g>
				<g>
					<path class="st5" d="M29.24,83.3v3.67c0,0.1,0.08,0.18,0.18,0.18l0,0c0.1,0,0.18-0.08,0.18-0.18V83.3
						c0-0.1-0.08-0.18-0.18-0.18l0,0C29.32,83.12,29.24,83.2,29.24,83.3z"/>
				</g>
				<g>
					<path class="st5" d="M27.19,88.34v3.67c0,0.1,0.08,0.18,0.18,0.18l0,0c0.1,0,0.18-0.08,0.18-0.18v-3.67
						c0-0.1-0.08-0.18-0.18-0.18l0,0C27.27,88.17,27.19,88.25,27.19,88.34z"/>
				</g>
				<g>
					<path class="st5" d="M27.19,83.3v3.67c0,0.1,0.08,0.18,0.18,0.18l0,0c0.1,0,0.18-0.08,0.18-0.18V83.3
						c0-0.1-0.08-0.18-0.18-0.18l0,0C27.27,83.12,27.19,83.2,27.19,83.3z"/>
				</g>
				<g>
					<path class="st5" d="M28.26,87.31v4.7c0,0.1,0.08,0.18,0.18,0.18l0,0c0.1,0,0.18-0.08,0.18-0.18v-4.7
						c0-0.1-0.08-0.18-0.18-0.18l0,0C28.34,87.13,28.26,87.21,28.26,87.31z"/>
				</g>
				<g>
					<path class="st5" d="M28.26,80.97v4.7c0,0.1,0.08,0.18,0.18,0.18l0,0c0.1,0,0.18-0.08,0.18-0.18v-4.7
						c0-0.1-0.08-0.18-0.18-0.18l0,0C28.34,80.79,28.26,80.87,28.26,80.97z"/>
				</g>
			</g>
		</g>
		<g>
			<g>
				<path class="st4" d="M39.53,106.53h1.03c2.26,0,4.09-1.83,4.09-4.09V78.98c0-2.26-1.83-4.09-4.09-4.09h-1.03
					c-2.26,0-4.09,1.83-4.09,4.09v23.46C35.44,104.7,37.27,106.53,39.53,106.53z"/>
			</g>
			<g>
				<path class="st5" d="M42.21,99.71c0-1.19-0.97-2.16-2.16-2.16c-1.19,0-2.16,0.97-2.16,2.16c0,1.19,0.97,2.16,2.16,2.16
					C41.24,101.87,42.21,100.9,42.21,99.71z"/>
			</g>
			<g>
				<path class="st6" d="M40.05,102.11c-1.32,0-2.39-1.07-2.39-2.39c0-1.32,1.07-2.39,2.39-2.39c1.32,0,2.39,1.07,2.39,2.39
					C42.43,101.04,41.36,102.11,40.05,102.11z M40.05,97.79c-1.07,0-1.93,0.87-1.93,1.93c0,1.07,0.87,1.93,1.93,1.93
					c1.07,0,1.93-0.87,1.93-1.93C41.98,98.65,41.11,97.79,40.05,97.79z"/>
			</g>
			<g>
				<path class="st2" d="M39.74,94.12h0.6c1.32,0,2.4-1.07,2.4-2.4V78.73c0-1.32-1.07-2.4-2.4-2.4h-0.6c-1.32,0-2.4,1.07-2.4,2.4
					v12.99C37.34,93.05,38.42,94.12,39.74,94.12z"/>
			</g>
			<g>
				<path class="st7" d="M38.29,77.69h3.39c0.17,0,0.32-0.14,0.32-0.32v-0.08c0-0.18-0.14-0.32-0.32-0.32h-3.39
					c-0.17,0-0.32,0.14-0.32,0.32v0.08C37.98,77.55,38.12,77.69,38.29,77.69z"/>
			</g>
			<g>
				<g>
					<path class="st5" d="M40.73,88.34v3.67c0,0.1,0.08,0.18,0.18,0.18l0,0c0.1,0,0.18-0.08,0.18-0.18v-3.67
						c0-0.1-0.08-0.18-0.18-0.18l0,0C40.81,88.17,40.73,88.25,40.73,88.34z"/>
				</g>
				<g>
					<path class="st5" d="M40.73,83.3v3.67c0,0.1,0.08,0.18,0.18,0.18l0,0c0.1,0,0.18-0.08,0.18-0.18V83.3
						c0-0.1-0.08-0.18-0.18-0.18l0,0C40.81,83.12,40.73,83.2,40.73,83.3z"/>
				</g>
				<g>
					<path class="st5" d="M38.69,88.34v3.67c0,0.1,0.08,0.18,0.18,0.18l0,0c0.1,0,0.18-0.08,0.18-0.18v-3.67
						c0-0.1-0.08-0.18-0.18-0.18l0,0C38.77,88.17,38.69,88.25,38.69,88.34z"/>
				</g>
				<g>
					<path class="st5" d="M38.69,83.3v3.67c0,0.1,0.08,0.18,0.18,0.18l0,0c0.1,0,0.18-0.08,0.18-0.18V83.3
						c0-0.1-0.08-0.18-0.18-0.18l0,0C38.77,83.12,38.69,83.2,38.69,83.3z"/>
				</g>
				<g>
					<path class="st5" d="M39.75,87.31v4.7c0,0.1,0.08,0.18,0.18,0.18l0,0c0.1,0,0.18-0.08,0.18-0.18v-4.7
						c0-0.1-0.08-0.18-0.18-0.18l0,0C39.83,87.13,39.75,87.21,39.75,87.31z"/>
				</g>
				<g>
					<path class="st5" d="M39.75,80.97v4.7c0,0.1,0.08,0.18,0.18,0.18l0,0c0.1,0,0.18-0.08,0.18-0.18v-4.7
						c0-0.1-0.08-0.18-0.18-0.18l0,0C39.83,80.79,39.75,80.87,39.75,80.97z"/>
				</g>
			</g>
		</g>
		<g>
			<g>
				<path class="st4" d="M51.25,106.53h1.03c2.26,0,4.09-1.83,4.09-4.09V78.98c0-2.26-1.83-4.09-4.09-4.09h-1.03
					c-2.26,0-4.09,1.83-4.09,4.09v23.46C47.15,104.7,48.98,106.53,51.25,106.53z"/>
			</g>
		</g>
		<g>
			<g>
				<path class="st4" d="M63.31,106.53h1.03c2.26,0,4.09-1.83,4.09-4.09V78.98c0-2.26-1.83-4.09-4.09-4.09h-1.03
					c-2.26,0-4.09,1.83-4.09,4.09v23.46C59.22,104.7,61.05,106.53,63.31,106.53z"/>
			</g>
		</g>
		<g>
			<g>
				<path class="st4" d="M74.95,106.53h1.03c2.26,0,4.09-1.83,4.09-4.09V78.98c0-2.26-1.83-4.09-4.09-4.09h-1.03
					c-2.26,0-4.09,1.83-4.09,4.09v23.46C70.86,104.7,72.69,106.53,74.95,106.53z"/>
			</g>
		</g>
		<g>
			<path class="st8" d="M21.47,125.07L21.47,125.07c-0.61,0-1.11-0.5-1.11-1.11V35.81c0-0.61,0.5-1.11,1.11-1.11l0,0
				c0.61,0,1.11,0.5,1.11,1.11v88.15C22.58,124.57,22.09,125.07,21.47,125.07z"/>
		</g>
		<g>
			
				<rect x="20.37" y="70.74" transform="matrix(-1 -1.224647e-16 1.224647e-16 -1 104.7651 142.368)" class="st8" width="64.03" height="0.89"/>
		</g>
		<g>
			
				<rect x="20.37" y="106.52" transform="matrix(-1 -1.224647e-16 1.224647e-16 -1 108.7411 213.9249)" class="st8" width="68.01" height="0.89"/>
		</g>
	</g>
	<g>
		<path class="st9" d="M156.45,65.24c0,0-6.09,5.28-5.03,6.36c1.05,1.07,6.36-6.38,6.36-6.38s7.97,1.79,10.06,3.81
			c0,0-8.38,3.23-7.1,4.01c1.28,0.78,10.16-2.18,10.16-2.18s6.79,3.59,4.96,7.85c-1.83,4.26-4.75,4.8-5.8,4.32s-6.62-5-7.05-4.16
			c-0.43,0.85,2.44,5.02,5.08,6.05c0,0-6.91,3.92-9.75,1.2c-2.84-2.72-2.28-5.37-4.07-7.03c-1.78-1.65-3.58-2.24-3.03-0.97
			c0.54,1.26,4.03,3.47,4.53,5.99c0.5,2.52,1.11,4.31-2.21,2.63c-3.31-1.67-8.14-6.09-7.42-9.09c0.03-0.13,0.06-0.26,0.09-0.38
			c-0.08,0.23-0.09,0.38-0.09,0.38c-0.77-0.11-2.71,0.73-4.15,1.42c-0.23,0.13-0.56,0.3-1.03,0.51l0,0c-0.2,0.1-0.37,0.19-0.48,0.25
			c-3,1.72-5.9,6.48-5.9,6.48l-0.74-0.32c2.12-5.44,7.33-7.16,7.33-7.16c3.79-1.63,5.69-4.18,5.69-4.18s-3.05-7.41,2.81-9.55
			C149.67,65.1,153.74,64.16,156.45,65.24z"/>
	</g>
	<g>
		<g>
			
				<rect x="178.5" y="91.9" transform="matrix(-1 -1.224647e-16 1.224647e-16 -1 362.2378 200.6957)" class="st10" width="5.24" height="16.89"/>
		</g>
		<g>
			
				<rect x="165.87" y="91.9" transform="matrix(-1 -1.224647e-16 1.224647e-16 -1 344.3748 200.6957)" class="st11" width="12.63" height="16.89"/>
		</g>
		<g>
			<path class="st12" d="M181.99,94.01c0-0.48-0.39-0.87-0.87-0.87c-0.48,0-0.87,0.39-0.87,0.87c0,0.48,0.39,0.87,0.87,0.87
				C181.6,94.89,181.99,94.49,181.99,94.01z"/>
		</g>
		<g>
			<path class="st13" d="M181.74,94.01c0-0.34-0.28-0.62-0.62-0.62c-0.34,0-0.62,0.28-0.62,0.62c0,0.34,0.28,0.62,0.62,0.62
				C181.46,94.63,181.74,94.35,181.74,94.01z"/>
		</g>
		<g>
			
				<rect x="179.87" y="96.12" transform="matrix(-1 -1.224647e-16 1.224647e-16 -1 362.1993 196.6833)" class="st14" width="2.46" height="4.45"/>
		</g>
	</g>
	<g>
		<g>
			
				<rect x="168.73" y="91.9" transform="matrix(-1 -1.224647e-16 1.224647e-16 -1 342.702 200.6957)" class="st10" width="5.24" height="16.89"/>
		</g>
		<g>
			
				<rect x="156.11" y="91.9" transform="matrix(-1 -1.224647e-16 1.224647e-16 -1 324.839 200.6957)" class="st11" width="12.63" height="16.89"/>
		</g>
		<g>
			<path class="st12" d="M172.22,94.01c0-0.48-0.39-0.87-0.87-0.87c-0.48,0-0.87,0.39-0.87,0.87c0,0.48,0.39,0.87,0.87,0.87
				C171.83,94.89,172.22,94.49,172.22,94.01z"/>
		</g>
		<g>
			<path class="st13" d="M171.97,94.01c0-0.34-0.28-0.62-0.62-0.62c-0.34,0-0.62,0.28-0.62,0.62c0,0.34,0.28,0.62,0.62,0.62
				C171.69,94.63,171.97,94.35,171.97,94.01z"/>
		</g>
		<g>
			
				<rect x="170.1" y="96.12" transform="matrix(-1 -1.224647e-16 1.224647e-16 -1 342.6636 196.6833)" class="st14" width="2.46" height="4.45"/>
		</g>
	</g>
	<g>
		<g>
			
				<rect x="159.8" y="91.9" transform="matrix(-1 -1.224647e-16 1.224647e-16 -1 324.8391 200.6957)" class="st10" width="5.24" height="16.89"/>
		</g>
		<g>
			
				<rect x="147.17" y="91.9" transform="matrix(-1 -1.224647e-16 1.224647e-16 -1 306.9762 200.6957)" class="st11" width="12.63" height="16.89"/>
		</g>
		<g>
			<path class="st12" d="M163.29,94.01c0-0.48-0.39-0.87-0.87-0.87c-0.48,0-0.87,0.39-0.87,0.87c0,0.48,0.39,0.87,0.87,0.87
				C162.9,94.89,163.29,94.49,163.29,94.01z"/>
		</g>
		<g>
			<path class="st13" d="M163.04,94.01c0-0.34-0.28-0.62-0.62-0.62s-0.62,0.28-0.62,0.62c0,0.34,0.28,0.62,0.62,0.62
				S163.04,94.35,163.04,94.01z"/>
		</g>
		<g>
			
				<rect x="161.17" y="96.12" transform="matrix(-1 -1.224647e-16 1.224647e-16 -1 324.8006 196.6833)" class="st14" width="2.46" height="4.45"/>
		</g>
	</g>
	<g>
		<g>
			
				<rect x="146.39" y="102.9" transform="matrix(-1 -1.224647e-16 1.224647e-16 -1 322.3591 227.6614)" class="st15" width="29.58" height="21.86"/>
		</g>
		<g>
			
				<rect x="162.24" y="102.9" transform="matrix(-1 -1.224647e-16 1.224647e-16 -1 347.938 227.6614)" class="st16" width="23.46" height="21.86"/>
		</g>
		<g>
			<path class="st11" d="M172.23,106.47h6.15c0.36,0,0.65-0.29,0.65-0.65v-0.16c0-0.36-0.29-0.65-0.65-0.65h-6.15
				c-0.36,0-0.65,0.29-0.65,0.65v0.16C171.58,106.18,171.88,106.47,172.23,106.47z"/>
		</g>
	</g>
	<g>
		<g>
			<path class="st17" d="M101.83,74.34l-4,47.57c0,0-0.42,2.88,1.73,2.89c3.53,0.01,17.55,0,17.55,0s-2.65-0.6-2.62-1.95
				c0.04-1.59,4.68-48.96,4.68-48.96L101.83,74.34z"/>
		</g>
		<g>
			<path class="st2" d="M118.42,123.93c-0.69,0-14.27,0.02-17.71-0.02c-1.5-0.02-1.76-1.33-1.77-2.18
				c-0.01-0.41,0.05-0.71,0.05-0.71l0.1-1.24l0.27-3.15l0.23-2.78l0.3-3.58l0.25-3.02l2.84-33.8L120.32,73
				c0,0-1.95,19.82-3.34,34.25c-0.15,1.61-0.3,3.15-0.44,4.59c-0.04,0.46-0.09,0.91-0.13,1.35c-0.13,1.37-0.25,2.62-0.35,3.73
				c-0.05,0.58-0.1,1.13-0.15,1.62c-0.18,1.95-0.28,3.19-0.28,3.42c0,0.14,0.01,0.27,0.03,0.39
				C115.97,123.86,118.16,123.93,118.42,123.93z"/>
		</g>
		<g>
			<polygon class="st2" points="59.74,48.43 69.48,87.57 70.81,92.93 75.35,111.17 159.67,111.17 142.95,48.43 			"/>
		</g>
		<g>
			<polygon class="st17" points="59.74,48.43 58.38,48.88 73.56,112.53 75.35,111.17 			"/>
		</g>
		<g>
			<polygon class="st18" points="73.56,112.53 157.36,112.53 159.67,111.17 75.35,111.17 			"/>
		</g>
		<g>
			
				<rect x="102.99" y="123.93" transform="matrix(-1 -1.224647e-16 1.224647e-16 -1 224.1173 248.7188)" class="st2" width="18.14" height="0.86"/>
		</g>
		<g>
			<polygon class="st4" points="116.52,112.53 116.42,113.19 99.36,116.63 99.6,113.85 99.71,112.53 			"/>
		</g>
		<g class="st1">
			<path class="st4" d="M118.42,123.93c-0.69,0-14.27,0.02-17.71-0.02c-1.5-0.02-1.76-1.33-1.77-2.18l16.98-3.2
				c-0.18,1.95-0.28,3.19-0.28,3.42c0,0.14,0.01,0.27,0.03,0.39C115.97,123.86,118.16,123.93,118.42,123.93z"/>
		</g>
		<g>
			<polygon class="st4" points="59.74,48.43 142.95,48.43 156.45,98.85 72.29,98.85 			"/>
		</g>
		<g>
			<polygon class="st5" points="152.52,96.66 74.61,96.66 71.83,85.57 70.75,81.28 70.31,79.53 67.45,68.13 67.3,67.54 65.79,61.52 
				65.11,58.82 64.54,56.52 64.06,54.65 63.18,51.13 139.97,51.13 140.94,54.65 141.45,56.52 142.09,58.82 142.83,61.52 
				147.73,79.28 147.73,79.28 148.14,80.78 148.34,81.48 151.72,93.74 			"/>
		</g>
	</g>
	<g>
		<g>
			<g>
				<path class="st11" d="M55.09,75.52c0,0,0.2-2.21-2.27-2.21c0,0,0.75,0.2,1.14,0.61c0,0-1.58-0.93-3.3,0.5
					c-1.72,1.42-0.65,4.99-1.17,5.67c-0.52,0.68-2.56,0.81-2.31,3.01c0.25,2.19,6.45,4.94,6.06,6.75c0,0,2.43-3.58,0.69-5.21
					c0,0,0.85,0.8,0.93,1.75c0,0,0.23-1.85-0.95-2.45c-1.04-0.52-1.9-2.44-1.81-2.79C52.2,80.8,55.09,75.52,55.09,75.52z"/>
			</g>
			<g>
				<path class="st19" d="M52.65,86.15c0,0,1.85,7.65,3.66,9.18c1.09,0.92,4.33,3.03,4.33,3.03l-1.35,0.49c0,0-4.5-1.52-5.51-2.7
					c-1.01-1.18-3.76-7.12-3.76-7.12L52.65,86.15z"/>
			</g>
			<g>
				<path class="st7" d="M63.33,101.15l-0.43-1.08c-0.47-1.15-1.59-1.91-2.83-1.91h-8.01v5.09v21.71H85.2v-21.71H66.44
					C65.07,103.25,63.84,102.42,63.33,101.15z"/>
			</g>
			<g>
				<path class="st20" d="M35.28,99.59c0.02,0.03,0.03,0.06,0.05,0.09c0.4,0.7,1.33,2.43,2.35,4.31c0.48,0.89,0.99,1.83,1.47,2.7
					c0.83,1.51,1.58,2.86,2.02,3.57c0.45,0.72,0.78,1.23,0.91,1.44c0,0,0,0,0,0c0.04,0.06,0.05,0.14,0.04,0.21
					c-0.05,0.64-0.03,1.27,0.03,1.9c0.62,6.13,4.75,9.42,4.75,9.42l1.23,0.18c0,0-1.74-6.45-2.25-10.09
					c-0.09-0.62-0.12-1.12-0.09-1.45c0.09-0.95-0.08-2.34-0.4-3.94c-0.57-2.84-1.61-6.34-2.51-9.13c-0.06-0.18-1.79-6.43-1.79-6.43
					c-1.45,1.27-6.75,1.79-6.75,1.79S33.45,96.33,35.28,99.59z"/>
			</g>
			<g>
				<path class="st21" d="M50.72,124.96h-5.13c0,0-0.12-0.78,0.15-1.38c0.26-0.57,0.62-0.59,0.05-1.48
					c0.33,0.34,1.37,0.47,2.12,0.37c0.09,0.15,0.59,1.14,0.89,1.35C49.12,124.07,50.62,123.99,50.72,124.96z"/>
			</g>
			<g>
				<path class="st21" d="M35.28,99.59c0.02,0.03,0.03,0.06,0.05,0.09c0.4,0.7,2.59,4.74,3.61,6.63c-1.18-4.87-0.36-9.75-0.36-9.75
					L35.28,99.59z"/>
			</g>
			<g>
				<path class="st11" d="M54.39,75.2c0.03-0.13-2.93,1.34-3.08,1.51c-1.39,1.54-0.99,3.56-0.2,3.57c0.51,0.01,0.41,0.86,0.41,0.86
					l5.69-2.4C57.21,78.74,56.52,74.75,54.39,75.2z"/>
			</g>
			<g>
				<path class="st22" d="M52.48,85c0,0,0.87,1.73,0.76,3.13c0,0-1.04,1.65-3.75,2.06C49.49,90.2,51.81,85,52.48,85z"/>
			</g>
			<g>
				<path class="st20" d="M39.28,94.53l0.02-0.96c-1.91,0.24-6.59-2.29-6.59-2.29s-2,1.33-2.27,5.13c-0.13,1.85-0.98,9.7-1.07,12.04
					c-0.03,0.85-0.05,1.45-0.05,1.7c0,0,0,0,0,0c0,0.07-0.04,0.14-0.08,0.2c-0.4,0.5-0.74,1.04-1.04,1.59
					c-2.92,5.43-1.39,12.81-1.39,12.81l0.68-0.17c0,0,2.47-7.65,4.08-10.96c0.27-0.56,0.52-1,0.73-1.25
					c0.61-0.74,1.25-1.99,1.88-3.49C35.35,106.03,39.28,94.53,39.28,94.53z"/>
			</g>
			<g>
				<path class="st21" d="M30.88,124.96h-5.13c0,0-0.12-0.78,0.15-1.38c0.26-0.57,0.66-0.83,0.56-1.52c0.33,0.34,0.86,0.71,1.6,0.61
					c0.09,0.15,0.59,0.94,0.89,1.15C29.28,124.07,30.78,123.99,30.88,124.96z"/>
			</g>
			<g>
				<path class="st23" d="M49.14,91.3c-0.69,0.12,0.11,0.67-0.84,0.77c-1.35,0.15-2.74,0.25-3.47,0.54c-0.27,0.11-0.44,0.24-0.5,0.4
					c-0.32,0.95-2.32,2.59-2.32,2.59c-8.94-0.41-9.51-4.39-9.51-4.39c5.8-5.63,10.73-8.7,14.81-9.08c0.99-0.09,2.33,0.03,2.96,0.31
					C51.7,83.07,52.48,85,52.48,85S51.76,90.85,49.14,91.3z"/>
			</g>
			<g>
				<path class="st22" d="M48.31,92.07c-1.35,0.15-2.74,0.25-3.47,0.54c-0.3-4.46,1.81-7.81,1.81-7.81S48.01,90.38,48.31,92.07z"/>
			</g>
			<g>
				<path class="st19" d="M49.47,84.04c0,0-3.39-0.19-4,1.95c-0.6,2.13,1.13,10.64,1.51,11.51c0.68,1.6,4.11,6.36,4.11,6.36
					l1.1-0.57c0,0-2.21-6.97-2.7-7.66C48.71,94.55,50.49,84.97,49.47,84.04z"/>
			</g>
			<g>
				<path class="st19" d="M52.19,103.29c0,0,0.28,0.25,0.51,0.53c0.23,0.28,0.03,0.38,0.68,1.64c0,0-0.03,0.18-0.18,0.14
					c-0.14-0.03-0.64-0.52-0.89-0.49c0,0-0.18,0.15-0.2,0.64c-0.02,0.46-0.02,1.49-0.1,1.68c-0.08,0.19-0.67-0.81-0.96-1.53
					c-0.25-0.63-0.01-2.77-0.01-2.77L52.19,103.29z"/>
			</g>
			<g>
				<path class="st23" d="M44.8,88.84c0.01,0.05,3.21,0.59,5.21-0.43c0,0,1.67-5.24-0.72-4.99c-2.39,0.25-3.81,1-3.87,2.15
					C45.37,86.71,44.8,88.84,44.8,88.84z"/>
			</g>
			<g>
				<path class="st19" d="M50.19,82.8c0.03,0.42,0.09,0.92,0.64,1.49c0.43,0.44,1.04,0.78,1.47,0.35c0.22-0.22,0.52-0.55,0.67-0.81
					c0.37-0.64,0.82-1.3,0.82-1.3l-1.92-1.68l-0.11-0.1c-0.5,0.88-1,1.3-1.43,1.62C50.2,82.48,50.18,82.64,50.19,82.8z"/>
			</g>
			<g>
				<path class="st24" d="M53.8,82.54c0,0-0.44,0.65-0.82,1.3c-1.19-0.74-1.2-2.21-1.1-2.98L53.8,82.54z"/>
			</g>
			<g>
				<path class="st19" d="M53.85,83.38c0,0-2.9-1.61-1.87-3.4s1.35-3.2,3.25-2.25c1.89,0.95,1.86,1.84,1.66,2.52
					C56.69,80.94,54.63,83.76,53.85,83.38z"/>
			</g>
			<g>
				<path class="st11" d="M57.38,79.21c-0.13-0.79-0.54-0.87-0.82-0.82c-1.07-1.77-2.82-1.08-2.82-1.08
					c-0.93,1.17-2.28,1.37-2.28,1.37s0.34,0.63,1.72,1.01c0.42,0.12,0.9,0.05,1.37-0.11c-0.96,0.54-1.97,0.74-1.97,0.74
					c1.83,0.17,3.56-1.5,3.74-1.68c0.08,0.26,0.23,0.8,0.14,1.2c-0.12,0.54-0.6,1.51-0.31,1.64C56.16,81.49,57.58,80.4,57.38,79.21z
					"/>
			</g>
			<g>
				<path class="st19" d="M61.18,98.36c0,0-0.81,0.61-0.2,1c0.61,0.4,1.7,0.5,1.7,0.24C62.7,98.73,62.26,98.11,61.18,98.36z"/>
			</g>
		</g>
	</g>
	<g>
		<path class="st21" d="M197.74,125.34H9.02c-0.13,0-0.24-0.11-0.24-0.24v-0.06c0-0.13,0.11-0.24,0.24-0.24h188.71
			c0.13,0,0.24,0.11,0.24,0.24v0.06C197.98,125.23,197.87,125.34,197.74,125.34z"/>
	</g>
	<g>
		<path class="st7" d="M80.55,64.54l-0.72-1.06c-0.77-1.14-2.08-1.88-3.31-1.88h-7.9L70,66.61l5.44,19.9
			c0.24,0.89,1.05,1.51,1.98,1.51h28.44c1.35,0,2.34-1.29,1.98-2.59l-5.15-18.82h-18.5C82.84,66.61,81.4,65.79,80.55,64.54z"/>
	</g>
	<g>
		<g>
			<g>
				<path class="st19" d="M81.37,58.57c-0.12,0.14-0.14,0.3-0.08,0.47c0,0,0,0,0,0c0.11,0.31,0.49,0.66,0.92,1.01
					c0.06,0.04,0.11,0.09,0.15,0.12c0.01,0.01,0.02,0.02,0.03,0.03c0.01,0.01,0.02,0.02,0.03,0.02c0.41,0.37,0.25,0.46,0.98,1.22
					c0.83,0.87,1.4,0.88,1.57,0.8c0.14-0.07-0.14-0.53-0.45-1.04c-0.02-0.02-0.03-0.05-0.05-0.08c-0.04-0.07-0.08-0.14-0.12-0.21
					c-0.36-0.62-0.27-0.91-0.18-1.84c0.07-0.75,1.17-4.19,1.17-4.19l-1.59-0.28c0,0-0.48,2.74-1.01,3.16
					c-0.28,0.22-0.6,0.23-0.87,0.39c-0.02,0.01-0.04,0.02-0.06,0.04C81.65,58.32,81.5,58.42,81.37,58.57z"/>
			</g>
			<g>
				<path class="st21" d="M81.37,58.57c-0.12,0.14-0.14,0.3-0.08,0.47c0,0,0,0,0,0c0.14,0.31,0.5,0.66,0.92,1.01
					c0.05,0.05,0.1,0.09,0.15,0.13c0.01,0.01,0.02,0.02,0.03,0.03c0.01,0.01,0.02,0.02,0.03,0.02c0.41,0.37,0.25,0.46,0.98,1.22
					c0.83,0.87,1.4,0.88,1.57,0.8c0.14-0.07-0.14-0.53-0.45-1.04c-0.16-0.06-0.91-0.37-1.48-1.09c-0.48-0.62-0.81-1.4-1.14-1.88
					c-0.04-0.01-0.06-0.01-0.09-0.02C81.65,58.32,81.5,58.42,81.37,58.57z"/>
			</g>
			<g>
				<path class="st19" d="M94.22,57.58c0.1,0.49,0.8,0.41,1.58,0.22c0.78-0.19,0.6,0.04,1.71-0.09c1.11-0.12,1.45-0.54,1.49-0.7
					c0.03-0.15-0.52-0.2-1.11-0.27c-0.07-0.01-0.15-0.02-0.22-0.03c-0.67-0.08-1.16-0.51-1.76-0.87c-0.57-0.34-1.43-1.7-1.43-1.7
					l-1.53,0.12c0,0,0.8,1.22,1.11,1.75c0.18,0.31,0.17,0.72,0.15,1.04C94.2,57.23,94.19,57.4,94.22,57.58z"/>
			</g>
			<g>
				<path class="st21" d="M95.8,57.79c0.78-0.19,0.6,0.04,1.71-0.09c1.11-0.12,1.45-0.54,1.49-0.7c0.03-0.15-0.52-0.2-1.11-0.27
					l-0.01,0.01c0,0-0.67,0.47-1.6,0.5c-0.76,0.02-1.56-0.2-2.08-0.19c-0.01,0.17-0.02,0.35,0.01,0.52
					C94.32,58.07,95.02,57.99,95.8,57.79z"/>
			</g>
			<g>
				<path class="st25" d="M88.37,47.8l-1.43,3.85l-1.87,5.02c0,0-0.51,0.05-0.99-0.09c-0.45-0.13-0.96-0.47-0.96-0.47
					s0.52-5.39,1.49-8.49c0.25-0.79,0.53-1.44,0.83-1.8C86.94,44.05,88.37,47.8,88.37,47.8z"/>
			</g>
			<g>
				<path class="st7" d="M86.92,41.69c-0.81-0.26-2.94-0.01-5.24,0.41c-0.64,0.11-1.28-0.18-1.61-0.73l0,0l-5.79-0.45
					c0,0-1.91,4.24-0.87,6.94c0.15,0.4,0.49,0.65,1.01,0.65c0,0,0,0,0,0c0,0,3.5,0.01,4.62,0.01c2.88,0,6.1-1.98,6.52-2.06
					c0.68-0.14,0.95,1.23,1.63,2.66c0.68,1.43,6.4,6.34,6.4,6.34s0.88,0.01,1.24-0.13c0.39-0.15,0.53-0.34,0.53-0.34
					S89.03,42.37,86.92,41.69z"/>
			</g>
			<g>
				<path class="st21" d="M79.45,24.36c-0.43-0.26-0.85-0.3-1.11-0.29c-0.18,0.01-0.36-0.01-0.53-0.03
					c-2.21-0.33-3.54,2.89-3.62,3.86c-0.14,1.78-1.09,2.05-2.41,3.17c-2.66,2.24-1.88,4.84-0.43,5.8c0.87,0.58,2.41,0,2.41,0
					c0.02,0.02,4.21-2.34,6.27-3.47C83.13,32.95,80.7,25.1,79.45,24.36z"/>
			</g>
			<g>
				<path class="st19" d="M78.3,32.42c0.01,0.01-1.02,0.36-1.7,0.05c-0.64-0.28-1.13-1.35-1.12-1.35c0.29-0.01,0.62-0.27,0.86-1.95
					l0.12,0.04l2.1,0.76c0,0-0.15,0.67-0.25,1.31C78.23,31.83,78.19,32.35,78.3,32.42z"/>
			</g>
			<g>
				<path class="st26" d="M78.57,29.98c0,0-0.08,0.36-0.21,1.04c-1.21-0.22-1.72-1.15-1.89-1.8L78.57,29.98z"/>
			</g>
			<g>
				<path class="st19" d="M78.88,30.65c0,0-2.87-0.39-2.6-2.17c0.27-1.78,0.08-3.04,1.92-2.86c1.84,0.17,2.1,0.91,2.15,1.52
					C80.41,27.75,79.63,30.7,78.88,30.65z"/>
			</g>
			<g>
				<path class="st21" d="M80.25,26.16c0,0-1.84,1.58-3.09,1.71c-1.25,0.13-1.72-0.27-1.72-0.27s0.74-0.61,1.18-1.6
					c0.13-0.29,0.41-0.49,0.72-0.52C78.23,25.4,79.93,25.37,80.25,26.16z"/>
			</g>
			<g>
				<path class="st21" d="M79.1,26.01c0,0,0.61,0.59,0.81,1.04c0.19,0.43,0.24,1.44,0.09,1.85c0,0,0.96-1.86,0.42-2.77
					C79.84,25.17,79.1,26.01,79.1,26.01z"/>
			</g>
			<g>
				<path class="st20" d="M80.72,36.65c-0.09,5.81-0.03,4.6-0.66,5.15c-0.15,0.13-0.58,0.21-1.15,0.25
					c-1.78,0.12-4.91-0.18-5.03-0.51c-0.41-1.14-0.12-1.49-0.46-3.24c-0.04-0.19-0.08-0.39-0.13-0.61c-0.29-1.2-0.56-1.61,0.45-3.53
					c0.92-1.74,1.88-3.16,1.96-3.11c2.43,1.44,2.62,0.23,2.62,0.23S80.76,33.82,80.72,36.65z"/>
			</g>
			<g>
				<path class="st7" d="M86.94,51.64l-1.87,5.02c0,0-0.51,0.05-0.99-0.09c-0.45-0.13-0.96-0.47-0.96-0.47s0.52-5.39,1.49-8.49
					L86.94,51.64z"/>
			</g>
			<g>
				<path class="st20" d="M78.32,31.29c0,0,2.5,0.42,2.79,1.5c0.29,1.08,1.26,7.6,1.26,7.6s-0.7,0.69-1.29,0.1
					c-0.59-0.59-1.84-6.11-1.84-6.11L78.32,31.29z"/>
			</g>
			<g>
				<path class="st21" d="M78.91,42.05c-1.78,0.12-4.91-0.18-5.03-0.51c-0.41-1.14-0.12-1.49-0.46-3.24l0.86-2.42
					c0,0-0.14,2.7,0.65,3.4c0.79,0.71,3.25,1.37,3.64,1.96C78.75,41.54,78.87,41.82,78.91,42.05z"/>
			</g>
			<g>
				<path class="st19" d="M76.87,40.92c0,0,1.76-0.39,2.04-0.23c0.28,0.16,0.98,0.72,1.06,0.92c0.09,0.2-0.63-0.15-0.87-0.21
					c-0.15-0.04-0.55,0.1-0.75,0.16c-0.83,0.28-1.34,0.13-1.34,0.13L76.87,40.92z"/>
			</g>
			<g>
				<path class="st20" d="M75.69,31.06c0,0-2.36,0.14-3.18,1.28c-1.15,1.6-3.44,8.44-2.13,9.35c1.47,1.03,6.7,0.27,6.7,0.27
					s0.17-0.81-0.07-1.21c-0.24-0.39-4.18-1.03-4.36-1.21c-0.18-0.18,2.27-3.54,2.27-4.09C74.93,34.92,75.69,31.06,75.69,31.06z"/>
			</g>
			<g>
				<path class="st19" d="M78.99,41.17c0,0,0.37,0.48,0.49,0.53c0.12,0.06,0.2,0.04,0.2,0.04l-0.25-0.45L78.99,41.17z"/>
			</g>
			<g>
				<path class="st19" d="M78.91,40.68l1.07,0.52c0,0-0.05,0.07-0.18,0.07c-0.13-0.01-0.46-0.13-0.46-0.13L78.91,40.68z"/>
			</g>
		</g>
		<g>
			<polygon class="st21" points="88.05,41.91 76.87,41.9 76.87,42.15 87.95,42.16 			"/>
		</g>
		<g>
			<polygon class="st21" points="79.48,42.15 87.95,42.16 90.51,35.82 82.05,35.82 			"/>
		</g>
		<g>
			<path class="st6" d="M85.82,38.99c0.06-0.22-0.06-0.4-0.29-0.4c-0.22,0-0.46,0.18-0.52,0.4c-0.06,0.22,0.06,0.4,0.29,0.4
				C85.52,39.39,85.75,39.21,85.82,38.99z"/>
		</g>
	</g>
	<g class="st1">
		<polygon class="st4" points="127.61,63.11 125.26,60.11 125.15,59.97 125.02,59.95 114.21,57.96 110.57,77.74 124.59,80.32 
			127.7,63.4 127.73,63.26 		"/>
	</g>
	<g>
		<g>
			<polygon class="st4" points="120.57,56.97 120.58,57.11 121.25,74.3 107,74.86 106.22,54.76 117.21,54.33 117.34,54.32 
				117.48,54.44 120.42,56.85 			"/>
		</g>
	</g>
	<g>
		<g>
			<path class="st21" d="M111.2,61.89l-23.77,1.32c-0.05,0-0.08,0.04-0.08,0.09l1.74,31.13c0,0.05,0.04,0.08,0.09,0.08l23.74-1.32
				c0.05,0,0.08-0.04,0.08-0.09l-1.74-31.17C111.26,61.91,111.23,61.89,111.2,61.89z"/>
		</g>
		<g>
			<path class="st0" d="M111.16,92.22l-20.14,1.26c-0.6,0.04-1.12-0.42-1.16-1.03l-1.72-27.36c-0.04-0.6,0.42-1.12,1.03-1.16
				l20.14-1.26c0.6-0.04,1.12,0.42,1.16,1.03l1.72,27.36C112.22,91.66,111.76,92.18,111.16,92.22z"/>
		</g>
		<g>
			<g>
				<path class="st8" d="M103.21,67.18l-12.67,0.79c-0.01,0-0.01,0-0.01-0.01l-0.02-0.32c0-0.01,0-0.01,0.01-0.01l12.67-0.79
					c0.01,0,0.01,0,0.01,0.01l0.02,0.32C103.22,67.17,103.22,67.18,103.21,67.18z"/>
			</g>
			<g>
				<path class="st8" d="M103.38,69.9l-12.67,0.79c-0.01,0-0.01,0-0.01-0.01l-0.02-0.32c0-0.01,0-0.01,0.01-0.01l12.67-0.79
					c0.01,0,0.01,0,0.01,0.01l0.02,0.32C103.39,69.89,103.39,69.9,103.38,69.9z"/>
			</g>
			<g>
				<path class="st8" d="M108.14,68.24l-17.51,1.1c-0.01,0-0.01,0-0.01-0.01l-0.02-0.32c0-0.01,0-0.01,0.01-0.01l17.51-1.1
					c0.01,0,0.01,0,0.01,0.01l0.02,0.32C108.15,68.23,108.14,68.24,108.14,68.24z"/>
			</g>
			<g>
				<path class="st8" d="M100.21,78.55l-8.4,0.53c-0.05-0.04-0.08-0.07-0.13-0.11l-0.01-0.1c0.04-0.05,0.07-0.08,0.11-0.13l8.4-0.53
					c0.05,0.04,0.08,0.07,0.13,0.11l0.01,0.1C100.28,78.48,100.25,78.5,100.21,78.55z"/>
			</g>
			<g>
				<path class="st8" d="M103.42,76.99l-11.7,0.73c-0.05-0.04-0.08-0.07-0.13-0.11l-0.01-0.1c0.04-0.05,0.07-0.08,0.11-0.13
					l11.69-0.73c0.05,0.04,0.08,0.07,0.13,0.11l0.01,0.1C103.49,76.91,103.46,76.94,103.42,76.99z"/>
			</g>
			<g>
				<path class="st8" d="M104.41,79.81L91.74,80.6c-0.01,0-0.01,0-0.01-0.01l-0.02-0.32c0-0.01,0-0.01,0.01-0.01l12.67-0.79
					c0.01,0,0.01,0,0.01,0.01l0.02,0.32C104.42,79.8,104.41,79.81,104.41,79.81z"/>
			</g>
			<g>
				<path class="st8" d="M105.79,81.09l-13.85,0.87c-0.05-0.05-0.08-0.07-0.14-0.12l-0.01-0.08c0.05-0.05,0.07-0.08,0.12-0.14
					l13.85-0.87c0.05,0.05,0.08,0.07,0.14,0.12l0.01,0.08C105.86,81,105.84,81.03,105.79,81.09z"/>
			</g>
			<g>
				<path class="st8" d="M101,83.79l-8.84,0.55c-0.05-0.04-0.08-0.07-0.13-0.12l-0.01-0.09c0.04-0.05,0.07-0.08,0.12-0.13l8.84-0.55
					c0.05,0.04,0.08,0.07,0.13,0.12l0.01,0.09C101.07,83.71,101.05,83.73,101,83.79z"/>
			</g>
			<g>
				<path class="st8" d="M101.17,86.51l-8.84,0.55c-0.05-0.04-0.08-0.07-0.13-0.12l-0.01-0.09c0.04-0.05,0.07-0.08,0.12-0.13
					l8.84-0.55c0.05,0.04,0.08,0.07,0.13,0.11l0.01,0.1C101.24,86.43,101.22,86.45,101.17,86.51z"/>
			</g>
			<g>
				<path class="st8" d="M104.55,84.93l-12.3,0.77c-0.05-0.04-0.08-0.07-0.13-0.12l-0.01-0.09c0.04-0.05,0.07-0.08,0.11-0.13
					l12.31-0.77c0.05,0.04,0.08,0.07,0.13,0.11l0.01,0.09C104.62,84.85,104.6,84.88,104.55,84.93z"/>
			</g>
		</g>
		<g>
			<path class="st16" d="M104.72,60.54l-11.09,0.62c-0.73,0.04-1.29,0.62-1.26,1.3l0.09,1.68c0.01,0.16,0.15,0.28,0.32,0.27
				l13.12-0.73c0.17-0.01,0.3-0.14,0.29-0.3l-0.09-1.68C106.08,61.01,105.46,60.49,104.72,60.54z"/>
		</g>
	</g>
	<g>
		<g>
			<path class="st19" d="M124.76,73.99c0,0-0.23-0.52-0.38-0.76c-0.15-0.25-0.79-0.96-0.9-0.8c-0.11,0.16-0.54,1.26-0.31,1.57
				c0.23,0.31-0.02,0.84,1.13,1.16L124.76,73.99z"/>
		</g>
		<g>
			<path class="st25" d="M137.5,70.72c0,0-5.87,4.9-8.16,4.45c-1.79-0.35-4.62-1.25-4.62-1.25s-0.75,0.71-0.54,1.56
				c0,0,3.61,3.39,6.17,3.41c4.02,0.03,5.91-1.99,5.91-1.99L137.5,70.72z"/>
		</g>
		<g>
			<path class="st27" d="M147.8,122.42c0,0-0.17,2.75-0.7,2.79c-0.07,0.01-2.7,0.01-2.7,0.01l-3.35-0.02c0,0,0.02-0.81,1-0.98
				c0.98-0.17,2.62-0.86,3.22-2.16C145.89,120.69,147.8,122.42,147.8,122.42z"/>
		</g>
		<g>
			<path class="st28" d="M147.99,122.61c0,0-1.02,0.34-1.82,0.34c-0.89,0-1.69-0.24-1.69-0.24s-0.19-1.86-1.25-5.95
				c-0.55-2.14-1.34-4.9-2.47-8.32c-3.11-9.47-4.06-15-4.14-15.53c0-0.03-0.01-0.04-0.01-0.04l0.01,0l9.56-4.2
				c0,0-1.18,13.05,0.33,18.05c0.21,0.7,0.39,1.52,0.55,2.4C148.01,114.55,147.99,122.61,147.99,122.61z"/>
		</g>
		<g>
			<path class="st21" d="M143.23,116.76c-0.55-2.14-1.34-4.9-2.47-8.32c-3.11-9.47-4.06-15-4.14-15.53c0-0.02,0-0.03,0-0.05
				l9.56-4.2c0,0-1.18,13.05,0.33,18.05C146.73,107.41,143.23,116.76,143.23,116.76z"/>
		</g>
		<g>
			<path class="st29" d="M140.33,122.42c0,0-0.17,2.75-0.7,2.79c-0.07,0.01-2.7,0.01-2.7,0.01l-3.35-0.02c0,0,0.02-0.81,1-0.98
				c0.98-0.17,2.62-0.86,3.22-2.16C138.42,120.69,140.33,122.42,140.33,122.42z"/>
		</g>
		<g>
			<path class="st28" d="M134.91,88.97c0,0-0.12,8.45,1.34,18.83c1.46,10.38,0.97,14.79,0.97,14.79s1,0.33,1.41,0.36
				c1.03,0.08,2.09-0.24,2.09-0.24s2.09-10.38,1.49-15.58c-0.6-5.2,2.87-17.83,2.87-17.83L134.91,88.97z"/>
		</g>
		<g>
			<path class="st19" d="M141.69,69.19l-1.87,1.22l-1.7-0.48c-0.31-0.44-0.39-1.3-0.4-2.04c0-0.74,0.07-1.36,0.07-1.36l2.52-1.11
				l0.94-0.41c0,0.01-0.07,0.77-0.08,0.88C140.99,67.85,141.69,69.19,141.69,69.19z"/>
		</g>
		<g>
			<path class="st7" d="M134.86,91.32c2.32,2.24,11.12,1.87,11.66-0.61c0.54-2.47-0.59-21.04-4.56-22.21
				c-0.82-0.24-5.23,1.18-5.23,1.18s-0.69,1.81-1.14,4.11c-0.09,0.45-0.34,5.19-0.54,9.63c-0.09,2.08-0.17,4.09-0.2,5.56
				C134.82,90.36,134.81,91.27,134.86,91.32z"/>
		</g>
		<g>
			<path class="st30" d="M140.98,65.92c-0.51,0.86-2.3,1.62-3.25,1.97c0-0.74,0.07-1.36,0.07-1.36l2.52-1.11
				C140.87,65.41,141.2,65.54,140.98,65.92z"/>
		</g>
		<g>
			<path class="st19" d="M136.84,66.38c0,0,4.06,1.27,4.81-1.27c0.75-2.54,1.78-4.09-0.78-5c-2.56-0.92-3.35-0.1-3.81,0.69
				S135.8,65.98,136.84,66.38z"/>
		</g>
		<g>
			<path class="st31" d="M137.22,60.55c0,0,0.26,2.96,0.87,2.83c0.61-0.13,1.28-0.4,1.19,0.49c-0.09,0.89,0.59,2.42,1.48,2.41
				c1.89-0.01,3.94-4.86,3.43-5.78C142.69,57.85,135.06,57.31,137.22,60.55z"/>
		</g>
		<g>
			<path class="st25" d="M137.82,68.57c0.05-0.02,3.02-1.35,3.37-1.24c0.35,0.11,0.78,1.18,0.78,1.18l-5.23,1.18
				C136.74,69.69,137.15,68.85,137.82,68.57z"/>
		</g>
		<g>
			<g>
				<path class="st32" d="M119.33,82.95l16.64,15.67c0.33,0.31,0.74,0.4,0.91,0.22l0.56-0.6c0.18-0.19,0.05-0.59-0.27-0.9
					l-16.64-15.67c-0.33-0.31-0.74-0.41-0.91-0.22l-0.56,0.6C118.88,82.24,119.01,82.64,119.33,82.95z"/>
			</g>
			<g>
				<path class="st23" d="M128.67,91.74l7.3,6.88c0.33,0.31,0.74,0.4,0.91,0.22l0.56-0.6c0.18-0.19,0.05-0.59-0.27-0.9l-7.3-6.88
					L128.67,91.74z"/>
			</g>
			<g>
				<path class="st32" d="M120.18,64.29c-4.94-5.25-13.19-5.5-18.44-0.56c-0.07,0.06-0.14,0.13-0.2,0.2
					c-5.05,4.96-5.23,13.06-0.36,18.24c4.94,5.25,13.19,5.5,18.44,0.56c1.72-1.62,2.9-3.59,3.54-5.69
					C124.47,72.71,123.5,67.82,120.18,64.29z M118.91,81.98c-3.05,2.87-7.21,3.84-11.01,2.94c-2.21-0.52-4.3-1.68-5.97-3.46
					c-4.55-4.83-4.32-12.44,0.52-16.98c1.78-1.67,3.93-2.7,6.17-3.09c3.84-0.67,7.94,0.55,10.81,3.6
					C123.98,69.83,123.74,77.43,118.91,81.98z"/>
			</g>
			<g class="st1">
				<g>
					<path class="st33" d="M101.93,81.46c1.67,1.78,3.76,2.93,5.97,3.46c3.8,0.9,7.96-0.07,11.01-2.94
						c4.83-4.55,5.06-12.15,0.52-16.98c-2.87-3.05-6.97-4.27-10.81-3.6c-2.24,0.39-4.39,1.41-6.17,3.09
						C97.61,69.02,97.38,76.63,101.93,81.46z"/>
				</g>
			</g>
		</g>
		<g>
			<path class="st25" d="M134.85,88.99c9.17-6.53,8.41-15.25,8.41-15.25c-3.35,1.89-6.68,6.07-8.2,9.7
				C134.97,85.5,134.89,87.51,134.85,88.99z"/>
		</g>
		<g>
			<g>
				<path class="st19" d="M125.8,86.01c-0.65-0.15-1.08-0.64-1.17-0.72c0,0-0.28,0.02,0.05,0.61c0.03,0.05,0.09,0.18,0.13,0.27
					c0.02,0.04-0.01,0.08-0.05,0.08c-0.37,0.03-0.75-0.12-1.47,0.03c-0.1,0.02-0.13,0.26-0.12,0.36c0.01,0.17-0.01,0.36,0.19,0.63
					c0.12,0.15,0.44,0.32,1.16,0.61c0.27,0.11,1.06,0.03,1.79-0.23l0.59-0.27l-0.18-1.09l-0.15,0.03
					C126.33,86.36,126.04,86.07,125.8,86.01z"/>
			</g>
			<g>
				<path class="st7" d="M140.41,69.69c0,0,8.24,1.57-2.42,13.5c-1.71,1.91-10.92,4.39-10.92,4.39s-0.93-0.8-0.46-1.44
					c0,0,6.34-4.61,7.74-5.34c0.63-0.33,2.44-7.35,3.46-9.04C138.83,70.06,140.41,69.69,140.41,69.69z"/>
			</g>
		</g>
		<g>
			<path class="st19" d="M124.53,74.14c0,0-0.27-0.52-0.32-0.79c-0.05-0.27-0.39-1.06-0.53-1.2c-0.06-0.06-0.24,0.02-0.26,0.26
				c-0.01,0.1,0.04,0.29,0.13,0.52c0.15,0.37,0.12,0.87,0.17,1.04C123.85,74.37,124.53,74.14,124.53,74.14z"/>
		</g>
	</g>
</g>
<g>
	<g>
		<g>
			<linearGradient id="SVGID_1_" gradientUnits="userSpaceOnUse" x1="-360.636" y1="70.802" x2="-289.0417" y2="20.5977">
				<stop  offset="5.586592e-03" style="stop-color:#0A0068"/>
				<stop  offset="0.4693" style="stop-color:#8F21E2"/>
				<stop  offset="0.7179" style="stop-color:#6C18C2"/>
				<stop  offset="1" style="stop-color:#0A0068"/>
			</linearGradient>
			<path class="st34" d="M-330.29,85.07l-14.12,7.81c0,0-1.26-0.37-3.19-1.22c-2.46-1.09-5.99-2.96-9.43-5.88
				c-2.41-2.04-4.76-4.59-6.65-7.74c-2.01-4.15-2.98-8.41-3.38-12.27c-0.68-6.67,0.36-12.12,0.69-13.62
				c0.01-0.04,0.02-0.07,0.02-0.1c0.03-0.09,0.06-0.19,0.08-0.28c0.62-2.17,1.42-4.23,2.35-6.19c6.8-14.29,20.94-23.28,29.17-27.52
				c3.79-1.96,6.33-2.91,6.33-2.91l1.38,21.51c0,0-2.34,0.75-5.71,2.35c-7.95,3.79-21.64,12.41-23.88,27.44
				c-0.17,1.1-0.24,2.15-0.24,3.12c0,5.89,2.84,9.59,6.67,11.89c0.35,0.22,0.72,0.42,1.09,0.61
				C-341.25,86.1-330.29,85.07-330.29,85.07z M-280.91,12.64c-1.43-1.62-4.14-2.72-7.38-3.46c-2.7-0.62-5.78-0.97-8.82-1.15
				c-0.59,0.06-1.18,0.12-1.77,0.18c-0.24,0.02-0.49,0.05-0.72,0.08c-0.27,0.03-0.54,0.06-0.81,0.1c-0.49,0.05-0.98,0.12-1.47,0.19
				c-0.04,0-0.07,0.01-0.11,0.01c-0.52,0.07-1.04,0.14-1.56,0.22c-0.51,0.07-1.02,0.15-1.52,0.23c-0.49,0.07-0.98,0.15-1.46,0.23
				c-0.4,0.07-0.79,0.14-1.18,0.21c-0.48,0.09-0.96,0.17-1.43,0.26c-1.07,0.21-2.11,0.42-3.14,0.65c-0.02-0.19-0.04-0.39-0.06-0.58
				c0.01,0.18,0.02,0.37,0.03,0.58c0.08,1.48,0.19,3.71,0.3,6.15c0.28,6.18,0.54,13.72,0.18,14.03c-0.1,0.08,0.04,0.01,0.39-0.16
				c0.76-0.39,2.55-1.26,5.13-2.1c0,0,0.01,0,0.01,0c0.02,0,0.04-0.01,0.08-0.03c0.02,0,0.03-0.01,0.05-0.02
				c0.02,0,0.04-0.01,0.05-0.02c0.16-0.05,0.32-0.1,0.49-0.15c0.01,0,0.01,0,0.01,0l0.01,0c0.93-0.29,1.96-0.56,3.08-0.8
				c0.2-0.05,0.41-0.09,0.62-0.13c0.45-0.09,0.9-0.18,1.38-0.25c0.06-0.01,0.13-0.02,0.18-0.03c0.21-0.04,0.43-0.07,0.66-0.1
				c0.17-0.02,0.35-0.05,0.53-0.07c0.21-0.03,0.42-0.05,0.64-0.07c0.36-0.04,0.72-0.08,1.08-0.1c0.23-0.02,0.46-0.04,0.7-0.05
				c0.33-0.02,0.67-0.04,1.01-0.05c0.19-0.01,0.38-0.01,0.57-0.01c0.41-0.02,0.83-0.02,1.26-0.01c0.31,0,0.63,0.01,0.94,0.02
				c0.87,0.03,1.76,0.09,2.67,0.19C-290.31,26.62-275.38,18.89-280.91,12.64z"/>
			
				<linearGradient id="SVGID_2_" gradientUnits="userSpaceOnUse" x1="-359.2299" y1="70.6842" x2="-358.1381" y2="101.3912" gradientTransform="matrix(0.997 0.0778 -0.0778 0.997 25.7837 -25.4602)">
				<stop  offset="0" style="stop-color:#000000"/>
				<stop  offset="0.5223" style="stop-color:#858585;stop-opacity:0"/>
				<stop  offset="1" style="stop-color:#FFFFFF;stop-opacity:0"/>
			</linearGradient>
			<path class="st35" d="M-352.84,30.8c0,0,14.72-3.14,19.21,8.65l9.4-4.27l-6.17-17.1l-0.41-1.64
				C-330.3,15.39-345.82,23.3-352.84,30.8z"/>
			
				<linearGradient id="SVGID_3_" gradientUnits="userSpaceOnUse" x1="-374.3787" y1="130.8228" x2="-379.5648" y2="107.622" gradientTransform="matrix(0.997 0.0778 -0.0778 0.997 25.7837 -25.4602)">
				<stop  offset="0" style="stop-color:#000000;stop-opacity:0.6"/>
				<stop  offset="0.5223" style="stop-color:#858585;stop-opacity:0"/>
				<stop  offset="1" style="stop-color:#FFFFFF;stop-opacity:0"/>
			</linearGradient>
			<path class="st36" d="M-347.59,91.66c-2.46-1.09-5.99-2.96-9.43-5.88c-2.41-2.04-4.76-4.59-6.65-7.74
				c-2.01-4.15-2.98-8.41-3.38-12.27c-0.68-6.67,0.36-12.12,0.69-13.62c0.01-0.04,0.02-0.07,0.02-0.1c0.03-0.09,0.06-0.19,0.08-0.28
				c0.62-2.17,1.42-4.23,2.35-6.19c0,0-2.97,16.2,7.05,24c0,5.89,2.84,9.59,6.67,11.89c0.35,0.22,0.72,0.42,1.09,0.61
				C-348.01,85.87-347.69,89.45-347.59,91.66z"/>
			<g>
				<linearGradient id="SVGID_4_" gradientUnits="userSpaceOnUse" x1="-349.9437" y1="101.5565" x2="-330.4984" y2="1.8549">
					<stop  offset="5.586592e-03" style="stop-color:#0A0068"/>
					<stop  offset="1" style="stop-color:#8F21E2"/>
				</linearGradient>
				<path class="st37" d="M-312.42,51.93c-0.53,6.47-1.82,12.86-3.97,18.98c-0.41,1.17-0.85,2.33-1.32,3.48
					c-1.97,4.8-4.65,9.82-8.2,13.66c-0.01,0-0.01,0-0.01,0c-1.15,1.26-2.41,2.39-3.77,3.34c-3.02,2.12-6.52,3.35-10.56,3.12
					c-0.52-0.03-1.07-0.08-1.61-0.16c-11.97-1.76-18.52-9.47-22.09-16.77c0.08,0.15,0.17,0.3,0.27,0.45
					c-1.9-3.91-2.87-7.92-3.3-11.6c-0.03-0.23-0.06-0.45-0.08-0.67c0.04,0.11,0.09,0.23,0.14,0.34c0.61,1.45,1.31,2.89,2.15,4.27
					c0,0.01,0.01,0.02,0.01,0.03c1.4,2.32,3.13,4.51,5.29,6.42c0.78,0.69,1.62,1.34,2.52,1.95c2.51,1.71,4.75,2.52,6.75,2.68
					c10.63,0.85,14.35-16.83,14.35-16.83c2.18-9.03,3.09-17.6,3.1-25.62c0.01-5.5-0.4-10.74-1.11-15.68
					c-0.26-1.8-0.56-3.56-0.9-5.27l0-0.01c-4.91-25.31-17.28-41.69-18.75-43.58c-0.01-0.01-0.01-0.02-0.02-0.02
					c6.31-1.45,20.69-2.48,31.55,11.03c4.35,5.41,8.51,13.98,9.62,24.32l0,0.01c0.02,0.19,0.05,0.38,0.06,0.58
					c0.21,2.01,0.37,4.04,0.49,6.09c0.29,4.68,0.38,9.41,0.34,13.93c-0.03,4.16-0.16,8.14-0.34,11.74l0,0.01
					C-311.96,45.91-312.2,49.24-312.42,51.93z"/>
			</g>
			
				<linearGradient id="SVGID_5_" gradientUnits="userSpaceOnUse" x1="-313.1648" y1="46.0033" x2="-341.8246" y2="136.8961" gradientTransform="matrix(0.997 0.0778 -0.0778 0.997 25.7837 -25.4602)">
				<stop  offset="0" style="stop-color:#FF9C00"/>
				<stop  offset="1" style="stop-color:#FF3DB8"/>
			</linearGradient>
			<path class="st38" d="M-325.91,88.06c-1.15,1.26-2.41,2.39-3.77,3.34L-325.91,88.06z"/>
			<linearGradient id="SVGID_6_" gradientUnits="userSpaceOnUse" x1="-310.8529" y1="75.9453" x2="-253.3891" y2="83.0299">
				<stop  offset="5.586592e-03" style="stop-color:#0A0068"/>
				<stop  offset="1" style="stop-color:#8F21E2"/>
			</linearGradient>
			<path class="st39" d="M-242.15,69.28c-0.34,3.75-1.61,9.03-5.54,14.14c-0.6,0.67-1.38,1.51-2.23,2.42
				c-0.51,0.53-1.04,1.1-1.58,1.65c-0.01,0.01-0.02,0.02-0.02,0.02c-0.91,0.93-1.83,1.85-2.68,2.62c-0.37,0.3-0.75,0.58-1.14,0.86
				c-0.59,0.41-1.18,0.81-1.78,1.18c-13.02,8.13-27.97,6.44-37.31,0.16c0,0,0,0-0.01,0c-3.04-2.04-5.47-4.59-7.07-7.43
				c-6.71-11.99-6.01-20.92-2.67-25.82c0,0,0.23,0.41,0.71,1.09c2.89,4.06,14.78,18.11,40.46,16.18c4.85-0.37,8.99-1.32,12.52-2.69
				c1.99-0.77,3.77-1.65,5.39-2.63c0.47-0.28,0.92-0.57,1.36-0.87l0.02-0.02c0.45-0.24,0.89-0.48,1.33-0.73
				C-242.3,69.36-242.23,69.32-242.15,69.28z"/>
			
				<linearGradient id="SVGID_7_" gradientUnits="userSpaceOnUse" x1="-302.8563" y1="64.1664" x2="-334.5186" y2="72.3549" gradientTransform="matrix(0.997 0.0778 -0.0778 0.997 25.7837 -25.4602)">
				<stop  offset="0" style="stop-color:#000000;stop-opacity:0.7"/>
				<stop  offset="0.5223" style="stop-color:#858585;stop-opacity:0"/>
				<stop  offset="1" style="stop-color:#FFFFFF;stop-opacity:0"/>
			</linearGradient>
			<path class="st40" d="M-290.31,26.62c-0.91-0.1-1.8-0.16-2.67-0.19c-0.32-0.01-0.63-0.02-0.94-0.02
				c-0.42-0.01-0.84-0.01-1.26,0.01c-0.19,0-0.38,0.01-0.57,0.01c-0.34,0.01-0.68,0.03-1.01,0.05c-0.23,0.01-0.46,0.03-0.7,0.05
				c-0.36,0.03-0.72,0.06-1.08,0.1c-0.22,0.02-0.43,0.05-0.64,0.07c-0.17,0.02-0.35,0.05-0.53,0.07c-0.22,0.03-0.44,0.06-0.66,0.1
				c-0.06,0.01-0.12,0.02-0.18,0.03c-0.47,0.08-0.93,0.16-1.38,0.25c-0.21,0.04-0.41,0.08-0.62,0.13c-1.11,0.24-2.14,0.51-3.08,0.8
				c0.02-0.01,0.03-0.02,0.05-0.03c-0.24,0.08-0.42,0.14-0.56,0.18c-0.02,0-0.04,0.01-0.05,0.02c-0.02,0.01-0.04,0.01-0.05,0.02
				c-0.04,0.01-0.06,0.02-0.08,0.03c-0.01,0-0.01,0-0.01,0l0-0.01c3.72-3.68,1.74-11.43,1.74-11.43c16.22-4.04,5.1-7.61,2.69-8.29
				c-0.01,0-0.01,0-0.01,0c0.49-0.07,0.98-0.13,1.47-0.19c0.27-0.04,0.54-0.07,0.81-0.1c0.24-0.03,0.48-0.06,0.72-0.08
				c0.58-0.07,1.17-0.13,1.77-0.18c3.04,0.18,6.12,0.53,8.82,1.15c3.25,0.73,5.95,1.84,7.38,3.46
				C-275.38,18.89-290.31,26.62-290.31,26.62z"/>
			
				<linearGradient id="SVGID_8_" gradientUnits="userSpaceOnUse" x1="-323.4792" y1="125.7507" x2="-306.6193" y2="125.7507" gradientTransform="matrix(0.997 0.0778 -0.0778 0.997 25.7837 -25.4602)">
				<stop  offset="0" style="stop-color:#000000"/>
				<stop  offset="0.5223" style="stop-color:#858585;stop-opacity:0"/>
				<stop  offset="1" style="stop-color:#FFFFFF;stop-opacity:0"/>
			</linearGradient>
			<path class="st41" d="M-303.46,60.16c0,0-9.12,12.79,6.89,30.19c0,0-5.88-20,7.22-18.56C-289.36,71.79-299.24,66.96-303.46,60.16
				z"/>
			<linearGradient id="SVGID_9_" gradientUnits="userSpaceOnUse" x1="-318.2531" y1="-12.0488" x2="-348.6585" y2="44.9908">
				<stop  offset="0" style="stop-color:#FFFFFF;stop-opacity:0.7"/>
				<stop  offset="0.5223" style="stop-color:#858585;stop-opacity:0"/>
				<stop  offset="1" style="stop-color:#000000;stop-opacity:0"/>
			</linearGradient>
			<path class="st42" d="M-312.42,51.93c-0.16,2.04-0.41,4.06-0.73,6.08l-12.14-14.2c0.1-4.53-0.07-9.58-0.57-15.2
				c-3.68-42.11-24.19-53.53-27.63-54.14c-0.01-0.01-0.01-0.02-0.02-0.02c6.31-1.45,20.69-2.48,31.55,11.03
				c4.35,5.41,8.51,13.98,9.62,24.32l0,0.01c0.02,0.19,0.05,0.38,0.06,0.58c0.21,2.01,0.37,4.04,0.49,6.09
				c0.29,4.68,0.38,9.41,0.34,13.93c-0.03,4.16-0.16,8.14-0.34,11.74l0,0.01C-311.96,45.91-312.2,49.24-312.42,51.93z"/>
			
				<linearGradient id="SVGID_10_" gradientUnits="userSpaceOnUse" x1="-364.317" y1="146.8419" x2="-352.9424" y2="94.5625" gradientTransform="matrix(0.997 0.0778 -0.0778 0.997 25.7837 -25.4602)">
				<stop  offset="0" style="stop-color:#000000"/>
				<stop  offset="0.5223" style="stop-color:#858585;stop-opacity:0"/>
				<stop  offset="1" style="stop-color:#FFFFFF;stop-opacity:0"/>
			</linearGradient>
			<path class="st43" d="M-313.15,58.01c-0.7,4.39-1.77,8.71-3.24,12.9c-0.41,1.17-0.85,2.33-1.32,3.48
				c-1.97,4.79-4.65,9.81-8.18,13.64c-0.01,0-0.01,0.01-0.01,0.02c-0.01,0-0.01,0-0.01,0l-3.77,3.34
				c-3.02,2.12-6.52,3.35-10.56,3.12c-0.52-0.03-1.07-0.08-1.61-0.16c-0.22-0.03-0.43-0.07-0.64-0.1
				c-11.57-1.93-17.95-9.5-21.45-16.67c0.08,0.15,0.17,0.3,0.27,0.45c-1.9-3.91-2.87-7.92-3.3-11.6l0.06-0.32
				c1.52,3.8,15.37,36.54,32.76,10.67c0.01-0.02,0.02-0.03,0.03-0.04c4.57-6.53,8.49-16.29,8.83-32.93L-313.15,58.01z"/>
			<linearGradient id="SVGID_11_" gradientUnits="userSpaceOnUse" x1="-312.9057" y1="57.5929" x2="-378.0533" y2="52.6318">
				<stop  offset="0" style="stop-color:#000000"/>
				<stop  offset="0.5223" style="stop-color:#858585"/>
				<stop  offset="1" style="stop-color:#FFFFFF;stop-opacity:0"/>
			</linearGradient>
			<path class="st44" d="M-311.48,77.05c-0.26-0.31-0.52-0.62-0.78-0.93c-1.46-1.78-2.79-3.66-3.89-5.63
				c-0.1,0.29-0.2,0.58-0.31,0.87c-0.03-0.05-0.07-0.12-0.1-0.17c-0.27,0.79-0.57,1.58-0.87,2.37c-7.35-8.14-6.13-16.84-3.01-23.57
				c0.03-0.07,0.07-0.14,0.09-0.2c3.2-6.77,8.27-11.49,8.27-11.49s0.09,0.46,0.25,1.28v0.01c-0.04,0.99-0.09,1.96-0.13,2.9
				c0.07-0.09,0.15-0.17,0.22-0.26c-0.02,0.35-0.03,0.7-0.05,1.05c0.17-0.2,0.34-0.4,0.52-0.59
				C-309.59,52.48-306.23,75.34-311.48,77.05z"/>
			<g>
				<linearGradient id="SVGID_12_" gradientUnits="userSpaceOnUse" x1="-308.9664" y1="59.9935" x2="-264.8845" y2="26.5385">
					<stop  offset="5.586592e-03" style="stop-color:#0A0068"/>
					<stop  offset="1" style="stop-color:#8F21E2"/>
				</linearGradient>
				<path class="st45" d="M-283.95,44.55c-4.89,1.88-9.42,4.57-13.29,8.08c-4.35,3.94-8.56,9.48-8.85,16.23
					c-0.57,13.59,11.11,23.03,12.15,23.85c-1.19-0.74-15.75-9.94-22.44-21.8c-2.82-5.02-4.24-10.52-2.63-16.05
					c1.33-4.56,3.97-8.84,7.23-12.69l0-0.01c5.65-6.68,13.12-12.12,18.8-15.73c2.91-1.84,5.35-3.2,6.84-4
					c1.7-0.91,3.21-2.15,4.35-3.71c2.2-3.01,3.36-7.53-7.22-9.32l-0.01,0c-0.47-0.08-0.96-0.16-1.47-0.22
					c-3.05-0.4-5.99-0.74-8.4-0.97c0.58-0.07,1.17-0.13,1.77-0.18c3.2-0.31,6.56-0.52,10.09-0.62c1.38,0.01,2.79,0.03,4.2,0.07
					c14.02,0.39,29.08,2.51,32.51,9.43C-244.68,28.28-273.65,40.59-283.95,44.55z"/>
			</g>
			
				<linearGradient id="SVGID_13_" gradientUnits="userSpaceOnUse" x1="-301.3847" y1="56.8655" x2="-301.0157" y2="56.5283" gradientTransform="matrix(0.997 0.0778 -0.0778 0.997 25.7837 -25.4602)">
				<stop  offset="0.0196" style="stop-color:#6BFFE6"/>
				<stop  offset="1" style="stop-color:#6B43E6"/>
			</linearGradient>
			<path class="st46" d="M-278.61,7.65c-0.2-0.02-0.39-0.03-0.59-0.03l0.02-0.03C-279.18,7.59-278.97,7.61-278.61,7.65z"/>
		</g>
		<linearGradient id="SVGID_14_" gradientUnits="userSpaceOnUse" x1="-358.1699" y1="-33.7943" x2="-305.5563" y2="-43.7793">
			<stop  offset="5.586592e-03" style="stop-color:#0A0068"/>
			<stop  offset="1" style="stop-color:#8F21E2"/>
		</linearGradient>
		<path class="st47" d="M-313.33-38.43c0,0.06,0,0.11-0.01,0.16c0,0.05-0.01,0.1-0.01,0.14c-0.1-0.11-0.2-0.23-0.3-0.33
			c-2.62-2.88-5.68-5.03-9.09-6.58c-1.42-0.64-3.51-0.98-4.83-0.41c-0.11,0.05-0.22,0.1-0.32,0.16c-0.43,0.27-0.74,0.67-0.84,1.23
			c-0.03,0.18-0.02,0.59,0.02,1.09c0.1,1.08,0.33,2.54,0.54,2.87c0.06,0.1,0.18,0.22,0.33,0.34c0.85,0.7,2.83,1.71,3.37,2
			c1.13,0.61,2.23,1.29,3.35,1.9c0.48,0.27,0.84,0.6,1.11,1c0.02,0.03,0.05,0.07,0.07,0.11c0.32,0.49,0.5,1.08,0.58,1.71
			c0.25,1.98-0.06,3.88-0.91,5.69c-0.06,0.12-0.13,0.25-0.21,0.36c-0.64,0.97-1.17,1.08-2.18,0.48c-1.59-0.94-3.13-1.96-4.78-2.77
			c-5.72-2.82-11.75-4.27-18.15-3.91c-2.37,0.14-4.7,0.5-6.88,1.54c-0.38,0.18-0.74,0.4-1.16,0.64c-0.09,0.05-0.19,0.1-0.28,0.16
			c-0.04-1.28,0.31-2.35,0.83-3.37c1.47-2.87,3.89-4.65,6.85-5.78c2.16-0.83,4.4-1.09,6.67-1.14c0.33-0.01,0.66-0.01,0.99-0.01
			c0.22,0,0.44,0.01,0.66,0.01c0.28,0.01,0.56,0.02,0.83,0.01c0.1,0,0.19-0.05,0.39-0.11c-0.12-0.36-0.23-0.71-0.36-1.06
			c-0.02-0.06-0.05-0.12-0.06-0.18c-0.18-0.5-0.32-1.02-0.42-1.55l-0.01-0.05c-0.63-3.22,0.8-6.52,3.64-8.19
			c0.68-0.4,1.44-0.76,2.3-1.07c0.39-0.14,0.79-0.25,1.19-0.35c0.03-0.01,0.07-0.02,0.11-0.02c0.62-0.13,3.53-0.66,6.95,0.27
			c0.24,0.07,0.54,0.18,0.86,0.31c2.5,1.01,4.67,2.73,6.19,4.96C-313.57-44.16-313.27-40.31-313.33-38.43z"/>
		<linearGradient id="SVGID_15_" gradientUnits="userSpaceOnUse" x1="-347.7069" y1="-28.8098" x2="-323.8416" y2="-32.8597">
			<stop  offset="0" style="stop-color:#000000"/>
			<stop  offset="0.5223" style="stop-color:#858585;stop-opacity:0"/>
			<stop  offset="1" style="stop-color:#FFFFFF;stop-opacity:0"/>
		</linearGradient>
		<path class="st48" d="M-320.25-27.34c-0.06,0.12-0.13,0.25-0.21,0.36c-0.64,0.97-1.17,1.08-2.18,0.48
			c-1.59-0.94-3.13-1.96-4.78-2.77c-5.72-2.82-11.75-4.27-18.15-3.91c-2.37,0.14-4.7,0.5-6.88,1.54c-0.38,0.18-0.74,0.4-1.16,0.64
			c-0.03-0.01-0.05-0.01-0.05-0.01s9.06-9.63,20.96-4.53c11.77,5.04,13.48,3.19,12.73,0.8c-0.01-0.03-0.01-0.05-0.02-0.08
			c0-0.01-0.01-0.01-0.01-0.02c0.02,0.03,0.05,0.07,0.07,0.11c0.32,0.49,0.5,1.08,0.58,1.71C-319.09-31.05-319.4-29.15-320.25-27.34
			z"/>
		<linearGradient id="SVGID_16_" gradientUnits="userSpaceOnUse" x1="-318.6622" y1="-43.1831" x2="-330.8118" y2="-45.883">
			<stop  offset="0" style="stop-color:#FFFFFF;stop-opacity:0.7"/>
			<stop  offset="0.1596" style="stop-color:#DADADA;stop-opacity:0.5883"/>
			<stop  offset="0.5223" style="stop-color:#858585;stop-opacity:0"/>
			<stop  offset="1" style="stop-color:#000000;stop-opacity:0"/>
		</linearGradient>
		<path class="st49" d="M-313.34-38.26c0,0.05-0.01,0.1-0.01,0.14c-0.1-0.11-0.2-0.23-0.3-0.33c-2.62-2.88-5.68-5.03-9.09-6.58
			c-1.42-0.64-3.51-0.98-4.83-0.41c-0.11,0.05-0.2,0.13-0.32,0.16c-1.98,0.67-0.17,4.64-0.28,5.2c-0.03,0.18-4.01-0.5-3.97,0
			c-0.96-1.09-1.14-3.83-1.7-5.1c-0.98-2.21,2.06-5.66,6.8-5.66C-318.5-50.85-314.59-41.96-313.34-38.26z"/>
		<linearGradient id="SVGID_17_" gradientUnits="userSpaceOnUse" x1="-11.73" y1="-19.2412" x2="-194.5383" y2="69.576">
			<stop  offset="5.586592e-03" style="stop-color:#0A0068"/>
			<stop  offset="1" style="stop-color:#8F21E2"/>
		</linearGradient>
		<path class="st50" d="M-198.51,40.34c0,6.11-0.24,12.01-0.72,17.7c-0.48,5.69-1.1,11.53-1.85,17.54c-0.22,2.9-0.86,5.39-1.93,7.48
			c-1.07,2.09-2.39,3.65-3.94,4.67c-1.56,1.02-3.27,1.39-5.15,1.13c-1.88-0.27-3.68-1.37-5.39-3.3c-2.25-2.68-3.73-6.01-4.43-9.98
			c-0.7-3.97-0.83-8.13-0.4-12.47c0.43-4.34,1.29-8.63,2.57-12.87c1.29-4.24,2.84-7.96,4.67-11.18c1.29-2.36,2.87-4.15,4.75-5.39
			c1.88-1.23,3.7-1.82,5.47-1.77c1.77,0.05,3.27,0.75,4.5,2.09C-199.13,35.33-198.51,37.44-198.51,40.34z M-189.99,11.86
			c-0.32,4.4-1.99,8.15-4.99,11.26c-1.18,1.29-2.55,2.15-4.1,2.57c-1.56,0.43-3.06,0.51-4.51,0.24c-1.45-0.27-2.76-0.88-3.94-1.85
			c-1.18-0.97-2.04-2.25-2.57-3.86c-0.64-1.93-0.94-3.92-0.88-5.95c0.05-2.04,0.51-4.02,1.37-5.95c1.18-2.25,2.87-3.83,5.07-4.75
			c2.2-0.91,4.37-1.21,6.52-0.88c2.15,0.32,4.02,1.26,5.63,2.82C-190.79,7.06-189.99,9.18-189.99,11.86z M-152.65,69.79
			c0.54,3.33,0.94,6.55,1.21,9.65c0.27,3.11,0.62,6.11,1.05,9.01c0.64,4.4-0.8,7.46-4.34,9.17c-3.54,1.18-6.33,0.91-8.37-0.8
			c-2.04-1.71-3.65-4.02-4.83-6.92c-3.43-8.05-5.9-16.79-7.4-26.23c-1.5-9.44-1.91-19.2-1.21-29.28c0.7-10.08,2.66-20.27,5.87-30.57
			c3.22-10.3,7.83-20.33,13.84-30.09c1.61-2.57,3.4-4.4,5.39-5.47c1.98-1.07,3.78-1.47,5.39-1.21c1.61,0.27,2.82,1.21,3.62,2.82
			c0.8,1.61,0.83,3.76,0.08,6.44c-1.18,4.29-2.23,8.85-3.14,13.68c-0.91,4.83-1.69,9.71-2.33,14.64c-0.64,4.93-1.21,9.84-1.69,14.72
			c-0.48,4.88-0.88,9.47-1.21,13.76c2.9-2.04,5.95-3.89,9.17-5.55c3.22-1.66,6.36-2.76,9.41-3.3c3.06-0.54,5.93-0.35,8.61,0.56
			c2.68,0.91,4.93,2.87,6.76,5.87c1.5,3.65,2.52,7.24,3.06,10.78c0.54,3.43,0.62,6.92,0.24,10.46c-0.38,3.54-1.21,6.87-2.49,9.98
			c-1.29,3.11-3.11,5.79-5.47,8.05c-2.36,2.25-5.26,3.76-8.69,4.51c-3.86,0.64-7.72,0.32-11.58-0.97
			C-145.57,72.2-149.22,70.97-152.65,69.79z M-151.52,57.56c4.83,2.9,8.98,4.26,12.47,4.1c3.48-0.16,6.22-1.31,8.21-3.46
			c1.98-2.14,3.19-4.99,3.62-8.53c0.43-3.54,0-7.24-1.29-11.1c-0.86-1.82-1.75-2.9-2.66-3.22c-0.91-0.32-1.96-0.16-3.14,0.48
			c-4.18,2.15-7.72,5.23-10.62,9.25C-147.82,49.11-150.02,53.27-151.52,57.56z M-66.24,63.19c-0.64,1.18-1.26,2.33-1.85,3.46
			c-0.59,1.13-1.15,2.28-1.69,3.46c-1.29,2.57-2.87,4.45-4.75,5.63c-1.88,1.18-3.84,1.77-5.87,1.77c-2.04,0-4.05-0.51-6.03-1.53
			c-1.99-1.02-3.73-2.44-5.23-4.26c-2.68-3.32-4.37-6.89-5.07-10.7c-0.7-3.81-0.78-7.75-0.24-11.83c0.43-3,1.26-6.09,2.49-9.25
			c1.23-3.16,2.79-6.11,4.67-8.85c1.88-2.74,4.08-5.09,6.6-7.08c2.52-1.98,5.34-3.3,8.45-3.94c2.04-0.43,4.18-0.54,6.44-0.32
			c2.25,0.22,4.77,0.8,7.56,1.77c1.71-4.18,3.75-7.94,6.11-11.26c1.39-1.82,2.92-3.24,4.59-4.26c1.66-1.02,3.73-1.05,6.19-0.08
			c1.82,0.97,3.14,2.31,3.94,4.02c0.8,1.72,0.99,3.49,0.56,5.31c-0.86,7.83-1.8,15.61-2.82,23.33c-1.02,7.72-1.96,15.45-2.82,23.17
			c-0.22,1.72-0.38,3.43-0.48,5.15c-0.11,1.72-0.27,3.38-0.48,4.99c-0.54,5.15-2.9,8.15-7.08,9.01c-2.47,0.43-4.51,0.05-6.11-1.13
			c-1.61-1.18-2.9-2.73-3.86-4.67c-0.97-1.93-1.66-3.99-2.09-6.19C-65.55,66.7-65.92,64.8-66.24,63.19z M-79.76,67.21
			c3-5.04,5.44-10.08,7.32-15.12c1.88-5.04,3.89-10.14,6.03-15.29c-2.57,0.43-4.93,1.75-7.08,3.94c-2.15,2.2-3.89,4.8-5.23,7.8
			c-1.34,3-2.17,6.19-2.49,9.57C-81.53,61.5-81.05,64.53-79.76,67.21z"/>
	</g>
</g>
</svg>
